<svg width="87" height="65" viewBox="0 0 87 65" fill="none" xmlns="http://www.w3.org/2000/svg">
<path d="M1.20897 47.3184C1.10297 47.3184 0.996975 47.2939 0.896975 47.2423C0.561975 47.0681 0.433974 46.6573 0.605974 46.3253C0.703974 46.1403 10.503 27.5542 28.407 21.4541C48.081 14.7499 71.384 22.3764 86.386 40.4293C86.625 40.7177 86.587 41.1476 86.296 41.387C86.011 41.6237 85.581 41.5883 85.339 41.2972C70.698 23.677 47.994 16.2219 28.845 22.741C11.455 28.6643 1.90797 46.7688 1.81597 46.9484C1.69097 47.1851 1.45397 47.3184 1.20897 47.3184Z" fill="#232996"/>
<path d="M11.058 34.3158C10.832 34.3158 10.609 34.2016 10.481 33.9975L0.632964 18.2547C0.433964 17.9364 0.528976 17.5174 0.847976 17.316C1.16898 17.1201 1.58696 17.2126 1.78596 17.531L11.637 33.2738C11.835 33.5921 11.74 34.0111 11.422 34.2125C11.308 34.2832 11.183 34.3158 11.058 34.3158Z" fill="#232996"/>
<path d="M37.879 20.7142C37.607 20.7142 37.352 20.5482 37.246 20.2815L29.851 1.3281C29.715 0.979898 29.886 0.585301 30.237 0.446601C30.588 0.307801 30.982 0.4847 31.118 0.8329L38.513 19.7863C38.649 20.1346 38.478 20.5291 38.127 20.6679C38.045 20.6978 37.961 20.7142 37.879 20.7142Z" fill="#232996"/>
<path d="M64.021 24.9125C63.635 24.9071 63.333 24.5969 63.342 24.2214L63.714 2.26971C63.72 1.89421 64.019 1.67651 64.405 1.60031C64.78 1.60581 65.079 1.91601 65.074 2.29141L64.701 24.2432C64.693 24.616 64.391 24.9125 64.021 24.9125Z" fill="#232996"/>
<path d="M40.841 64.332C17.381 64.332 5.09896 51.639 0.999962 47.4002L0.722969 47.1145C0.460969 46.8451 0.466955 46.4152 0.735955 46.1513C1.00795 45.8901 1.43797 45.8956 1.69897 46.1649L1.97897 46.4533C6.07497 50.687 18.572 63.627 42.495 62.95C67.911 62.302 82.6239 44.1025 85.3169 40.462C85.5429 40.1573 85.972 40.1001 86.269 40.3178C86.571 40.5409 86.636 40.9681 86.413 41.2701C83.655 45.0031 68.58 63.646 42.533 64.31C41.959 64.324 41.396 64.332 40.841 64.332Z" fill="#232996"/>
<path d="M43.039 64.648C54.729 64.648 64.206 54.591 64.206 42.1845C64.206 29.7784 54.729 19.7212 43.039 19.7212C31.348 19.7212 21.871 29.7784 21.871 42.1845C21.871 54.591 31.348 64.648 43.039 64.648Z" fill="#232996"/>
</svg>
