<svg width="376" height="415" viewBox="0 0 376 415" fill="none" xmlns="http://www.w3.org/2000/svg">
<g clip-path="url(#clip0_11_180)">
<path d="M342.929 414.616H336.883C336.508 414.616 336.203 414.311 336.203 413.936C336.203 413.56 336.508 413.256 336.883 413.256H342.929C343.304 413.256 343.609 413.56 343.609 413.936C343.609 414.311 343.304 414.616 342.929 414.616Z" fill="#232996"/>
<path d="M332.548 414.616H325.02C324.644 414.616 324.34 414.311 324.34 413.936C324.34 413.56 324.644 413.256 325.02 413.256H332.548C332.923 413.256 333.228 413.56 333.228 413.936C333.228 414.311 332.923 414.616 332.548 414.616Z" fill="#232996"/>
<path d="M321.144 414.616H36.6739C36.2986 414.616 35.994 414.311 35.994 413.936C35.994 413.56 36.2986 413.256 36.6739 413.256H321.144C321.519 413.256 321.824 413.56 321.824 413.936C321.824 414.311 321.519 414.616 321.144 414.616Z" fill="#232996"/>
<path d="M31.7132 414.616H29.6598C29.2845 414.616 28.9799 414.311 28.9799 413.936C28.9799 413.56 29.2845 413.256 29.6598 413.256H31.7132C32.0886 413.256 32.3932 413.56 32.3932 413.936C32.3932 414.311 32.0886 414.616 31.7132 414.616Z" fill="#232996"/>
<path d="M26.2355 414.616H21.2747C20.8994 414.616 20.5948 414.311 20.5948 413.936C20.5948 413.56 20.8994 413.256 21.2747 413.256H26.2355C26.6109 413.256 26.9155 413.56 26.9155 413.936C26.9155 414.311 26.6136 414.616 26.2355 414.616Z" fill="#232996"/>
<path d="M124.888 111.105C108.075 182.247 98.4391 203.103 92.6052 205.162C91.7757 205.448 88.2292 206.362 86.4287 209.453C83.5132 214.43 88.0007 220.209 85.2266 223.098C82.7381 225.702 77.6767 222.584 76.1618 224.701C74.2172 227.503 82.5395 233.511 83.2521 243.066C83.4806 246.04 82.9366 248.758 82.1071 251.019H68.0434C66.8712 249.131 65.6691 247.243 64.4969 245.385C64.5839 247.273 64.6682 249.161 64.7824 251.019H35.646C34.6179 248.846 33.5599 246.672 32.4992 244.498C32.4421 246.672 32.4149 248.846 32.3578 251.019H23.1216C22.6919 248.13 22.2649 245.183 21.8352 242.267C21.0057 245.183 20.1761 248.103 19.3466 251.019H8.30993C1.10537 230.48 2.62026 223.242 5.8513 220.726C7.8231 219.18 9.79763 219.466 12.3134 217.15C16.5752 213.175 12.686 207.053 16.4311 202.648C19.692 198.815 23.8668 202.077 28.4115 198.358C34.2725 193.58 31.0986 184.971 36.4456 181.937C39.8479 179.992 44.1098 181.766 45.1949 182.109C52.6307 184.454 71.2445 170.839 117.738 108.621C120.142 109.446 122.514 110.276 124.888 111.105Z" fill="#232996"/>
<path d="M5.16312 251.969C4.87211 251.969 4.60286 251.781 4.51311 251.488C-1.15481 233.051 -1.48117 222.307 3.51769 218.636C4.43968 217.961 5.35078 217.61 6.22926 217.27C7.38242 216.827 8.57367 216.367 9.91721 215.113C11.9053 213.257 11.9298 210.83 11.957 208.259C11.9842 205.666 12.0114 202.983 13.9832 200.665C15.8217 198.502 17.9703 198.366 20.0482 198.233C21.9792 198.11 23.9755 197.982 26.0506 196.287C28.8193 194.032 29.4394 190.832 30.0405 187.736C30.666 184.506 31.2589 181.459 34.1826 179.802C37.071 178.166 40.3265 179.059 42.4805 179.652C42.8205 179.744 43.1387 179.831 43.4297 179.905C61.8368 184.375 93.5489 150.854 112.397 117.225C114.145 114.107 115.821 110.91 117.385 107.721C117.55 107.381 117.964 107.25 118.293 107.408C118.63 107.574 118.769 107.982 118.606 108.317C117.031 111.527 115.342 114.746 113.585 117.886C94.4953 151.951 62.1251 185.869 43.1088 181.225C42.8069 181.151 42.4751 181.061 42.1215 180.963C40.0681 180.4 37.2532 179.625 34.8544 180.982C32.4774 182.332 31.9688 184.955 31.3786 187.991C30.7612 191.169 30.0623 194.772 26.9128 197.337C24.5031 199.31 22.1832 199.457 20.138 199.588C18.0982 199.718 16.4854 199.819 15.0221 201.544C13.3713 203.486 13.3468 205.81 13.3223 208.27C13.2924 211.015 13.2652 213.853 10.8501 216.103C9.31343 217.537 7.93725 218.068 6.72425 218.535C5.88929 218.857 5.10329 219.159 4.32817 219.73C-0.0832343 222.968 0.419916 233.516 5.81858 251.085C5.93009 251.444 5.72883 251.822 5.36982 251.934C5.29639 251.958 5.23112 251.969 5.16312 251.969Z" fill="#232996"/>
<path d="M348.684 272.865C348.602 272.865 348.521 272.851 348.439 272.819C348.088 272.683 347.914 272.291 348.048 271.94L363.607 231.484C363.743 231.135 364.135 230.964 364.486 231.092C364.836 231.228 365.01 231.62 364.874 231.971L349.315 272.427C349.217 272.699 348.959 272.865 348.684 272.865Z" fill="#232996"/>
<path d="M359.604 295.859C359.351 295.859 359.106 295.715 358.989 295.47L348.069 272.473C347.906 272.133 348.053 271.728 348.39 271.567C348.727 271.404 349.135 271.548 349.296 271.888L360.216 294.885C360.379 295.225 360.232 295.63 359.895 295.791C359.802 295.837 359.702 295.859 359.604 295.859Z" fill="#232996"/>
<path d="M318.625 302.748C318.299 302.748 318.011 302.514 317.956 302.182C317.894 301.812 318.144 301.461 318.514 301.399L359.489 294.51C359.862 294.444 360.21 294.695 360.273 295.067C360.335 295.437 360.085 295.788 359.715 295.851L318.74 302.74C318.702 302.746 318.664 302.748 318.625 302.748Z" fill="#232996"/>
<path d="M300.297 328.403C300.167 328.403 300.033 328.365 299.916 328.289C299.604 328.076 299.522 327.655 299.732 327.345L316.175 302.939C316.387 302.626 316.811 302.547 317.119 302.753C317.431 302.966 317.513 303.387 317.304 303.698L300.86 328.104C300.732 328.3 300.518 328.403 300.297 328.403Z" fill="#232996"/>
<path d="M300.297 328.403C300.213 328.403 300.126 328.387 300.042 328.351L267.443 315.074C267.095 314.932 266.929 314.535 267.07 314.187C267.212 313.838 267.603 313.67 267.957 313.814L300.556 327.092C300.904 327.233 301.07 327.63 300.928 327.979C300.819 328.245 300.566 328.403 300.297 328.403Z" fill="#232996"/>
<path d="M243.74 356.548C243.623 356.548 243.507 356.518 243.4 356.455C243.074 356.267 242.963 355.851 243.153 355.527L267.111 314.105C267.299 313.776 267.718 313.67 268.038 313.858C268.365 314.045 268.476 314.462 268.286 314.785L244.328 356.207C244.203 356.425 243.974 356.548 243.74 356.548Z" fill="#232996"/>
<path d="M351.918 301.175C348.439 295.927 349.872 288.853 355.116 285.37C360.362 281.89 367.434 283.324 370.915 288.57C374.393 293.818 372.96 300.892 367.717 304.375C362.47 307.858 355.396 306.424 351.918 301.175Z" fill="#232996"/>
<path d="M233.248 363.888C229.769 358.64 231.203 351.565 236.446 348.083C241.693 344.603 248.764 346.034 252.242 351.283C255.721 356.531 254.29 363.605 249.044 367.085C243.8 370.571 236.726 369.137 233.248 363.888Z" fill="#232996"/>
<path d="M259.76 318.521C257.26 314.75 258.288 309.664 262.061 307.161C265.83 304.661 270.916 305.689 273.415 309.463C275.915 313.234 274.887 318.319 271.115 320.823C267.342 323.323 262.259 322.292 259.76 318.521Z" fill="#232996"/>
<path d="M354.613 231.057C351.134 225.808 352.568 218.734 357.811 215.254C363.058 211.774 370.129 213.205 373.61 218.454C377.089 223.702 375.655 230.777 370.412 234.257C365.165 237.737 358.094 236.305 354.613 231.057Z" fill="#FF2468"/>
<path d="M289.617 335.779C286.138 330.531 287.572 323.457 292.815 319.974C298.062 316.494 305.133 317.925 308.614 323.174C312.093 328.422 310.659 335.496 305.416 338.979C300.169 342.459 293.098 341.028 289.617 335.779Z" fill="#FF2468"/>
<path d="M340.468 273.788C337.968 270.017 338.996 264.929 342.769 262.428C346.538 259.928 351.621 260.956 354.123 264.73C356.623 268.501 355.595 273.589 351.823 276.09C348.053 278.59 342.97 277.559 340.468 273.788Z" fill="#FF2468"/>
<path d="M313.015 306.394C310.515 302.623 311.543 297.538 315.316 295.035C319.085 292.534 324.168 293.563 326.67 297.334C329.17 301.105 328.142 306.193 324.37 308.693C320.6 311.196 315.517 310.165 313.015 306.394Z" fill="#232996"/>
<path d="M66.123 126.674C65.8266 131.509 65.533 136.342 65.2365 141.176C71.4484 141.337 77.6574 141.5 83.8693 141.661C91.7374 134.404 95.1888 130.04 94.2233 128.563C93.489 127.439 90.1954 127.986 84.3425 130.209C83.959 125.091 83.5755 119.976 83.1893 114.86C82.5964 108.853 81.7044 107.46 80.97 107.375C79.9393 107.258 78.8704 109.683 78.5604 110.385C77.1733 113.527 77.5731 116.515 77.8886 118.006C76.4852 118.234 74.3067 118.773 72.0221 120.191C68.5518 122.34 66.8275 125.276 66.123 126.674Z" fill="#FF9292"/>
<path d="M79.322 128.636C79.137 128.636 78.9874 128.489 78.982 128.304C78.9575 127.221 78.895 126.141 78.7943 125.088C78.5795 122.843 78.1851 120.596 77.6221 118.411C77.5759 118.229 77.6847 118.044 77.8669 117.997C78.0518 117.957 78.2341 118.06 78.2803 118.242C78.8515 120.462 79.2513 122.743 79.4715 125.025C79.5749 126.095 79.6375 127.191 79.6619 128.29C79.6674 128.478 79.5178 128.633 79.3301 128.639L79.322 128.636Z" fill="#F25353"/>
<path d="M69.006 134.143C68.9081 134.143 68.8102 134.135 68.7096 134.118C67.6652 133.944 66.8738 132.924 66.8275 131.691C66.8221 131.504 66.9662 131.346 67.1539 131.338C67.3497 131.338 67.4993 131.482 67.5075 131.664C67.5401 132.562 68.1058 133.327 68.8211 133.444C69.6996 133.601 70.3822 132.652 70.5101 132.467C70.8228 132.004 70.9017 131.517 70.9126 131.191C70.918 131.03 71.0322 130.897 71.1873 130.867C71.3505 130.837 71.5 130.921 71.5626 131.063C71.6034 131.15 71.9678 131.928 72.8191 132.102C73.4392 132.23 74.1164 131.98 74.5325 131.463C75.071 130.796 74.9024 129.983 74.8807 129.89C74.8453 129.735 74.9215 129.575 75.0656 129.507C75.2097 129.439 75.3811 129.479 75.479 129.605C75.8326 130.059 76.3901 130.293 76.9748 130.217C77.565 130.135 78.06 129.732 78.264 129.169C78.3293 128.995 78.5224 128.903 78.6992 128.965C78.8759 129.03 78.9684 129.224 78.9031 129.4C78.6121 130.203 77.9077 130.775 77.0673 130.892C76.5533 130.96 76.0284 130.851 75.5878 130.589C75.547 130.984 75.4137 131.455 75.0602 131.893C74.4863 132.606 73.5453 132.946 72.6831 132.772C72.1256 132.657 71.7231 132.369 71.4429 132.078C71.364 132.328 71.2444 132.589 71.0676 132.848C70.918 133.085 70.132 134.143 69.006 134.143Z" fill="#F25353"/>
<path d="M75.0928 128.508C74.9432 128.508 74.8045 128.407 74.7637 128.255L72.7592 120.789C72.7103 120.609 72.8164 120.422 72.9986 120.373C73.1754 120.326 73.3685 120.43 73.4147 120.612L75.4191 128.078C75.4681 128.258 75.362 128.445 75.1798 128.494C75.1526 128.505 75.1227 128.508 75.0928 128.508Z" fill="#F25353"/>
<path d="M71.2525 130.437C71.1083 130.437 70.9751 130.344 70.9288 130.2L68.9978 124.141C68.9407 123.961 69.0414 123.771 69.2181 123.714C69.4004 123.662 69.588 123.757 69.6451 123.934L71.5761 129.996C71.6333 130.176 71.5326 130.366 71.3558 130.423C71.3205 130.431 71.2851 130.437 71.2525 130.437Z" fill="#F25353"/>
<path d="M102.875 232.621C108.089 233.74 117.749 235.086 129.283 232.3C139.053 229.941 146.132 225.591 150.234 222.611C150.152 198.57 150.073 174.526 149.991 150.485C147.775 148.776 134.834 139.13 118.051 142.336C109.206 144.025 103.109 148.553 100.082 151.181C101.015 178.33 101.945 205.476 102.875 232.621Z" fill="#FF9292"/>
<path d="M178.614 203.81C173.161 206.738 167.754 209.663 162.35 212.639C162.102 212.291 162.002 211.896 161.754 211.597C160.911 209.761 159.918 208.025 159.026 206.191C158.48 205.149 157.887 204.107 157.34 203.016C156.598 201.429 155.852 200.14 155.11 198.7C154.514 197.56 154.019 196.467 153.424 195.376C152.431 193.441 151.441 191.507 150.497 189.572C150.399 189.422 150.348 189.275 150.25 189.126C150.002 188.631 149.703 188.184 149.456 187.637C148.564 185.902 147.671 184.166 146.828 182.43C145.836 180.596 144.846 178.661 143.902 176.825C145.588 174.594 148.117 170.624 149.456 165.068C151.093 158.519 150.25 153.064 149.605 150.188C152.333 152.666 155.455 155.942 158.333 160.209C159.82 162.342 161.009 164.374 162.002 166.311C162.002 166.311 163.935 169.536 168.2 178.86C168.548 179.603 168.894 180.397 169.242 181.241C170.085 183.126 171.026 185.259 172.018 187.64C172.513 188.78 173.011 189.923 173.506 191.014L175.788 196.619C176.778 198.997 177.722 201.429 178.614 203.81Z" fill="#FF9292"/>
<path d="M132.694 220.179L132.667 220.609L128.234 263.862L127.804 267.981L126.803 277.793L126.632 279.365L125.973 285.974L125.745 288.148L124.717 298.618L124.374 302.365L124.287 302.966C124.23 303.053 110.218 301.592 110.218 301.592L91.2588 299.704C91.2017 299.676 91.8028 293.868 91.8028 293.868L93.3748 278.364L94.547 266.779C94.6041 266.752 95.8334 254.535 95.8334 254.535L98.0364 232.967C99.1814 227.648 100.324 222.356 101.439 217.004L125.859 219.493L132.694 220.179Z" fill="#FF9292"/>
<path d="M123.373 312.358L123.281 313.564L122.808 318.935L118.706 366.851L117.744 377.99L116.283 395.349L83.1785 392.484L84.8104 373.667L85.2156 368.653L85.357 367.444L85.6834 363.782L85.7759 362.58L85.901 361.176L86.3062 356.161L86.4313 354.754L86.8529 349.936L86.978 348.529L87.3587 343.814L87.4784 342.358L87.9326 337.338C88.0632 337.129 88.0958 336.925 88.0822 336.778C88.074 336.68 88.0659 336.579 88.006 336.487L88.4548 330.819L88.5473 330.163L89.5971 317.77L90.3124 309.49L123.373 312.358Z" fill="#FF9292"/>
<path d="M124.646 305.355C124.733 306.742 124.605 308.143 124.304 309.556C124.04 310.878 123.556 312.17 122.941 313.43C122.824 313.656 122.707 313.835 122.547 314.064C118.255 321.824 108.165 324.643 99.7117 320.349C93.4645 317.22 89.8092 311.055 89.8038 304.829L89.9262 302.645C89.9207 302.558 89.9153 302.471 89.9533 302.381C90.1954 300.71 90.6986 299.069 91.471 297.497C91.8191 296.822 92.2107 296.145 92.6513 295.551C93.8099 293.911 95.2432 292.512 96.8696 291.408C97.245 291.165 97.6665 290.921 98.0881 290.719C102.965 288.015 109.212 287.748 114.744 290.572C116.677 291.538 118.32 292.782 119.721 294.259C122.699 297.339 124.429 301.276 124.646 305.355Z" fill="#FF9292"/>
<path d="M171.382 295.672C171.352 295.729 153.195 301.421 153.195 301.421L139.754 305.712C139.697 305.627 139.496 305.053 139.496 305.053L138.351 301.448L135.234 291.435L133.776 286.829L132.574 283.025L130.888 277.733L127.858 268.15L127.801 267.979L114.591 226.301L121.14 224.241L132.664 220.609L144.53 216.833C146.733 221.839 148.933 226.788 151.106 231.765L157.683 252.446L161.371 264.145C161.428 264.145 165.516 277.132 165.516 277.132C165.546 277.132 168.404 286.258 168.404 286.258L169.633 290.118L171.382 295.672Z" fill="#FF9292"/>
<path d="M204.378 393.796C200.211 401.534 173.833 394.343 169.818 393.2L165.456 380.154L161.738 369.091L145.474 320.477L143.739 315.368L143.391 314.176C153.606 310.206 163.87 306.19 174.083 302.22C175.222 305.295 176.365 308.421 177.455 311.548L181.423 323.353L181.622 323.9L183.406 329.306C183.357 329.603 183.455 329.853 183.702 330.101C183.702 330.15 185.288 334.911 185.288 334.911L185.783 336.299L187.271 340.813L187.717 342.103L189.253 346.714L189.699 348.053L191.288 352.815L191.734 354.153L193.27 358.768L193.716 359.908L195.302 364.669C197.285 370.672 199.267 376.625 201.302 382.627C205.667 389.132 205.172 392.259 204.378 393.796Z" fill="#FF9292"/>
<path d="M140.105 308.87C140.388 310.231 140.883 311.547 141.549 312.829C142.153 314.034 142.964 315.153 143.891 316.203C144.062 316.388 144.226 316.532 144.44 316.709C150.636 323.054 161.112 323.095 168.124 316.712C173.319 312.037 175.209 305.124 173.563 299.121L172.867 297.048C172.848 296.964 172.832 296.879 172.772 296.803C172.097 295.258 171.173 293.808 170.014 292.496C169.5 291.938 168.94 291.389 168.358 290.932C166.807 289.656 165.053 288.69 163.193 288.056C162.766 287.922 162.298 287.797 161.836 287.716C156.418 286.401 150.323 287.8 145.738 291.993C144.13 293.435 142.874 295.073 141.917 296.869C139.858 300.623 139.232 304.881 140.105 308.87Z" fill="#FF9292"/>
<path d="M107.063 173.451C105.725 175.037 104.387 176.724 102.997 178.362C101.806 179.801 100.568 181.339 99.3283 182.827C98.8823 183.423 98.3873 183.967 97.8896 184.563C97.4925 185.058 97.1443 185.504 96.75 186.002C95.809 187.194 94.8163 188.383 93.8752 189.575C93.0811 190.516 92.3386 191.46 91.4955 192.451C91.0984 192.946 90.6524 193.493 90.2553 193.988C89.6597 194.682 89.064 195.376 88.4711 196.121C87.677 197.163 86.8339 198.105 86.0914 198.997C84.8512 200.583 83.5131 202.121 82.2729 203.71C82.0254 203.957 81.8268 204.305 81.5304 204.602C76.8198 200.583 72.1582 196.565 67.4476 192.549C68.8347 190.415 70.2734 188.233 71.7122 186.1L75.1336 181.091C75.8271 180.15 76.5723 179.108 77.2659 178.115C79.3981 175.089 81.2339 172.559 82.8685 170.376C83.2656 169.781 83.7116 169.236 84.0597 168.738C89.3142 161.743 91.5471 159.362 91.5471 159.362C92.9859 157.724 94.5715 155.94 96.4073 154.155C98.8877 151.725 101.365 149.69 103.596 148.003C103.397 151.524 103.397 155.891 104.042 160.802C104.732 165.811 105.872 170.077 107.063 173.451Z" fill="#FF9292"/>
<path d="M115.883 143.691C122.321 149.146 128.892 150.175 131.44 147.671C131.886 147.269 133.094 145.884 132.737 142.306C132.648 142.26 132.604 140.695 132.604 140.605C132.604 140.562 132.561 139.98 132.514 138.951V138.682C132.425 137.43 132.291 135.73 132.202 133.806C132.158 133.224 132.158 132.598 132.112 131.972C131.979 129.289 131.799 126.517 131.666 124.503C131.622 123.788 131.576 123.119 131.533 122.446L123.934 119.494C123.89 119.628 123.8 119.674 123.8 119.807C123.488 120.3 123.218 120.882 122.906 121.372C122.862 121.462 122.862 121.505 122.772 121.595C121.878 124.411 120.983 127.14 120.091 129.823C118.883 133.49 117.676 137.202 116.471 140.869C116.24 141.767 116.017 142.706 115.883 143.691Z" fill="#FF9292"/>
<path d="M120.085 129.825C120.531 132.195 121.785 136.355 125.405 139.307C126.656 140.336 128.489 141.857 130.233 141.364C131.217 141.051 132.022 140.156 132.512 138.948V138.679C132.422 137.427 132.289 135.727 132.199 133.803C132.155 133.221 132.155 132.595 132.109 131.969C130.322 129.107 126.61 128.525 126.074 128.481C123.126 128.081 120.844 129.333 120.085 129.825Z" fill="#FC6565"/>
<path d="M116.12 120.805C117.366 129.142 123.654 135.123 130.048 134.119C135.463 133.3 139.273 127.803 139.572 121.159C139.632 119.924 139.597 118.621 139.39 117.309C139.374 117.228 139.11 115.843 139.11 115.843C138.288 112.409 136.714 109.457 134.579 107.329C132.017 104.733 128.72 103.376 125.397 103.882L124.703 104.012C119.242 105.261 115.598 111.402 115.897 118.525C115.913 119.282 116.014 120.022 116.12 120.805Z" fill="#FF9292"/>
<path d="M125.478 124.247C125.478 125.915 124.127 127.27 122.457 127.27C120.787 127.27 119.435 125.918 119.435 124.247C119.435 122.579 120.787 121.224 122.457 121.224C124.127 121.224 125.478 122.579 125.478 124.247Z" fill="#FC6565"/>
<path d="M136.009 126.062C137.678 126.062 139.031 124.709 139.031 123.039C139.031 121.37 137.678 120.016 136.009 120.016C134.34 120.016 132.988 121.37 132.988 123.039C132.988 124.709 134.34 126.062 136.009 126.062Z" fill="#FC6565"/>
<path d="M127.227 128.666C127.926 130.029 129.384 130.834 130.899 130.696C132.376 130.562 133.64 129.556 134.111 128.141C133.213 127.95 131.922 127.782 130.379 127.931C129.077 128.054 128.008 128.369 127.227 128.666Z" fill="white"/>
<path d="M119.539 120.947C119.539 122.805 118.258 124.31 116.675 124.31C115.092 124.31 113.811 122.803 113.811 120.947C113.811 119.089 115.092 117.584 116.675 117.584C118.258 117.584 119.539 119.091 119.539 120.947Z" fill="#FF9292"/>
<path d="M124.01 408.132C124.01 409.223 123.463 410.115 122.819 410.812C122.62 411.06 122.422 411.258 122.223 411.408C107.447 412.251 92.6704 413.095 77.8451 413.938H43.0381C42.7416 412.997 42.592 412.153 42.4914 411.359C42.4914 411.16 42.4424 411.011 42.4424 410.812C42.1949 408.777 42.3935 407.093 42.6899 405.803C42.6899 405.754 42.7389 405.705 42.7389 405.653C45.1676 395.981 58.3093 388.539 76.2079 387.696C77.002 387.647 77.8451 387.598 78.6366 387.598H78.8841C79.6782 387.598 80.4207 387.647 81.2149 387.647H82.4551C84.3399 387.598 86.2246 387.598 88.1067 387.598H89.9425C97.2803 387.549 104.719 387.549 112.106 387.5H115.228C115.228 388.096 115.377 388.691 115.475 389.236C116.367 394.89 117.705 398.563 119.095 400.892C119.193 401.09 119.343 401.289 119.492 401.537C119.691 401.833 119.84 402.083 120.039 402.331C120.485 402.878 120.931 403.324 121.377 403.719C121.924 404.214 123.411 405.504 123.858 407.041C123.961 407.435 124.059 407.784 124.01 408.132Z" fill="#FF9292"/>
<path d="M124.01 408.132C124.01 409.223 123.463 410.116 122.819 410.812C122.62 411.06 122.422 411.258 122.223 411.408C107.447 412.252 92.6704 413.095 77.8451 413.938H43.0381C42.7416 412.997 42.592 412.154 42.4914 411.359C42.4914 411.16 42.4424 411.011 42.4424 410.812C42.1949 408.777 42.3935 407.093 42.6899 405.803C42.6899 405.754 42.7389 405.705 42.7389 405.653C43.2339 402.677 44.6726 397.173 49.1846 392.607C56.226 385.514 67.7305 383.677 78.6366 387.598C78.7372 387.647 78.7862 387.647 78.8841 387.696C78.3891 385.911 80.5214 385.859 82.4551 387.647C83.2492 388.341 84.0407 389.383 84.5874 390.721C85.9255 394.095 90.3396 396.971 94.3566 396.822C100.356 396.574 103.033 390.373 112.108 387.497C113.199 387.149 114.241 387.1 115.231 387.497C118.701 388.937 119.147 395.731 119.098 400.892C119.196 401.091 119.345 401.289 119.495 401.537C119.694 401.833 119.843 402.084 120.042 402.331C120.488 402.878 120.934 403.324 121.38 403.719C121.927 404.214 123.414 405.504 123.86 407.041C123.961 407.436 124.059 407.784 124.01 408.132Z" fill="white"/>
<path d="M125.498 412.001V412.796C125.498 413.441 124.951 413.936 124.306 413.936H42.0481C41.4035 413.936 40.8569 413.441 40.8569 412.796V412.001C40.8569 411.356 41.4035 410.809 42.5839 410.273H124.845C124.954 410.809 125.498 411.356 125.498 412.001Z" fill="#232996"/>
<path d="M109.582 405.376C111.464 405.376 112.99 403.85 112.99 401.967C112.99 400.084 111.464 398.558 109.582 398.558C107.7 398.558 106.174 400.084 106.174 401.967C106.174 403.85 107.7 405.376 109.582 405.376Z" fill="#232996"/>
<path d="M236.685 410.263C236.685 410.461 236.685 410.611 236.637 410.809C236.637 411.008 236.588 411.158 236.588 411.356C236.49 412.001 236.389 412.646 236.19 413.389H191.663C180.012 412.744 168.458 412.05 156.853 411.405C156.655 411.256 156.456 411.057 156.258 410.809C156.108 410.66 155.961 410.461 155.812 410.263C155.366 409.667 155.069 408.973 155.069 408.129C155.02 407.781 155.118 407.436 155.219 407.038C155.665 405.501 157.152 404.211 157.699 403.716C158.145 403.319 158.591 402.873 159.037 402.329C159.236 402.081 159.385 401.833 159.584 401.534C159.733 401.287 159.88 401.088 159.981 400.889C161.371 398.558 162.709 394.887 163.601 389.233C163.702 388.686 163.848 388.093 163.848 387.497H166.971C174.36 387.546 181.796 387.546 189.136 387.595H190.97C192.854 387.595 194.739 387.595 196.621 387.644H197.861C198.656 387.644 199.398 387.595 200.192 387.595H200.44C201.234 387.595 202.077 387.644 202.868 387.693C220.767 388.537 233.909 395.978 236.337 405.651C236.337 405.7 236.386 405.749 236.386 405.8C236.637 406.989 236.835 408.478 236.685 410.263Z" fill="#FF9292"/>
<path d="M236.685 410.262C236.685 410.461 236.685 410.611 236.637 410.809C236.637 411.008 236.588 411.158 236.588 411.356C236.49 412.001 236.389 412.646 236.19 413.389H191.663C180.012 412.744 168.458 412.05 156.853 411.405C156.655 411.255 156.456 411.057 156.258 410.809C156.108 410.66 155.961 410.461 155.812 410.262C155.366 409.666 155.069 408.973 155.069 408.129C155.02 407.781 155.118 407.435 155.219 407.038C155.665 405.501 157.152 404.211 157.699 403.716C158.145 403.319 158.591 402.873 159.037 402.328C159.236 402.081 159.385 401.833 159.584 401.534C159.733 401.286 159.88 401.088 159.981 400.889C159.932 395.73 160.378 388.934 163.848 387.494C164.841 387.097 165.883 387.146 166.971 387.494C176.044 390.37 178.723 396.571 184.722 396.819C188.739 396.968 193.151 394.09 194.492 390.719C195.038 389.38 195.83 388.338 196.624 387.644C198.558 385.859 200.69 385.908 200.195 387.595C200.293 387.644 200.344 387.644 200.442 387.595C211.351 383.677 222.856 385.511 229.894 392.604C234.406 397.167 235.845 402.674 236.34 405.651C236.34 405.7 236.389 405.748 236.389 405.8C236.637 406.989 236.835 408.477 236.685 410.262Z" fill="white"/>
<path d="M238.769 411.454V412.249C238.769 412.894 238.222 413.389 237.578 413.389H155.319C154.675 413.389 154.128 412.894 154.128 412.249V411.454C154.128 410.809 154.675 410.262 155.319 410.262H237.58C238.222 410.262 238.769 410.809 238.769 411.454Z" fill="#232996"/>
<path d="M170.028 405.912C171.91 405.912 173.435 404.385 173.435 402.502C173.435 400.62 171.91 399.093 170.028 399.093C168.146 399.093 166.62 400.62 166.62 402.502C166.62 404.385 168.146 405.912 170.028 405.912Z" fill="#232996"/>
<path d="M154.746 245.344C153.916 247.069 147.818 259.269 135.324 261.775C121.981 264.45 106.527 255.025 100.925 238.213C101.491 233.906 102.056 229.599 102.622 225.289C118.492 224.119 134.358 222.949 150.228 221.779C151.737 229.637 153.242 237.492 154.746 245.344Z" fill="#FF2468"/>
<path d="M154.332 217.319C153.486 219.161 147.954 230.765 135.947 233.769C123.012 237.007 107.705 228.978 100.955 213.504C100.664 192.731 100.373 171.957 100.082 151.183C101.55 149.57 103.952 147.306 107.433 145.41C110.844 143.551 113.982 142.757 116.112 142.392C117.534 146.852 121.946 149.448 126.028 148.615C129.338 147.94 131.998 145.097 132.637 141.484C136.91 142.874 141.655 144.819 146.586 147.581C148.156 148.46 149.638 149.36 151.028 150.267C152.129 172.618 153.231 194.97 154.332 217.319Z" fill="white"/>
<path d="M96.75 186.002C95.809 187.194 94.8163 188.383 93.8753 189.575C93.0811 190.516 92.3386 191.46 91.4955 192.451C91.0984 192.946 90.6524 193.493 90.2553 193.988C88.172 185.605 86.1404 177.173 84.0571 168.739C87.0325 172.708 90.0568 176.675 93.0811 180.642C94.2697 182.43 95.5098 184.215 96.75 186.002Z" fill="#FC6565"/>
<path d="M105.265 181.891C101.374 185.232 97.4843 188.574 93.5924 191.915C90.1846 183.646 86.774 175.38 83.3662 167.112C86.3987 162.987 90.5436 158.171 96.0728 153.469C99.3093 150.718 102.47 148.477 105.374 146.654C105.336 158.402 105.301 170.148 105.265 181.891Z" fill="white"/>
<path d="M155.11 198.701C154.514 197.561 154.019 196.467 153.424 195.376C152.431 193.441 151.441 191.507 150.497 189.572C150.399 189.423 150.348 189.276 150.25 189.126C156.598 186.498 162.943 183.867 169.242 181.238C164.531 187.042 159.821 192.848 155.11 198.701Z" fill="#FC6565"/>
<path d="M170.656 180.136C164.613 184.993 158.569 189.85 152.526 194.706C149.222 189.436 145.915 184.166 142.61 178.896C145.417 169.354 148.224 159.812 151.03 150.27C154.147 153.23 157.661 157.053 161.05 161.844C165.826 168.594 168.787 175.056 170.656 180.136Z" fill="white"/>
<path d="M157.309 155.851L124.338 146.516L111.175 193.048L144.146 202.383L157.309 155.851Z" fill="#232996"/>
<path d="M136.956 178.458C138.15 184.854 140.859 193.61 147.478 201.832C152.738 208.368 158.863 212.569 163.916 215.265C166.157 216.987 170.096 216.645 173.46 214.547C177.54 212.006 180.107 207.309 178.81 204.055C169.864 191.858 160.922 179.663 151.977 167.465L136.956 178.458Z" fill="#FF9292"/>
<path d="M137.345 180.357C135.433 180.18 133.521 180.003 131.606 179.823C130.124 179.375 128.062 178.547 126.028 176.931C123.912 175.247 121.951 172.812 122.31 172.385C122.465 172.2 123.11 172.317 125.177 173.547C122.829 170.295 121.848 168.486 122.234 168.121C122.582 167.789 124.056 168.641 126.651 170.679C123.77 167.721 122.503 166.015 122.854 165.564C123.248 165.052 125.702 166.138 130.214 168.82C129.732 168.51 123.738 164.617 124.32 163.365C124.924 162.059 132.313 164.361 132.694 164.481C139.123 165.476 145.553 166.472 151.982 167.468C147.1 171.764 142.224 176.061 137.345 180.357Z" fill="#FF9292"/>
<path d="M152.785 170.007C150.331 169.28 147.878 168.551 145.422 167.825C146.837 165.4 148.248 162.973 149.662 160.549C150.334 158.911 150.908 158.122 151.387 158.176C152.028 158.25 152.494 159.847 152.785 162.962C152.785 165.311 152.785 167.659 152.785 170.007Z" fill="#FF9292"/>
<path d="M65.28 140.445C62.8404 147.513 59.7753 159.357 60.7625 174.077C61.5077 185.194 64.3118 194.162 66.7758 200.273C67.6597 203.729 71.1029 206.267 75.0656 206.545C79.8659 206.879 84.6363 203.843 85.3978 199.473C84.8784 180.09 84.3616 160.707 83.8421 141.326C77.6575 141.032 71.4701 140.738 65.28 140.445Z" fill="#FF9292"/>
<path d="M84.0571 193.37C83.6817 193.37 83.3771 193.066 83.3771 192.69V173.321C83.3771 172.945 83.6817 172.64 84.0571 172.64C84.4324 172.64 84.737 172.945 84.737 173.321V192.69C84.737 193.068 84.4324 193.37 84.0571 193.37Z" fill="#F74F4F"/>
<path d="M173.585 197.609C173.376 197.609 173.169 197.514 173.036 197.332L165.41 186.93C165.189 186.628 165.252 186.201 165.556 185.978C165.856 185.757 166.283 185.82 166.508 186.125L174.134 196.526C174.355 196.828 174.292 197.256 173.988 197.479C173.865 197.566 173.724 197.609 173.585 197.609Z" fill="#F74F4F"/>
<path d="M145.515 105.757C146.048 107.939 136.017 115.432 126.953 114.643C125.245 114.493 122.343 113.968 119.936 115.65C117.82 117.13 117.711 119.228 116.838 119.162C115.41 119.056 113.221 113.016 115.339 108.285C117.629 103.169 124.306 101.031 128.957 101.107C132.359 101.164 132.142 102.364 141.838 104.486C144.489 105.071 145.371 105.169 145.515 105.757Z" fill="#232996"/>
<path d="M93.3776 278.364C104.528 278.163 115.652 277.964 126.803 277.793L126.632 279.365L125.974 285.974C113.65 284.315 102.671 281.482 93.3776 278.364Z" fill="#FC6565"/>
<path d="M168.409 286.26C164.836 286.717 161.118 287.033 157.259 287.261C149.053 287.718 141.188 287.52 133.782 286.831L132.58 283.028L130.893 277.736C142.447 277.507 153.97 277.336 165.521 277.134C165.548 277.134 168.409 286.26 168.409 286.26Z" fill="#FC6565"/>
<path d="M172.916 275.486C162.116 278.109 148.572 280.435 132.884 280.968C114.842 281.581 99.3473 279.638 87.3832 277.252C91.9061 253.937 96.4291 230.622 100.955 207.307C109.563 209.519 121.277 211.467 135.09 210.705C142.004 210.322 148.194 209.331 153.522 208.123C159.986 230.576 166.451 253.031 172.916 275.486Z" fill="#FF2468"/>
<path d="M136.417 120.117C136.298 120.117 136.178 120.087 136.069 120.022C135.745 119.829 135.639 119.412 135.832 119.089L137.269 116.678C137.462 116.352 137.88 116.248 138.201 116.441C138.525 116.634 138.631 117.051 138.438 117.375L137.002 119.785C136.874 119.997 136.648 120.117 136.417 120.117Z" fill="#232996"/>
<path d="M134.29 119.937C134.195 119.937 134.103 119.918 134.01 119.878C133.668 119.722 133.515 119.32 133.67 118.977L134.804 116.46C134.96 116.117 135.362 115.968 135.705 116.12C136.045 116.275 136.2 116.678 136.045 117.021L134.911 119.537C134.796 119.788 134.549 119.937 134.29 119.937Z" fill="#232996"/>
<path d="M137.13 124.528C136.836 124.528 136.561 124.334 136.477 124.035L136.053 122.571C135.95 122.212 136.156 121.834 136.518 121.728C136.877 121.616 137.255 121.831 137.361 122.193L137.785 123.657C137.889 124.016 137.682 124.394 137.32 124.5C137.258 124.519 137.192 124.528 137.13 124.528Z" fill="#232996"/>
<path d="M134.573 124.788C134.171 124.772 133.88 124.457 133.893 124.081L133.953 122.62C133.97 122.244 134.288 121.948 134.66 121.967C135.036 121.983 135.327 122.299 135.313 122.674L135.253 124.135C135.237 124.5 134.938 124.788 134.573 124.788Z" fill="#232996"/>
<path d="M139.161 120.367V120.512C139.161 121.056 138.618 121.54 137.875 121.943C137.361 122.201 136.874 122.4 136.444 122.514C136.357 122.571 136.273 122.571 136.186 122.601H135.958C135.843 122.601 135.642 122.628 135.501 122.628C135.014 122.686 134.47 122.686 133.929 122.628C133.129 122.484 132.471 122.199 132.27 121.657C132.041 121.113 132.327 120.256 132.871 119.57C133.358 119.026 134.016 118.539 134.701 118.34C135.044 118.226 135.245 118.169 135.588 118.169H135.96C136.075 118.169 136.189 118.199 136.303 118.256C137.761 118.509 139.077 119.453 139.161 120.367Z" fill="white"/>
<path d="M139.162 120.367V120.512C139.162 121.056 138.618 121.54 137.875 121.943C137.361 122.201 136.874 122.4 136.445 122.514C135.501 122.228 134.843 121.369 134.843 120.367C134.843 119.423 135.444 118.593 136.3 118.25C137.761 118.509 139.077 119.453 139.162 120.367Z" fill="#232996"/>
<path d="M125.084 121.374C124.964 121.374 124.845 121.344 124.736 121.279C124.412 121.085 124.306 120.669 124.499 120.345L125.935 117.935C126.128 117.608 126.545 117.505 126.868 117.698C127.192 117.891 127.298 118.307 127.105 118.631L125.669 121.042C125.541 121.257 125.315 121.374 125.084 121.374Z" fill="#232996"/>
<path d="M122.955 121.194C122.859 121.194 122.767 121.175 122.674 121.135C122.334 120.98 122.179 120.577 122.334 120.234L123.471 117.72C123.629 117.377 124.032 117.227 124.372 117.38C124.712 117.535 124.867 117.938 124.712 118.28L123.575 120.795C123.46 121.045 123.216 121.194 122.955 121.194Z" fill="#232996"/>
<path d="M125.797 125.784C125.503 125.784 125.231 125.591 125.144 125.292L124.72 123.828C124.616 123.469 124.823 123.091 125.185 122.984C125.538 122.878 125.922 123.091 126.028 123.45L126.452 124.913C126.556 125.273 126.349 125.651 125.987 125.757C125.922 125.776 125.859 125.784 125.797 125.784Z" fill="#232996"/>
<path d="M123.24 126.045C122.838 126.029 122.547 125.713 122.56 125.338L122.62 123.877C122.636 123.501 122.922 123.221 123.327 123.224C123.703 123.24 123.994 123.556 123.98 123.931L123.92 125.392C123.904 125.76 123.602 126.045 123.24 126.045Z" fill="#232996"/>
<path d="M127.828 121.624V121.766C127.828 122.31 127.284 122.797 126.542 123.197C126.028 123.455 125.541 123.654 125.111 123.768C125.024 123.825 124.94 123.825 124.853 123.855H124.625C124.51 123.855 124.309 123.883 124.168 123.883C123.681 123.94 123.14 123.94 122.596 123.883C121.796 123.741 121.138 123.453 120.937 122.911C120.708 122.367 120.994 121.51 121.538 120.822C122.024 120.277 122.683 119.793 123.368 119.592C123.711 119.478 123.912 119.42 124.255 119.42H124.627C124.741 119.42 124.856 119.448 124.97 119.507C126.428 119.766 127.741 120.71 127.828 121.624Z" fill="white"/>
<path d="M127.828 121.624V121.765C127.828 122.31 127.284 122.797 126.542 123.197C126.028 123.455 125.541 123.654 125.111 123.768C124.168 123.482 123.509 122.622 123.509 121.624C123.509 120.68 124.11 119.85 124.967 119.507C126.428 119.766 127.741 120.71 127.828 121.624Z" fill="#232996"/>
<path d="M100.484 314.124C98.0554 314.124 95.5587 312.992 93.6631 310.93C93.4101 310.652 93.4265 310.222 93.7039 309.969C93.9813 309.719 94.411 309.735 94.6639 310.01C96.8506 312.388 99.9266 313.332 102.516 312.421C104.197 311.825 105.246 310.59 105.831 309.659C106.032 309.341 106.454 309.248 106.769 309.447C107.088 309.646 107.183 310.067 106.982 310.386C106.283 311.498 105.018 312.976 102.97 313.705C102.168 313.985 101.33 314.124 100.484 314.124Z" fill="#F74F4F"/>
<path d="M166.992 310.704C164.564 310.704 162.067 309.572 160.174 307.507C159.921 307.23 159.937 306.8 160.215 306.547C160.492 306.296 160.922 306.313 161.175 306.588C163.356 308.966 166.44 309.912 169.024 308.998C170.705 308.402 171.755 307.17 172.339 306.239C172.541 305.924 172.962 305.826 173.278 306.027C173.596 306.226 173.691 306.645 173.49 306.966C172.791 308.079 171.526 309.556 169.478 310.282C168.679 310.565 167.841 310.704 166.992 310.704Z" fill="#F74F4F"/>
<path d="M67.7305 393.94C67.1593 394.145 66.5256 393.845 66.3216 393.277L63.3979 385.144C63.1939 384.573 63.4931 383.939 64.0615 383.735C64.6327 383.53 65.2664 383.83 65.4704 384.398L68.3914 392.531C68.6008 393.1 68.3016 393.734 67.7305 393.94Z" fill="#232996"/>
<path d="M72.1991 393.94C71.6279 394.145 70.9942 393.845 70.7903 393.277L67.8666 385.144C67.6626 384.573 67.9617 383.939 68.5302 383.735C69.1013 383.53 69.735 383.83 69.939 384.398L72.8627 392.531C73.0694 393.1 72.7702 393.734 72.1991 393.94Z" fill="#232996"/>
<path d="M211.003 393.774C211.574 393.978 212.208 393.679 212.412 393.11L215.333 384.978C215.537 384.406 215.238 383.772 214.669 383.568C214.098 383.364 213.464 383.663 213.26 384.232L210.337 392.365C210.133 392.936 210.432 393.57 211.003 393.774Z" fill="#232996"/>
<path d="M206.535 393.774C207.106 393.978 207.739 393.679 207.943 393.11L210.864 384.978C211.068 384.406 210.769 383.772 210.201 383.568C209.63 383.364 208.996 383.663 208.792 384.232L205.868 392.365C205.667 392.936 205.963 393.57 206.535 393.774Z" fill="#232996"/>
<path d="M117.991 111.683C125.459 111.683 131.514 105.626 131.514 98.1545C131.514 90.6832 125.459 84.6265 117.991 84.6265C110.523 84.6265 104.469 90.6832 104.469 98.1545C104.469 105.626 110.523 111.683 117.991 111.683Z" fill="#232996"/>
<path d="M336.831 99.7461C336.831 53.1925 299.109 15.4543 252.574 15.4543C206.04 15.4543 168.317 53.1925 168.317 99.7461C168.317 122.658 177.523 143.378 192.354 158.571C200.937 187.964 209.624 217.352 218.314 246.742H286.835C296.348 216.473 305.859 186.204 315.373 155.932C315.237 155.934 315.101 155.937 314.965 155.94C328.411 141.005 336.831 121.434 336.831 99.7461Z" fill="white"/>
<path d="M298.472 252.492H229.951C229.5 252.492 229.103 252.198 228.975 251.765L202.934 164.921C187.456 149.116 178.935 128.405 178.935 106.548C178.935 60.1632 217.19 22.4224 264.212 22.4224C311.233 22.4224 349.489 60.1605 349.489 106.548C349.489 126.764 341.876 146.379 328.028 161.893C328.036 162.013 328.019 162.135 327.981 162.252L299.443 251.781C299.31 252.203 298.918 252.492 298.472 252.492ZM230.71 250.451H297.73L325.757 162.519C325.724 162.472 325.697 162.421 325.672 162.369C325.504 161.996 325.574 161.561 325.849 161.259C339.777 146.009 347.449 126.576 347.449 106.545C347.449 61.2842 310.11 24.4603 264.212 24.4603C218.314 24.4603 180.975 61.2842 180.975 106.545C180.975 128.018 189.406 148.359 204.718 163.825C204.949 164.059 205.05 164.391 205.001 164.709L230.71 250.451Z" fill="#232996"/>
<path d="M248.799 243.32C248.519 243.32 248.258 243.145 248.16 242.868L219.412 162.233C219.287 161.879 219.47 161.49 219.823 161.365C220.179 161.234 220.568 161.425 220.691 161.776L249.438 242.411C249.563 242.765 249.381 243.154 249.028 243.279C248.951 243.306 248.875 243.32 248.799 243.32Z" fill="#232996"/>
<path d="M232.078 164.001C225.616 164.001 220.753 162.877 219.886 162.665C219.521 162.575 219.298 162.208 219.388 161.841C219.478 161.479 219.839 161.253 220.212 161.343C221.681 161.705 234.937 164.749 247.649 160.042C261.256 155.003 261.835 145.657 261.854 145.263C261.87 144.887 262.161 144.585 262.564 144.615C262.939 144.631 263.23 144.95 263.211 145.325C263.192 145.758 262.564 155.969 248.122 161.318C242.547 163.383 236.873 164.001 232.078 164.001Z" fill="#232996"/>
<path d="M276.268 243.319C276.192 243.319 276.116 243.309 276.04 243.279C275.686 243.154 275.501 242.764 275.629 242.411L304.377 161.776C304.502 161.425 304.891 161.232 305.244 161.365C305.598 161.49 305.783 161.879 305.655 162.233L276.908 242.868C276.812 243.145 276.549 243.319 276.268 243.319Z" fill="#232996"/>
<path d="M292.989 164.001C288.197 164.001 282.524 163.384 276.946 161.319C262.501 155.969 261.873 145.758 261.857 145.326C261.84 144.95 262.129 144.632 262.504 144.615C262.947 144.575 263.197 144.89 263.214 145.263C263.233 145.657 263.812 155.004 277.419 160.043C290.125 164.747 303.387 161.705 304.856 161.343C305.225 161.245 305.59 161.476 305.68 161.841C305.769 162.206 305.546 162.576 305.182 162.665C304.314 162.878 299.451 164.001 292.989 164.001Z" fill="#232996"/>
<path d="M100.356 258.105L109.326 267.1C109.965 267.742 111.015 267.745 111.657 267.103L111.989 266.771C112.631 266.129 112.633 265.081 111.991 264.439L103.022 255.444C102.383 254.802 101.333 254.799 100.691 255.441L100.359 255.773C99.7173 256.412 99.7146 257.463 100.356 258.105Z" fill="white"/>
<path d="M133.904 264.463L142.874 273.458C143.513 274.1 144.563 274.103 145.205 273.461L145.536 273.129C146.178 272.49 146.181 271.439 145.539 270.797L136.57 261.799C135.93 261.157 134.881 261.155 134.239 261.797L133.907 262.129C133.265 262.771 133.265 263.821 133.904 264.463Z" fill="white"/>
<path d="M138.087 220.459L147.057 229.457C147.696 230.099 148.746 230.102 149.388 229.46L149.719 229.128C150.361 228.486 150.364 227.438 149.722 226.796L140.752 217.798C140.111 217.156 139.064 217.153 138.422 217.795L138.09 218.127C137.448 218.767 137.445 219.817 138.087 220.459Z" fill="white"/>
<path d="M125.579 231.367L116.188 239.921C115.516 240.531 115.467 241.581 116.079 242.25L116.395 242.596C117.007 243.268 118.054 243.317 118.723 242.705L128.114 234.15C128.786 233.541 128.835 232.491 128.223 231.821L127.907 231.476C127.298 230.804 126.248 230.755 125.579 231.367Z" fill="white"/>
<path d="M158.175 244.623L148.784 253.177C148.112 253.79 148.063 254.837 148.675 255.509L148.991 255.855C149.6 256.527 150.65 256.576 151.319 255.964L160.71 247.409C161.379 246.797 161.431 245.749 160.819 245.08L160.503 244.735C159.894 244.06 158.844 244.011 158.175 244.623Z" fill="white"/>
<path d="M110.664 219.95L101.273 228.505C100.601 229.114 100.552 230.165 101.164 230.834L101.48 231.179C102.092 231.851 103.139 231.9 103.808 231.288L113.199 222.734C113.871 222.124 113.92 221.074 113.308 220.405L112.992 220.059C112.383 219.387 111.336 219.338 110.664 219.95Z" fill="white"/>
<path d="M67.025 235.057C71.533 235.057 76.038 235.057 80.547 235.057C78.706 225.315 76.865 215.572 75.024 205.83C72.356 215.577 69.688 225.319 67.025 235.057Z" fill="#232996"/>
<path d="M67.025 235.057C71.533 235.057 76.038 235.057 80.547 235.057C78.706 244.8 76.865 254.542 75.024 264.285C72.356 254.542 69.688 244.8 67.025 235.057Z" fill="#232996"/>
<path d="M74.917 228.298C74.917 232.807 74.917 237.312 74.917 241.821C82.226 239.98 89.531 238.138 96.835 236.297C89.527 233.63 82.222 230.966 74.917 228.298Z" fill="#232996"/>
<path d="M74.917 228.298C74.917 232.807 74.917 237.312 74.917 241.821C67.613 239.98 60.304 238.138 52.999 236.297C60.304 233.63 67.608 230.966 74.917 228.298Z" fill="#232996"/>
</g>
<defs>
<clipPath id="clip0_11_180">
<rect width="376" height="415" fill="white"/>
</clipPath>
</defs>
</svg>
