<svg width="41" height="41" viewBox="0 0 41 41" fill="none" xmlns="http://www.w3.org/2000/svg">
<path d="M0.816973 23.7366C0.816973 24.5042 1.35797 25.2738 2.33897 25.2738C3.82597 25.2738 4.44197 27.1628 3.23297 28.0323C2.77897 28.3601 2.59097 28.7999 2.59097 29.2417C2.59097 30.1872 3.47197 31.0927 4.60497 30.7149C4.76897 30.6649 4.93297 30.6389 5.09697 30.6389C6.26797 30.6389 7.08697 32.0122 6.30597 33.0696C6.09197 33.3595 6.00397 33.6753 6.00397 33.9632C6.00397 35.0846 7.32698 36.0161 8.43398 35.1965C8.72298 34.9826 9.02497 34.8947 9.32697 34.8947C10.284 34.8947 11.139 35.8402 10.788 36.8976C10.726 37.0735 10.7 37.2494 10.7 37.4133C10.7 38.7746 12.564 39.5302 13.469 38.2688C13.785 37.8271 14.236 37.6392 14.69 37.6392C15.471 37.6392 16.238 38.2309 16.226 39.1624C16.226 40.1459 16.994 40.6996 17.775 40.6996C18.38 40.6996 18.972 40.3718 19.21 39.6421C19.435 38.9365 20.053 38.5847 20.658 38.5847C21.262 38.5847 21.879 38.9365 22.107 39.6421C22.333 40.3718 22.938 40.6996 23.542 40.6996C24.309 40.6996 25.09 40.1459 25.09 39.1624C25.09 37.6892 26.978 37.0715 27.847 38.2688C28.175 38.7226 28.615 38.9105 29.056 38.9105C29.987 38.9105 30.895 38.029 30.529 36.8956C30.479 36.7317 30.441 36.5558 30.441 36.4038C30.441 35.2445 31.814 34.4129 32.871 35.1945C33.16 35.4084 33.474 35.5103 33.778 35.5103C34.899 35.5103 35.818 34.175 35.011 33.0676C34.797 32.7778 34.709 32.4619 34.709 32.1741C34.709 31.2166 35.64 30.373 36.711 30.7129C36.887 30.7768 37.063 30.8008 37.227 30.8008C38.587 30.8008 39.343 28.9358 38.082 28.0303C37.64 27.7145 37.44 27.2487 37.44 26.809C37.44 26.0274 38.032 25.2598 38.977 25.2718C39.958 25.2718 40.5 24.5042 40.5 23.7346C40.5 23.1309 40.172 22.5252 39.443 22.2993C38.737 22.0735 38.386 21.4558 38.386 20.8381C38.386 20.2325 38.737 19.6168 39.443 19.3889C40.174 19.163 40.5 18.5573 40.5 17.9537C40.5 17.1861 39.958 16.4045 38.977 16.4165C38.032 16.4165 37.44 15.6489 37.44 14.8793C37.44 14.4255 37.642 13.9718 38.082 13.6579C38.535 13.3301 38.723 12.8903 38.723 12.4486C38.723 11.5031 37.842 10.5976 36.709 10.9614C36.533 11.0113 36.369 11.0493 36.206 11.0493C35.047 11.0493 34.229 9.6761 35.009 8.6186C35.223 8.3288 35.31 8.0149 35.31 7.7251C35.31 6.6037 33.988 5.6722 32.869 6.4918C32.579 6.6936 32.277 6.7936 31.976 6.7936C31.018 6.7936 30.175 5.8481 30.527 4.7786C30.589 4.6027 30.615 4.4268 30.615 4.2749C30.615 2.9156 28.751 2.1461 27.845 3.4194C27.53 3.8611 27.078 4.0491 26.625 4.0491C25.843 4.0491 25.076 3.4574 25.088 2.5119C25.088 1.5284 24.307 0.986688 23.54 0.986688C22.936 0.986688 22.331 1.3145 22.105 2.0441C21.879 2.7497 21.262 3.1016 20.656 3.1016C20.053 3.1016 19.435 2.7497 19.208 2.0441C18.666 0.380988 16.224 0.772788 16.224 2.5099C16.224 3.9951 14.336 4.6127 13.467 3.4174C13.139 2.9636 12.7 2.7757 12.258 2.7757C11.327 2.7757 10.42 3.6572 10.786 4.7786C10.836 4.9426 10.861 5.1185 10.861 5.2704C10.861 6.4418 9.48898 7.2613 8.43198 6.4918C8.14198 6.2779 7.82597 6.1759 7.53697 6.1759C6.41597 6.1759 5.49697 7.5112 6.30397 8.6186C6.51797 8.9085 6.60497 9.2243 6.60497 9.5122C6.60497 10.4696 5.67397 11.3132 4.60297 10.9614C4.42697 10.8974 4.25198 10.8734 4.09998 10.8734C2.72698 10.8734 1.97197 12.7504 3.23097 13.6579C3.67197 13.9738 3.87197 14.4255 3.87197 14.8793C3.87197 15.6469 3.28097 16.4165 2.33597 16.4165C0.59697 16.4165 0.207974 18.8592 1.86997 19.3889C2.57497 19.6148 2.92697 20.2325 2.92697 20.8381C2.92697 21.4558 2.57497 22.0715 1.86997 22.2993C1.14297 22.5272 0.816973 23.1309 0.816973 23.7366ZM14.994 20.8401C14.994 17.7158 17.525 15.1711 20.66 15.1711C23.795 15.1711 26.327 17.7158 26.327 20.8401C26.327 23.9765 23.795 26.5091 20.66 26.5091C17.525 26.5071 14.994 23.9765 14.994 20.8401Z" fill="#232996"/>
</svg>
