<svg width="658" height="649" viewBox="0 0 658 649" fill="none" xmlns="http://www.w3.org/2000/svg">
<path d="M220.389 302.787H82.6912C82.1031 302.787 81.4681 302.74 80.88 302.74C79.431 299.569 78.0246 296.398 76.6225 293.27C76.712 296.398 76.8014 299.659 76.8952 302.787H60.1294C59.9461 299.616 59.7203 296.398 59.4944 293.27C58.5866 296.441 57.6363 299.612 56.7328 302.787H40.8278C36.2975 277.911 40.2396 269.212 45.0427 266.084C51.7507 261.69 60.0399 268.079 66.4752 262.688C74.4063 256.026 67.6088 241.438 75.0371 236.772C80.8374 233.145 87.6349 240.441 93.1624 236.635C99.6403 232.195 94.1128 219.87 100.821 214.069C105.986 209.675 114.552 212.301 117.54 212.799C129.456 214.973 150.39 201.744 189.99 133.598C196.562 137.541 203.129 141.483 209.654 145.425C213.23 197.845 216.809 250.358 220.389 302.787Z" fill="#232996"/>
<path d="M36.5361 303.562C36.0374 303.562 35.5942 303.213 35.4919 302.706C30.9488 279.926 32.2785 266.557 39.5619 261.835C43.0438 259.581 46.8367 259.96 50.4976 260.327C54.282 260.706 57.8534 261.064 60.8878 258.515C64.5487 255.438 64.7703 250.32 64.9834 245.368C65.2007 240.326 65.4309 235.11 69.5691 232.51C72.8549 230.451 76.4092 231.474 79.5459 232.378C82.4993 233.222 85.2951 234.031 87.6561 232.399C90.4475 230.486 90.6819 226.616 90.9334 222.516C91.2061 218.109 91.5087 213.115 95.2207 209.905C100.169 205.622 107.925 207.327 111.65 208.145C112.102 208.243 112.502 208.333 112.835 208.397C128.25 211.308 152.192 189.466 184.049 143.396C184.381 142.91 185.042 142.787 185.532 143.128C186.018 143.464 186.137 144.125 185.805 144.611C152.972 192.091 128.983 213.626 112.438 210.489C112.093 210.421 111.671 210.332 111.194 210.225C107.546 209.424 100.757 207.928 96.6144 211.512C93.58 214.137 93.3157 218.459 93.0643 222.64C92.7915 227.068 92.5145 231.649 88.8622 234.151C85.6701 236.346 82.2606 235.365 78.962 234.419C75.9916 233.567 73.1874 232.761 70.7027 234.313C67.5149 236.316 67.3317 240.552 67.1186 245.457C66.8927 250.614 66.6412 256.465 62.2601 260.143C58.5353 263.276 54.346 262.854 50.2845 262.445C46.841 262.099 43.5765 261.771 40.7253 263.621C34.3454 267.755 33.2885 280.766 37.5844 302.288C37.6995 302.863 37.3244 303.426 36.7491 303.541C36.6766 303.558 36.6085 303.562 36.5361 303.562Z" fill="#232996"/>
<path d="M200.56 332.892L206.454 402.193L208.576 426.864L209.599 439.044L209.756 440.775L211.014 456.569L211.09 457.353L211.248 459.083L211.563 463.324L211.721 464.265C211.721 464.423 234.036 462.458 234.036 462.458L264.051 460.021C264.128 459.94 263.817 456.483 263.817 456.483L263.344 450.747L262.794 444.542L259.73 407.771C259.653 407.771 258.081 388.363 258.081 388.363L255.093 354.107C253.444 345.698 251.795 337.294 250.145 328.728L211.41 332.027L200.56 332.892Z" fill="#FF9292"/>
<path d="M209.671 469.056C209.906 471.178 210.537 473.22 211.402 475.342C211.559 475.657 211.717 475.973 211.951 476.365C217.922 489.095 233.559 494.592 247.388 488.779C257.604 484.458 264.043 475.108 264.751 465.288V461.832C264.751 461.674 264.827 461.517 264.751 461.44C264.593 459.791 264.278 458.141 263.809 456.492C263.574 455.469 263.259 454.527 262.867 453.505C262.394 452.405 261.844 451.305 261.218 450.283C260.276 448.71 259.095 447.218 257.838 445.961C257.131 445.177 256.346 444.47 255.558 443.762C255.4 443.604 255.166 443.447 255.008 443.289C254.382 442.897 253.751 442.505 253.12 442.109C245.735 437.314 235.834 436.215 226.799 440.067C226.326 440.225 225.934 440.459 225.542 440.694C222.87 441.874 220.594 443.523 218.549 445.407C215.092 448.471 212.497 452.32 211.005 456.565C210.613 457.43 210.374 458.448 210.14 459.394C209.906 460.417 209.748 461.359 209.59 462.382C209.279 464.577 209.356 466.78 209.671 469.056Z" fill="#FF9292"/>
<path d="M209.752 440.77L211.009 456.565C210.617 457.43 210.378 458.448 210.144 459.394C210.536 459.237 210.851 459.16 211.243 459.079C226.799 454.677 242.278 450.278 257.838 445.957C259.487 445.484 261.136 445.015 262.785 444.542C260.348 444.308 257.991 444.069 255.557 443.754C245.581 442.812 235.523 441.712 225.542 440.689C220.197 440.14 214.934 439.59 209.59 439.04L209.752 440.77Z" fill="#FC6565"/>
<path d="M237.488 226.82C237.722 235.855 235.523 243.007 233.874 247.094C236.154 249.527 238.353 252.042 240.633 254.479C242.674 256.759 244.796 259.035 246.919 261.315C247.469 261.942 248.018 262.572 248.568 263.199L249.276 263.906C251.475 266.421 253.831 268.935 256.112 271.45C257.45 272.941 258.703 274.356 260.041 275.771C261.379 277.344 262.79 278.759 264.128 280.25C264.443 280.642 264.835 281.034 265.151 281.431C265.308 281.431 265.227 281.512 265.308 281.589C266.566 283.003 267.9 284.337 269.157 285.752C271.356 288.109 273.478 290.466 275.601 292.904C276.074 293.296 276.385 293.769 276.858 294.238C284.009 287.478 291.079 280.723 298.15 273.964C295.793 270.666 293.355 267.363 290.841 264.141L285.496 257.071C285.42 256.99 285.023 256.521 285.023 256.521C283.766 255.029 282.586 253.457 281.333 251.965C277.719 247.328 274.574 243.48 271.906 240.177C261.533 227.686 257.211 223.522 257.211 223.522C254.854 221.007 252.182 218.335 249.041 215.744C242.836 210.4 236.784 206.628 231.521 203.956C233.716 208.12 237.253 216.136 237.488 226.82Z" fill="#FF9292"/>
<path d="M378.114 279.419C367.613 286.6 351.661 295.397 330.684 299.774C314.012 303.251 299.267 302.868 288.148 301.555C282.496 301.653 277.178 297.451 275.094 291.51C272.571 284.312 275.213 275.754 281.567 272.758C311.396 265.432 341.219 258.11 371.043 250.784L378.114 279.419Z" fill="#FF9292"/>
<path d="M248.564 263.199L249.271 263.906C251.47 266.421 253.827 268.935 256.107 271.45C257.445 272.941 258.698 274.356 260.037 275.771C261.375 277.344 262.786 278.759 264.124 280.25C271.275 272.473 278.422 264.772 285.496 257.071C273.078 259.035 260.821 261.158 248.564 263.199Z" fill="#FC6565"/>
<path d="M167.463 340.09C179.084 340.682 193.285 340.503 209.275 338.317C225.333 336.122 239.107 332.47 250.175 328.762C246.169 288.437 242.163 248.117 238.161 207.792C234.569 205.192 213.613 190.544 187.182 196.421C173.254 199.519 163.81 206.978 159.144 211.286C161.914 254.224 164.688 297.157 167.463 340.09Z" fill="#FF9292"/>
<path d="M117.745 294.314C126.464 298.712 135.265 303.115 143.989 307.594C144.304 306.967 144.462 306.418 144.773 305.945C146.107 302.957 147.522 300.132 148.937 297.225C149.721 295.576 150.586 293.845 151.374 292.119C151.451 292.043 151.374 291.962 151.451 291.962C151.528 291.727 151.685 291.489 151.766 291.254C152.789 289.132 153.731 287.167 154.754 285.126C155.619 283.319 156.403 281.589 157.345 279.782C157.66 279.074 158.053 278.29 158.368 277.583C159.468 275.226 160.567 272.946 161.667 270.589C162.216 269.489 162.689 268.467 163.158 267.444C164.492 264.614 165.83 261.788 167.164 259.116C168.656 256.052 170.071 252.988 171.567 250.081C168.975 247.017 164.339 240.808 162.216 231.696C159.544 220.615 162.059 211.504 163.397 207.732C158.76 211.346 153.024 216.767 147.918 224.391C145.638 227.848 143.831 231.15 142.416 234.21C142.416 234.21 139.429 239.397 133.142 254.403C131.493 258.332 129.605 262.965 127.487 268.39C127.095 269.413 126.622 270.355 126.307 271.377C125.914 272.243 125.599 273.027 125.284 273.811L121.904 282.846C120.493 286.613 119.079 290.543 117.745 294.314Z" fill="#FF9292"/>
<path d="M186.376 200.709C197.67 207.868 208.205 208.052 211.661 203.564C212.275 202.835 213.869 200.397 212.526 194.861C212.377 194.81 211.964 192.364 211.947 192.223C211.938 192.151 211.742 191.252 211.448 189.645L211.388 189.223C210.975 187.275 210.395 184.642 209.837 181.641C209.641 180.738 209.505 179.758 209.296 178.786C208.503 174.605 207.617 170.292 206.969 167.164C206.743 166.052 206.526 165.008 206.313 163.968L193.74 160.993C193.698 161.215 193.57 161.304 193.6 161.513C193.216 162.352 192.922 163.324 192.538 164.164C192.487 164.313 192.496 164.385 192.376 164.543C191.588 169.159 190.778 173.633 189.956 178.036C188.861 184.053 187.774 190.139 186.678 196.157C186.521 197.614 186.372 199.136 186.376 200.709Z" fill="#FF9292"/>
<path d="M189.956 178.04C191.175 181.663 194.043 187.915 200.372 191.754C202.558 193.097 205.767 195.083 208.397 193.932C209.871 193.225 210.941 191.648 211.448 189.645L211.389 189.223C210.975 187.275 210.396 184.642 209.837 181.641C209.641 180.738 209.505 179.758 209.296 178.786C205.865 174.686 199.916 174.58 199.063 174.626C194.346 174.643 191.039 177.103 189.956 178.04Z" fill="#FC6565"/>
<path d="M181.765 164.752C185.537 177.559 196.707 185.575 206.522 182.605C214.845 180.141 219.627 170.684 218.651 160.196C218.476 158.244 218.135 156.207 217.526 154.195C217.483 154.072 216.767 151.954 216.767 151.954C214.73 146.746 211.619 142.459 207.805 139.586C203.219 136.07 197.747 134.659 192.641 136.177L191.584 136.535C183.287 139.684 178.901 150.113 180.921 161.223C181.113 162.408 181.428 163.546 181.765 164.752Z" fill="#FF9292"/>
<path d="M197.209 168.114C197.572 170.731 195.743 173.152 193.127 173.514C190.51 173.876 188.089 172.048 187.727 169.431C187.365 166.815 189.193 164.394 191.81 164.032C194.426 163.669 196.843 165.498 197.209 168.114Z" fill="#FC6565"/>
<path d="M218.212 163.269C218.574 165.886 216.746 168.302 214.129 168.668C211.512 169.031 209.092 167.202 208.729 164.586C208.367 161.969 210.195 159.548 212.812 159.186C215.433 158.819 217.85 160.648 218.212 163.269Z" fill="#FC6565"/>
<path d="M195.138 159.459C194.998 159.459 194.861 159.433 194.725 159.378C194.179 159.148 193.928 158.521 194.158 157.98L195.888 153.884C196.118 153.339 196.749 153.096 197.286 153.317C197.827 153.548 198.083 154.174 197.853 154.715L196.123 158.815C195.948 159.216 195.552 159.459 195.138 159.459Z" fill="#232996"/>
<path d="M191.758 159.638C191.66 159.638 191.558 159.625 191.46 159.595C190.893 159.429 190.574 158.836 190.74 158.274L191.972 154.08C192.138 153.513 192.739 153.194 193.293 153.356C193.859 153.522 194.179 154.114 194.013 154.677L192.777 158.871C192.645 159.339 192.219 159.638 191.758 159.638Z" fill="#232996"/>
<path d="M197.218 166.222C196.809 166.222 196.421 165.988 196.246 165.591L195.262 163.384C195.023 162.847 195.266 162.216 195.803 161.973C196.344 161.734 196.971 161.973 197.214 162.51L198.198 164.718C198.437 165.255 198.194 165.885 197.661 166.128C197.508 166.192 197.363 166.222 197.218 166.222Z" fill="#232996"/>
<path d="M193.259 167.19C192.718 167.19 192.253 166.776 192.198 166.226L191.976 163.921C191.921 163.337 192.347 162.817 192.935 162.757C193.481 162.74 194.043 163.128 194.099 163.716L194.32 166.022C194.376 166.606 193.95 167.126 193.362 167.185C193.332 167.185 193.293 167.19 193.259 167.19Z" fill="#232996"/>
<path d="M189.108 162.783C189.862 164.206 192.419 164.13 194.367 163.652C194.64 163.614 194.904 163.507 195.108 163.482L195.509 163.358C196.242 163.12 197.146 162.646 197.968 162.046C199.042 161.27 199.813 160.332 199.69 159.446C199.541 157.869 196.83 156.369 194.145 156.535L193.668 156.603C193.054 156.689 192.722 156.804 192.198 157.017C191.153 157.507 190.237 158.402 189.611 159.39C188.873 160.592 188.575 161.952 189.108 162.783Z" fill="white"/>
<path d="M192.671 160.413C192.85 161.709 193.498 162.868 194.371 163.652C194.644 163.614 194.908 163.507 195.113 163.482L195.513 163.358C196.246 163.12 197.15 162.646 197.973 162.046C199.047 161.27 199.818 160.332 199.694 159.446C199.545 157.869 196.835 156.369 194.15 156.535L193.672 156.603C192.837 157.609 192.471 158.981 192.671 160.413Z" fill="#232996"/>
<path d="M213.328 155.385C213.187 155.385 213.046 155.359 212.914 155.299C212.373 155.069 212.117 154.443 212.347 153.901L214.078 149.802C214.308 149.256 214.939 149.013 215.476 149.235C216.017 149.465 216.273 150.091 216.042 150.633L214.312 154.728C214.137 155.142 213.741 155.385 213.328 155.385Z" fill="#232996"/>
<path d="M209.948 155.568C209.85 155.568 209.747 155.555 209.645 155.525C209.083 155.359 208.759 154.767 208.925 154.2L210.161 150.006C210.331 149.444 210.915 149.124 211.482 149.286C212.045 149.452 212.369 150.045 212.202 150.607L210.966 154.801C210.834 155.265 210.408 155.568 209.948 155.568Z" fill="#232996"/>
<path d="M215.407 162.148C214.998 162.148 214.61 161.914 214.431 161.517L213.447 159.31C213.208 158.768 213.447 158.142 213.984 157.899C214.521 157.66 215.151 157.903 215.394 158.44L216.379 160.648C216.618 161.185 216.379 161.816 215.842 162.058C215.701 162.118 215.552 162.148 215.407 162.148Z" fill="#232996"/>
<path d="M211.448 163.115C210.907 163.115 210.442 162.702 210.387 162.152L210.161 159.847C210.105 159.258 210.532 158.739 211.12 158.683C211.721 158.67 212.228 159.054 212.283 159.642L212.509 161.948C212.564 162.536 212.138 163.056 211.55 163.111C211.52 163.115 211.486 163.115 211.448 163.115Z" fill="#232996"/>
<path d="M207.297 158.709C208.051 160.132 210.608 160.055 212.556 159.578C212.829 159.54 213.093 159.433 213.298 159.403L213.698 159.28C214.431 159.041 215.335 158.568 216.157 157.967C217.231 157.192 218.003 156.25 217.879 155.367C217.73 153.791 215.019 152.29 212.335 152.457L211.857 152.525C211.243 152.61 210.911 152.725 210.387 152.938C209.343 153.433 208.426 154.323 207.8 155.312C207.063 156.518 206.769 157.882 207.297 158.709Z" fill="white"/>
<path d="M210.86 156.339C211.039 157.635 211.687 158.794 212.56 159.578C212.833 159.54 213.097 159.433 213.302 159.403L213.702 159.28C214.435 159.041 215.339 158.568 216.161 157.967C217.235 157.192 218.007 156.25 217.883 155.367C217.734 153.791 215.024 152.29 212.339 152.457L211.861 152.525C211.026 153.539 210.659 154.907 210.86 156.339Z" fill="#232996"/>
<path d="M199.157 171.145C200.819 174.844 204.386 176.497 206.905 175.568C208.916 174.827 209.743 172.636 209.922 172.116C208.597 171.805 207.114 171.528 205.49 171.341C203.125 171.068 200.99 171.051 199.157 171.145Z" fill="white"/>
<path d="M210.672 601.981C216.076 605.761 251.765 630.373 262.023 620.928C264.026 619.087 266.429 614.685 263.25 602.637C263.391 592.647 263.527 582.653 263.668 572.664L263.766 564.728L263.736 562.815L263.838 555.093L263.877 552.825L263.975 544.89L264.013 542.623L264.115 534.968L264.154 532.774L264.256 525.264L264.294 522.925L264.392 514.989C264.171 514.427 264.166 514 264.371 513.574L264.524 504.573L264.512 503.58L264.793 483.882C264.729 478.64 264.665 473.403 264.601 468.161C247.192 468.787 229.787 469.418 212.377 470.044L212.335 471.958L212.245 480.533L210.672 601.981Z" fill="#FF9292"/>
<path d="M258.157 479.305C257.514 479.305 256.866 479.211 256.24 479.011C253.231 478.052 251.326 474.967 251.705 471.677C251.735 471.383 251.969 471.169 252.293 471.208C252.587 471.242 252.796 471.506 252.762 471.796C252.442 474.583 254.041 477.191 256.564 477.997C258.626 478.653 260.94 477.971 262.475 476.258C262.675 476.041 263.012 476.019 263.229 476.215C263.446 476.411 263.468 476.748 263.272 476.97C261.921 478.474 260.041 479.305 258.157 479.305Z" fill="#F25353"/>
<path d="M192.786 635.158C192.837 637.434 194.346 639.177 195.616 640.332C237.061 642.706 278.652 645.093 320.098 647.466C321.138 644.841 321.734 642.399 322.029 640.29C322.574 636.637 322.144 633.692 321.662 631.459C321.666 631.387 321.602 631.314 321.607 631.242C317.724 615.908 296.901 604.133 268.586 602.833C265.973 602.645 263.344 602.675 260.642 602.696C257.024 602.654 253.329 602.675 249.71 602.628C248.717 602.628 247.793 602.633 246.8 602.633C235.156 602.586 223.373 602.53 211.657 602.479C210.021 602.505 208.392 602.462 206.756 602.488C206.692 603.404 206.479 604.384 206.347 605.228C204.928 614.216 202.81 620.033 200.632 623.711C200.47 623.984 200.235 624.321 199.993 624.73C199.677 625.203 199.438 625.544 199.123 625.949C198.42 626.822 197.661 627.551 196.979 628.139C196.14 628.932 193.723 630.961 193.05 633.471C192.867 634.029 192.756 634.587 192.786 635.158Z" fill="#FF9292"/>
<path d="M192.786 635.159C192.837 637.434 194.346 639.177 195.616 640.332C237.061 642.706 278.652 645.093 320.098 647.467C321.138 644.841 321.734 642.399 322.029 640.29C322.574 636.637 322.144 633.692 321.662 631.459C321.666 631.387 321.602 631.314 321.607 631.242C320.801 626.52 318.542 617.796 311.357 610.56C300.174 599.291 281.746 596.355 264.299 602.833C265.59 598.75 266.885 594.672 268.177 590.589C259.325 587.111 256.095 587.998 254.765 589.421C251.62 592.796 258.311 600.122 255.302 607.546C253.124 612.925 246.194 617.515 239.789 617.259C230.315 616.88 226.053 607.035 211.648 602.479C209.914 601.929 208.282 601.887 206.747 602.488C201.258 604.798 200.495 615.537 200.623 623.711C200.461 623.984 200.227 624.321 199.984 624.73C199.669 625.203 199.43 625.544 199.115 625.949C198.411 626.823 197.653 627.551 196.971 628.139C196.131 628.932 193.715 630.961 193.042 633.471C192.867 634.029 192.756 634.587 192.786 635.159Z" fill="#232996"/>
<path d="M193.093 647.466H321.973C323.414 647.466 324.581 646.299 324.581 644.858V640.158C324.581 638.717 323.414 637.549 321.973 637.549H193.093C191.652 637.549 190.485 638.717 190.485 640.158V644.858C190.485 646.299 191.652 647.466 193.093 647.466Z" fill="#FF2468"/>
<path d="M287.814 615.797H292.975V598.694H287.814V615.797Z" fill="#FF2468"/>
<path d="M280.002 615.519H285.163V598.416H280.002V615.519Z" fill="#FF2468"/>
<path d="M273.007 615.797H278.168V598.694H273.007V615.797Z" fill="#FF2468"/>
<path d="M135.341 456.249C135.418 456.326 135.891 456.407 135.891 456.407L164.884 462.851C170.441 469.703 175.999 476.556 181.56 483.409C183.282 478.129 185.008 472.844 186.73 467.564L186.964 466.699L187.28 465.207L188.221 460.809L188.298 460.575L190.578 450.283L191.835 444.546L194.823 430.951L200.244 406.829L215.331 338.944L204.723 336.587L166.772 328.178C164.023 336.348 161.193 344.441 158.444 352.615L150.982 386.164L146.741 405.099C146.665 405.099 138.414 442.343 138.414 442.343L137.314 447.291L135.341 456.249Z" fill="#FF9292"/>
<path d="M134.489 606.677C128.071 608.194 85.824 617.911 79.7722 605.352C78.5917 602.901 77.978 597.923 85.3765 587.896C88.9308 578.558 92.4894 569.22 96.0438 559.879L98.8778 552.467L99.6066 550.699L102.36 543.484L103.161 541.361L105.999 533.95L106.8 531.828L109.528 524.676L110.304 522.622L112.976 515.603L113.803 513.417L116.637 506.005C117.05 505.562 117.212 505.17 117.178 504.697L120.353 496.276L120.732 495.36L127.734 476.944C129.725 472.099 131.715 467.249 133.709 462.403C149.657 469.405 165.609 476.412 181.556 483.414L180.891 485.208L177.81 493.212L134.489 606.677Z" fill="#FF9292"/>
<path d="M183.006 478.521C182.469 480.656 181.599 482.706 180.461 484.692C179.426 486.559 178.071 488.276 176.532 489.879C176.246 490.16 175.982 490.378 175.628 490.646C165.4 500.278 148.813 499.655 138.129 489.095C130.211 481.355 127.675 470.288 130.675 460.899L131.915 457.664C131.949 457.532 131.984 457.396 132.082 457.281C133.254 454.877 134.809 452.644 136.731 450.645C137.584 449.797 138.504 448.962 139.454 448.28C141.994 446.362 144.833 444.947 147.82 444.069C148.507 443.886 149.257 443.72 149.99 443.622C158.654 441.9 168.213 444.512 175.198 451.45C177.649 453.841 179.532 456.513 180.93 459.42C183.943 465.489 184.651 472.265 183.006 478.521Z" fill="#FF9292"/>
<path d="M137.916 475.585C137.771 475.585 137.626 475.581 137.481 475.568C134.907 475.393 132.64 473.629 131.706 471.076C131.604 470.799 131.745 470.492 132.022 470.394C132.294 470.292 132.601 470.432 132.704 470.709C133.496 472.866 135.401 474.353 137.558 474.507C140.196 474.664 142.646 472.849 143.375 470.143C143.452 469.861 143.737 469.695 144.027 469.768C144.308 469.844 144.479 470.134 144.402 470.42C143.58 473.471 140.89 475.585 137.916 475.585Z" fill="#F25353"/>
<path d="M151.745 635.158C151.694 637.434 150.185 639.177 148.915 640.332C107.469 642.706 65.8788 645.093 24.433 647.466C23.3931 644.841 22.7964 642.399 22.5024 640.29C21.9569 636.637 22.3874 633.692 22.8689 631.459C22.8647 631.387 22.9286 631.314 22.9243 631.242C26.8068 615.908 47.6298 604.133 75.9451 602.833C78.5576 602.645 81.1871 602.675 83.8891 602.696C87.5073 602.654 91.2023 602.675 94.8205 602.628C95.8135 602.628 96.7383 602.633 97.7313 602.633C109.375 602.586 121.158 602.53 132.874 602.479C134.51 602.505 136.138 602.462 137.775 602.488C137.839 603.404 138.052 604.384 138.184 605.228C139.603 614.216 141.721 620.033 143.899 623.711C144.061 623.984 144.3 624.321 144.538 624.73C144.858 625.203 145.092 625.544 145.408 625.949C146.111 626.822 146.87 627.551 147.552 628.139C148.391 628.932 150.808 630.961 151.481 633.471C151.664 634.029 151.775 634.587 151.745 635.158Z" fill="#FF9292"/>
<path d="M151.745 635.159C151.694 637.434 150.185 639.177 148.915 640.332C107.469 642.706 65.8788 645.093 24.433 647.467C23.3931 644.841 22.7964 642.399 22.5024 640.29C21.9569 636.637 22.3874 633.692 22.8689 631.459C22.8647 631.387 22.9286 631.314 22.9243 631.242C23.7298 626.52 25.9886 617.796 33.1739 610.56C44.3568 599.291 62.7847 596.355 80.2324 602.833C78.9411 598.75 77.6455 594.672 76.3542 590.589C85.2059 587.111 88.4364 587.998 89.766 589.421C92.907 592.796 86.2203 600.122 89.2291 607.546C91.4069 612.925 98.3365 617.515 104.742 617.259C114.216 616.88 118.478 607.035 132.878 602.479C134.617 601.929 136.245 601.887 137.779 602.488C143.268 604.798 144.031 615.537 143.903 623.711C144.065 623.984 144.304 624.321 144.543 624.73C144.862 625.203 145.097 625.544 145.412 625.949C146.115 626.823 146.874 627.551 147.556 628.139C148.395 628.932 150.812 630.961 151.485 633.471C151.664 634.029 151.775 634.587 151.745 635.159Z" fill="#232996"/>
<path d="M151.442 647.466H22.5619C21.1215 647.466 19.9537 646.299 19.9537 644.858V640.158C19.9537 638.717 21.1215 637.549 22.5619 637.549H151.442C152.883 637.549 154.051 638.717 154.051 640.158V644.858C154.051 646.299 152.883 647.466 151.442 647.466Z" fill="#FF2468"/>
<path d="M56.7201 598.695H51.5591V615.797H56.7201V598.695Z" fill="#FF2468"/>
<path d="M64.532 598.418H59.371V615.52H64.532V598.418Z" fill="#FF2468"/>
<path d="M71.5255 598.695H66.3645V615.797H71.5255V598.695Z" fill="#FF2468"/>
<path d="M187.02 163.184C187.425 166.099 185.741 168.741 183.257 169.086C180.776 169.431 178.432 167.347 178.027 164.432C177.623 161.517 179.306 158.875 181.791 158.53C184.275 158.185 186.615 160.269 187.02 163.184Z" fill="#FF9292"/>
<path d="M207.118 452.771C227.524 449.771 247.933 446.771 268.339 443.766C268.121 435.136 267.644 426.204 266.851 416.994C264.004 383.893 257.705 354.307 250.175 328.762C234.513 335.777 218.851 342.792 203.193 349.811C204.501 384.131 205.81 418.451 207.118 452.771Z" fill="#232996"/>
<path d="M252.788 273.53C264.819 267.474 276.85 261.418 288.881 255.362C283.413 244.353 271.855 225.188 249.838 210.673C241.127 204.928 232.697 201.177 225.516 198.676C227.566 210.694 229.62 222.716 231.67 234.735C238.711 247.669 245.751 260.599 252.788 273.53Z" fill="#FF2468"/>
<path d="M126.306 271.369C134.791 277.97 143.277 284.568 151.762 291.246C152.785 289.123 153.726 287.159 154.749 285.117C155.614 283.31 156.399 281.58 157.34 279.773C157.656 279.066 158.048 278.281 158.363 277.574C147.598 275.533 136.995 273.415 126.306 271.369Z" fill="#FC6565"/>
<path d="M157.422 283.391C160.72 272.392 164.1 261.469 167.399 250.627C168.421 247.09 169.521 243.633 170.62 240.1C170.936 239.001 171.251 237.978 171.562 236.878C172.743 223.914 174 210.95 175.253 197.985C173.369 198.927 171.324 200.027 169.201 201.284C169.044 201.361 168.967 201.442 168.809 201.518C162.604 205.213 155.61 210.238 148.775 217.074C136.202 229.565 128.817 243.237 124.495 254.237C123.161 257.693 122.138 260.838 121.273 263.664C120.724 265.628 120.25 267.354 119.858 268.927C132.435 273.726 144.93 278.52 157.422 283.391Z" fill="#FF2468"/>
<path d="M138.406 442.343C141.078 443.285 143.669 444.231 146.341 445.249C159.382 449.963 172.504 454.758 185.469 459.548C186.41 459.863 187.357 460.179 188.298 460.571L190.579 450.278C186.099 449.571 181.544 448.863 176.988 448.237C167.714 446.822 158.368 445.407 149.018 443.997C145.48 443.443 141.943 442.893 138.406 442.343Z" fill="#FC6565"/>
<path d="M198.607 453.266C177.094 449.358 155.58 445.45 134.071 441.542C137.153 420.335 142.275 396.026 150.812 369.782C155.755 354.58 161.206 340.691 166.768 328.157C180.857 335.176 194.951 342.2 209.04 349.223C205.563 383.901 202.085 418.583 198.607 453.266Z" fill="#232996"/>
<path d="M156.791 213.622C157.025 236.802 157.183 260.058 157.422 283.315C157.656 305.314 157.895 327.313 158.053 349.313C166.222 354.184 178.795 360.312 194.981 362.903C228.137 368.248 254.301 355.599 263.732 350.489C262.79 343.18 261.848 335.952 260.825 328.647C260.352 324.875 259.883 321.027 259.334 317.255C257.446 302.561 255.485 287.789 253.521 273.099C251.871 260.45 250.222 247.878 248.573 235.229C248.023 231.457 247.55 227.686 247.081 223.914C246.531 220.219 246.058 216.528 245.589 212.838C242.602 209.616 237.969 205.294 231.445 201.604C229.638 200.581 227.831 199.72 226.181 198.931C225.947 198.855 225.789 198.774 225.555 198.697C220.449 196.498 215.889 195.398 212.514 194.849C212.356 195.398 209.607 202.234 202.848 203.649C196.72 204.983 189.803 201.135 187.054 194.141C184.066 194.691 179.826 195.79 175.266 197.99C173.382 198.931 171.336 200.031 169.214 201.288C169.056 201.365 168.98 201.446 168.822 201.523C166.781 202.937 164.658 204.51 162.694 206.47C160.252 208.904 158.287 211.342 156.791 213.622Z" fill="#FF2468"/>
<path d="M37.951 327.995L31.0128 353.144L270.763 419.295C272.021 418.873 280.34 415.916 282.027 408.121C283.528 401.178 278.703 395.318 277.702 394.146C197.785 372.092 117.868 350.046 37.951 327.995Z" fill="white"/>
<path d="M270.291 422.232L269.975 422.146L30.2246 355.999C22.9412 352.5 19.259 345.187 21.2834 338.539C23.214 332.206 30.0413 328.068 37.5378 328.762C37.7253 328.796 277.791 395.033 277.791 395.033L278.004 395.28C279.871 397.458 284.056 403.271 282.56 410.171C280.8 418.319 272.285 421.562 270.593 422.129L270.291 422.232ZM35.9439 330.821C30.0243 330.821 24.842 334.175 23.3248 339.161C21.6073 344.795 24.8207 351.043 30.9704 354.013L270.218 420.007C272.23 419.278 279.044 416.355 280.481 409.723C281.742 403.88 278.068 398.702 276.59 396.912L37.2523 330.876C36.8133 330.838 36.3786 330.821 35.9439 330.821Z" fill="#232996"/>
<path d="M270.252 414.369C269.83 414.369 269.434 414.117 269.268 413.708C266.8 407.673 267.832 402.538 271.893 400.633C273.606 399.832 277.173 399.09 279.445 400.535C282.023 402.167 281.346 405.419 280.898 407.567C280.561 409.173 280.101 411.364 277.659 412.174C276.713 412.481 274.753 412.766 273.38 411.863C272.392 411.215 271.846 410.017 271.957 408.747C272.076 407.384 272.924 406.203 274.173 405.662C275.302 405.172 276.581 405.257 277.45 405.423C278.03 405.53 278.409 406.088 278.303 406.668C278.196 407.247 277.625 407.622 277.058 407.52C276.236 407.362 275.515 407.401 275.021 407.618C274.484 407.848 274.135 408.338 274.083 408.935C274.049 409.318 274.156 409.821 274.552 410.086C275.106 410.444 276.227 410.405 276.994 410.154C278.183 409.757 278.473 408.752 278.814 407.136C279.283 404.89 279.543 403.113 278.307 402.333C277.033 401.524 274.433 401.801 272.805 402.559C269.809 403.97 269.212 407.929 271.245 412.903C271.467 413.448 271.207 414.07 270.661 414.292C270.521 414.343 270.389 414.369 270.252 414.369Z" fill="#232996"/>
<path d="M69.4799 318.142L61.813 332.657L240.296 426.928C241.302 426.932 247.985 426.856 250.005 422.257C251.803 418.161 248.628 413.376 247.963 412.412C188.469 380.986 128.974 349.564 69.4799 318.142Z" fill="white"/>
<path d="M239.798 429.046C239.734 429.046 239.244 428.922 239.244 428.922L60.3938 334.337C57.8964 330.902 57.6918 326.414 59.8739 322.894C61.7746 319.825 65.1755 317.993 68.9599 318.129L69.4202 318.253L248.287 412.864C249.553 414.705 252.302 419.457 250.422 423.74C248.27 428.646 241.826 429.046 239.798 429.046ZM61.9791 332.888L240.002 426.915C241.592 426.89 246.876 426.519 248.475 422.884C249.889 419.666 247.626 415.72 246.676 414.288L68.6488 320.26C65.819 320.247 63.1469 321.666 61.6851 324.023C60.0272 326.687 60.1508 330.22 61.9791 332.888Z" fill="#232996"/>
<path d="M246.131 424.239C245.334 424.23 243.795 423.987 242.824 423.114C242.01 422.385 241.694 421.281 242.022 420.314C242.351 419.359 243.237 418.711 244.337 418.63C245.274 418.566 246.259 418.899 246.915 419.193C247.452 419.431 247.695 420.062 247.452 420.599C247.213 421.136 246.583 421.379 246.046 421.136C245.436 420.863 244.844 420.706 244.494 420.757C244.349 420.765 244.102 420.812 244.034 421C243.996 421.119 244.025 421.332 244.239 421.528C244.635 421.886 245.619 422.125 246.126 422.108C246.796 422.108 246.996 421.852 247.414 420.876C248.014 419.474 248.219 418.75 247.486 418.11C246.493 417.241 244.405 416.955 243.254 417.053C242.449 417.134 241.873 417.445 241.502 418C240.863 418.963 240.85 420.667 241.473 422.687C241.643 423.25 241.328 423.847 240.765 424.021C240.207 424.192 239.61 423.876 239.431 423.314C238.604 420.608 238.707 418.362 239.73 416.823C240.45 415.737 241.596 415.08 243.041 414.94C244.443 414.795 247.273 415.101 248.888 416.508C250.866 418.238 249.894 420.501 249.374 421.72C248.999 422.598 248.3 424.239 246.131 424.239Z" fill="#232996"/>
<path d="M165.523 384.596C155.218 377.142 141.542 365.102 130.334 346.841C121.427 332.325 116.798 318.321 114.28 307.411C112.277 302.126 114.433 295.699 119.317 291.727C125.237 286.92 134.186 286.511 139.151 291.48C156.126 317.072 173.105 342.668 190.08 368.26L165.523 384.596Z" fill="#FF9292"/>
<path d="M194.84 405.999C198.957 397.782 199.724 391.18 199.63 386.603C199.524 381.506 198.544 376.379 200.858 375.062C202.371 374.201 204.655 375.348 206.313 376.413C206.471 375.045 206.888 370.136 203.918 367.715C201.846 366.027 199.017 365.904 193.608 366.871C191.017 367.336 188.43 367.8 185.839 368.265C178.13 373.012 170.42 377.756 162.715 382.503C161.726 385.538 160.575 390.72 163.171 394.581C165.34 397.807 168.945 398.451 176.429 400.352C180.793 401.46 187.122 403.228 194.84 405.999Z" fill="#FF9292"/>
<path d="M186.001 136.522C183.035 139.015 176.787 144.27 177.49 151.417C177.878 155.338 180.188 158.172 181.582 159.604C185.029 156.314 186.806 153.173 187.804 150.765C188.618 148.792 189.176 146.661 190.425 146.507C191.678 146.358 192.308 148.365 194.026 149.618C195.151 150.441 197.619 151.579 204.855 149.29C211.576 147.168 220.781 144.257 220.871 139.59C220.96 134.962 212.049 130.572 204.855 129.891C194.998 128.957 187.893 134.932 186.001 136.522Z" fill="#232996"/>
<path d="M357.789 259.913C357.623 259.913 357.457 259.875 357.299 259.794C355.586 258.903 352.458 256.811 350.791 252.745C349.525 249.672 349.658 246.855 349.99 245.027C350.092 244.447 350.621 244.064 351.23 244.17C351.81 244.277 352.193 244.831 352.087 245.41C351.805 246.953 351.69 249.34 352.76 251.935C354.222 255.502 357.107 257.296 358.279 257.902C358.799 258.17 359.004 258.814 358.731 259.338C358.548 259.7 358.173 259.913 357.789 259.913Z" fill="#F74F4F"/>
<path d="M328.2 623.85H371.414V124.19H328.2V623.85Z" fill="#232996"/>
<path d="M328.204 124.193C328.894 126.396 330.045 128.859 332.01 129.371C334.81 130.095 336.293 126.072 340.235 125.876C344.582 125.663 345.89 130.398 349.935 129.886C353.31 129.464 353.429 126.034 356.933 125.616C360.606 125.181 362.187 128.74 365.771 128.335C368.324 128.045 370.221 125.931 371.418 124.193C368.363 114.126 365.345 104.034 362.226 93.9637C358.454 81.7878 354.763 69.6162 351.068 57.4402C349.734 57.5255 348.396 57.6065 347.139 57.6874C343.683 69.7781 340.226 81.8688 336.847 93.9594C333.936 104.068 331.029 114.088 328.204 124.193Z" fill="#84DBEF"/>
<path d="M336.843 93.9637H362.222C358.45 81.7878 354.759 69.6162 351.064 57.4402C349.731 57.5255 348.392 57.6065 347.135 57.6874C343.679 69.7824 340.222 81.873 336.843 93.9637Z" fill="#232996"/>
<path d="M335.901 647.466H363.717C369.053 647.466 373.379 643.141 373.379 637.805V623.66C373.379 618.324 369.053 613.999 363.717 613.999H335.901C330.565 613.999 326.239 618.324 326.239 623.66V637.805C326.239 643.141 330.565 647.466 335.901 647.466Z" fill="#232996"/>
<path d="M322.928 618.825H376.69V575.346H322.928V618.825Z" fill="#84DBEF"/>
<path d="M366.095 286.912C369.526 287.074 372.957 287.24 376.388 287.402C378.391 285.48 380.543 282.82 382.056 279.3C387.617 266.327 379.477 253.124 378.374 251.39C373.954 250.87 369.535 250.354 365.115 249.834C364.83 250.269 363.67 252.131 364.135 254.501C364.582 256.806 366.394 258.699 368.802 259.41C364.514 259.334 361.365 261.976 361.19 264.32C360.994 266.941 364.416 270.534 369.539 270.214C364.438 270.376 360.717 271.484 360.453 273.159C360.227 274.621 362.66 276.372 364.382 277.088C366.807 278.094 369.028 277.553 369.782 277.335C366.428 277.306 363.837 279.649 363.645 282.245C363.436 284.964 365.95 286.809 366.095 286.912Z" fill="#FF9292"/>
<path d="M642.826 364.906H630.275C629.776 362.55 629.23 360.193 628.732 357.836C628.233 360.193 627.781 362.55 627.283 364.906H606.575C605.624 362.187 604.627 359.426 603.63 356.707C603.541 359.426 603.404 362.187 603.315 364.906H587.32C587.41 361.778 587.546 358.654 587.64 355.573C585.961 358.654 584.333 361.778 582.654 364.906H432.677C430.73 363.095 429.281 360.964 429.413 358.744C429.822 352.172 443.413 351.904 446.767 342.886C450.074 334.004 439.471 327.479 441.465 317.196C443.37 307.637 454.016 306.051 461.853 299.07C484.147 279.317 459.271 238.353 473.953 192.59C477.396 181.85 484.735 165.54 502.634 148.05C508.707 148.775 514.776 149.546 520.802 150.27C547.311 206.952 571.82 224.715 590.265 229.608C596.381 231.24 613.645 234.547 618.947 246.962C623.162 256.794 615.866 263.003 620.443 273.376C626.286 286.698 641.828 284.793 644.637 296.032C646.947 305.455 636.799 309.397 638.564 320.95C640.239 331.78 649.892 333.501 651.43 343.606C652.159 348.776 650.752 355.799 642.826 364.906Z" fill="#FF2468"/>
<path d="M647.957 365.972C647.705 365.972 647.454 365.882 647.253 365.703C646.81 365.315 646.768 364.638 647.16 364.199C653.633 356.864 656.442 349.99 655.513 343.768C654.818 339.101 652.235 336.31 649.508 333.348C646.567 330.16 643.524 326.861 642.646 321.117C641.688 314.856 644.053 310.654 646.133 306.95C648.084 303.486 649.768 300.49 648.732 296.283C647.462 291.203 643.311 289.034 638.504 286.528C633.441 283.886 627.709 280.894 624.602 273.807C622.139 268.228 622.927 263.817 623.682 259.555C624.38 255.626 625.041 251.914 623.098 247.384C618.38 236.375 603.711 232.757 596.662 231.023L595.132 230.643C570.107 224.195 544.212 198.428 518.16 154.051C517.866 153.543 518.032 152.891 518.539 152.593C519.046 152.299 519.694 152.465 520.001 152.972C545.755 196.839 571.215 222.277 595.669 228.576L597.178 228.951C604.559 230.771 619.931 234.556 625.062 246.544C627.261 251.662 626.511 255.864 625.787 259.93C625.05 264.064 624.359 267.964 626.558 272.95C629.367 279.351 634.515 282.045 639.497 284.644C644.543 287.278 649.308 289.767 650.808 295.78C652.044 300.809 649.989 304.466 647.999 308.003C645.988 311.574 643.912 315.269 644.756 320.801C645.54 325.898 648.229 328.818 651.081 331.907C653.906 334.976 656.834 338.147 657.622 343.457C658.649 350.331 655.67 357.785 648.762 365.614C648.541 365.852 648.251 365.972 647.957 365.972Z" fill="#FF2468"/>
<path d="M556.426 341.744C548.482 344.616 533.6 348.797 514.895 346.896C499.054 345.285 487.006 339.975 479.927 336.178C474.907 298.427 469.887 260.68 464.866 222.93C467.982 219.772 486.231 201.868 513.272 203.3C527.519 204.054 538.062 209.854 543.377 213.336C547.724 256.137 552.075 298.938 556.426 341.744Z" fill="#FF9292"/>
<path d="M506.772 345.345L511.891 414.693L513.711 439.343L514.725 453.283L515.876 469.874L516.281 475.836L516.391 476.774C516.447 476.923 538.727 475.265 538.727 475.265L568.828 473.121C568.905 473.058 568.219 463.861 568.219 463.861L565.091 420.821C565.023 420.812 563.616 401.413 563.616 401.413L561.085 367.131C559.529 358.693 557.974 350.25 556.422 341.739L517.619 344.552L506.772 345.345Z" fill="#FF9292"/>
<path d="M479.868 257.411C478.044 260.165 476.254 263.007 474.4 265.82C472.759 268.373 471.088 270.981 469.418 273.593C468.808 274.608 468.173 275.537 467.504 276.521C465.77 279.394 463.886 282.266 462.062 285.168C460.967 286.822 459.965 288.446 458.87 290.099C457.502 292.273 456.138 294.306 454.77 296.479C454.68 296.509 454.71 296.594 454.676 296.654C453.67 298.278 452.55 299.842 451.578 301.41C449.843 304.138 448.083 306.776 446.413 309.533C446.021 309.993 445.803 310.547 445.381 311.067C437.267 305.608 429.148 300.144 421.034 294.685C422.785 291.075 424.656 287.385 426.553 283.779L431.023 275.29C431.97 273.632 432.886 271.889 433.866 270.176C436.649 265.032 439.091 260.672 441.196 256.955C449.34 242.9 452.908 238.097 452.908 238.097C454.757 235.216 456.961 232.148 459.577 229.011C464.802 222.75 470.198 218.02 474.89 214.508C473.437 218.932 471.289 227.46 472.84 238.046C474.148 246.979 477.545 253.618 479.868 257.411Z" fill="#FF9292"/>
<path d="M512.735 612.072L565.295 613.487L566.148 583.523L566.361 575.587V573.674L566.574 565.951L566.646 563.684L566.859 555.749L566.932 553.482L567.145 545.832L567.217 543.637L567.431 536.128L567.503 533.788L567.716 525.852C567.503 525.286 567.503 524.859 567.716 524.438L568.002 515.441V514.448L568.568 494.754L568.922 481.577L516.362 480.162L516.289 482.075L516.076 490.646L512.735 612.072Z" fill="#FF9292"/>
<path d="M515.94 481.683C515.62 483.861 515.642 486.09 515.931 488.357C516.174 490.48 516.771 492.585 517.581 494.652C517.734 495.023 517.9 495.325 518.122 495.705C523.892 508.515 539.456 514.277 553.367 508.601C563.642 504.475 570.218 495.219 571.032 485.391L571.121 481.926C571.143 481.79 571.16 481.654 571.113 481.509C570.947 478.841 570.367 476.181 569.353 473.599C568.893 472.486 568.36 471.366 567.742 470.373C566.127 467.632 564.047 465.237 561.618 463.285C561.055 462.855 560.424 462.416 559.785 462.041C552.438 457.135 542.606 455.9 533.503 459.641C530.323 460.916 527.566 462.663 525.162 464.815C520.057 469.282 516.809 475.274 515.94 481.683Z" fill="#FF9292"/>
<path d="M562.082 490.1C561.409 490.1 560.731 489.994 560.075 489.777C557.087 488.775 555.221 485.66 555.647 482.374C555.681 482.084 555.941 481.879 556.243 481.914C556.533 481.952 556.742 482.22 556.704 482.51C556.346 485.293 557.905 487.927 560.416 488.767C562.461 489.453 564.788 488.805 566.348 487.113C566.548 486.9 566.881 486.883 567.102 487.079C567.32 487.279 567.333 487.616 567.132 487.833C565.785 489.295 563.94 490.1 562.082 490.1Z" fill="#F25353"/>
<path d="M520.896 486.917C520.768 486.917 520.636 486.87 520.529 486.772L515.718 482.246C515.505 482.046 515.492 481.709 515.697 481.496C515.897 481.283 516.234 481.27 516.451 481.474L521.263 486C521.476 486.201 521.488 486.537 521.284 486.751C521.181 486.861 521.037 486.917 520.896 486.917Z" fill="#F25353"/>
<path d="M518.424 206.032C508.222 214.674 497.81 216.302 493.774 212.335C493.067 211.7 491.153 209.501 491.72 203.837C491.861 203.764 491.933 201.288 491.933 201.143C491.933 201.071 492.006 200.15 492.074 198.522V198.096C492.214 196.114 492.427 193.421 492.568 190.374C492.641 189.453 492.64 188.46 492.709 187.467C492.922 183.218 493.203 178.824 493.416 175.637C493.489 174.503 493.557 173.442 493.629 172.381L505.673 167.705C505.745 167.918 505.886 167.987 505.886 168.2C506.38 168.98 506.807 169.9 507.301 170.68C507.373 170.821 507.373 170.893 507.514 171.034C508.929 175.496 510.348 179.817 511.763 184.066C513.677 189.875 515.59 195.756 517.499 201.565C517.862 202.984 518.215 204.476 518.424 206.032Z" fill="#FF9292"/>
<path d="M511.767 184.07C511.06 187.825 509.074 194.414 503.338 199.089C501.356 200.717 498.449 203.129 495.688 202.349C494.128 201.855 492.854 200.436 492.074 198.522V198.096C492.214 196.114 492.427 193.421 492.568 190.374C492.641 189.453 492.64 188.46 492.709 187.467C495.543 182.933 501.42 182.012 502.272 181.94C506.951 181.309 510.561 183.295 511.767 184.07Z" fill="#FC6565"/>
<path d="M518.053 169.785C516.076 182.988 506.116 192.466 495.986 190.872C487.403 189.577 481.368 180.87 480.891 170.343C480.797 168.387 480.852 166.325 481.18 164.245C481.206 164.117 481.624 161.922 481.624 161.922C482.928 156.484 485.421 151.809 488.805 148.438C492.862 144.325 498.087 142.177 503.354 142.978L504.45 143.187C513.105 145.165 518.88 154.894 518.407 166.175C518.377 167.369 518.219 168.545 518.053 169.785Z" fill="#FF9292"/>
<path d="M508.004 180.026C510.647 180.026 512.79 177.883 512.79 175.24C512.79 172.597 510.647 170.454 508.004 170.454C505.361 170.454 503.218 172.597 503.218 175.24C503.218 177.883 505.361 180.026 508.004 180.026Z" fill="#FC6565"/>
<path d="M481.748 173.322C481.748 175.965 483.891 178.108 486.533 178.108C489.176 178.108 491.32 175.965 491.32 173.322C491.32 170.68 489.176 168.536 486.533 168.536C483.891 168.536 481.748 170.68 481.748 173.322Z" fill="#FC6565"/>
<path d="M503.934 166.388C503.572 166.388 503.218 166.201 503.018 165.868L500.742 162.05C500.444 161.543 500.61 160.891 501.113 160.588C501.607 160.286 502.272 160.447 502.575 160.959L504.851 164.777C505.149 165.285 504.983 165.937 504.48 166.239C504.309 166.337 504.122 166.388 503.934 166.388Z" fill="#232996"/>
<path d="M507.305 166.103C506.9 166.103 506.513 165.868 506.334 165.476L504.531 161.492C504.284 160.955 504.527 160.324 505.064 160.081C505.596 159.847 506.227 160.077 506.47 160.614L508.273 164.598C508.52 165.135 508.277 165.766 507.74 166.009C507.599 166.073 507.45 166.103 507.305 166.103Z" fill="#232996"/>
<path d="M502.801 173.369C502.703 173.369 502.6 173.356 502.507 173.327C501.94 173.16 501.616 172.572 501.778 172.005L502.451 169.687C502.617 169.12 503.235 168.801 503.772 168.963C504.339 169.124 504.663 169.717 504.501 170.284L503.828 172.606C503.687 173.071 503.265 173.369 502.801 173.369Z" fill="#232996"/>
<path d="M506.853 173.787C506.282 173.787 505.813 173.339 505.788 172.764L505.69 170.45C505.664 169.862 506.125 169.367 506.708 169.342C507.326 169.342 507.795 169.789 507.821 170.365L507.919 172.679C507.944 173.267 507.484 173.761 506.9 173.787C506.883 173.787 506.866 173.787 506.853 173.787Z" fill="#232996"/>
<path d="M510.51 168.843C509.96 170.356 507.412 170.633 505.417 170.424C505.14 170.424 504.867 170.356 504.659 170.356L504.245 170.288C503.487 170.152 502.524 169.806 501.633 169.325C500.461 168.707 499.57 167.88 499.57 166.985C499.502 165.404 501.978 163.546 504.663 163.337H505.145C505.763 163.337 506.108 163.405 506.658 163.542C507.757 163.887 508.793 164.641 509.547 165.536C510.442 166.64 510.924 167.948 510.51 168.843Z" fill="white"/>
<path d="M506.658 166.985C506.658 168.293 506.176 169.529 505.417 170.424C505.14 170.424 504.867 170.356 504.659 170.356L504.245 170.288C503.487 170.152 502.524 169.806 501.633 169.325C500.461 168.707 499.57 167.88 499.57 166.985C499.502 165.404 501.978 163.546 504.663 163.337H505.145C506.103 164.232 506.658 165.54 506.658 166.985Z" fill="#232996"/>
<path d="M485.353 164.854C484.991 164.854 484.637 164.667 484.437 164.334L482.161 160.516C481.863 160.009 482.029 159.356 482.532 159.054C483.03 158.756 483.687 158.913 483.994 159.425L486.269 163.243C486.568 163.75 486.402 164.402 485.899 164.705C485.728 164.807 485.541 164.854 485.353 164.854Z" fill="#232996"/>
<path d="M488.724 164.569C488.319 164.569 487.931 164.334 487.757 163.942L485.958 159.957C485.715 159.42 485.954 158.79 486.491 158.547C487.024 158.304 487.659 158.542 487.897 159.079L489.696 163.064C489.939 163.601 489.7 164.232 489.163 164.475C489.022 164.539 488.873 164.569 488.724 164.569Z" fill="#232996"/>
<path d="M484.228 171.839C484.134 171.839 484.032 171.826 483.934 171.797C483.367 171.63 483.043 171.042 483.205 170.475L483.874 168.157C484.036 167.594 484.612 167.249 485.196 167.428C485.762 167.594 486.086 168.183 485.924 168.749L485.255 171.068C485.119 171.532 484.688 171.839 484.228 171.839Z" fill="#232996"/>
<path d="M488.277 172.253C487.705 172.253 487.237 171.805 487.211 171.23L487.117 168.916C487.092 168.327 487.552 167.833 488.136 167.808C488.754 167.808 489.223 168.255 489.248 168.83L489.342 171.145C489.368 171.733 488.907 172.227 488.324 172.253C488.306 172.253 488.289 172.253 488.277 172.253Z" fill="#232996"/>
<path d="M491.933 167.309C491.383 168.822 488.835 169.099 486.84 168.89C486.563 168.89 486.29 168.822 486.082 168.822L485.668 168.754C484.909 168.617 483.946 168.272 483.056 167.791C481.884 167.173 480.993 166.346 480.993 165.451C480.925 163.87 483.401 162.012 486.086 161.803H486.567C487.185 161.803 487.53 161.871 488.08 162.007C489.18 162.353 490.211 163.107 490.97 164.002C491.861 165.106 492.342 166.414 491.933 167.309Z" fill="white"/>
<path d="M488.076 165.451C488.076 166.759 487.595 167.995 486.836 168.89C486.559 168.89 486.286 168.822 486.077 168.822L485.664 168.754C484.905 168.617 483.942 168.272 483.052 167.791C481.88 167.173 480.989 166.346 480.989 165.451C480.921 163.87 483.397 162.012 486.082 161.803H486.563C487.526 162.698 488.076 164.006 488.076 165.451Z" fill="#232996"/>
<path d="M499.323 180.508C499.144 180.785 497.495 183.265 494.814 183.355C492.035 183.448 489.214 180.938 488.788 177.273C489.964 177.98 491.503 178.756 493.382 179.378C495.692 180.141 497.759 180.418 499.323 180.508Z" fill="white"/>
<path d="M529.168 347.139L508.132 413.418L500.653 436.977L496.438 450.304L491.477 466.179L489.7 471.886L489.376 472.772C489.287 472.904 467.999 466.132 467.999 466.132L439.211 457.08C439.151 456.999 441.947 448.211 441.947 448.211L454.954 407.064C455.022 407.072 460.882 388.525 460.882 388.525L471.281 355.761C474.75 347.91 478.219 340.056 481.692 332.138L518.787 343.857L529.168 347.139Z" fill="#FF9292"/>
<path d="M441.635 611.48C435.285 613.266 393.477 624.726 386.91 612.426C385.627 610.027 384.813 605.079 391.785 594.753C394.952 585.275 398.114 575.796 401.28 566.318L403.808 558.792L404.464 556.998L406.919 549.672L407.63 547.519L410.158 539.997L410.869 537.845L413.299 530.587L413.985 528.499L416.363 521.373L417.1 519.153L419.627 511.631C420.019 511.171 420.169 510.774 420.113 510.301L422.939 501.756L423.28 500.823L429.515 482.135C431.305 477.209 433.09 472.282 434.88 467.36C451.105 473.697 467.334 480.03 483.558 486.367L482.97 488.187L480.225 496.31L441.635 611.48Z" fill="#FF9292"/>
<path d="M488.728 480.047C488.281 482.203 487.497 484.287 486.44 486.32C485.481 488.229 484.198 490.002 482.728 491.664C482.455 491.958 482.199 492.184 481.858 492.466C472.039 502.515 455.44 502.579 444.329 492.47C436.1 485.067 433.104 474.114 435.712 464.606L436.816 461.321C436.845 461.184 436.871 461.052 436.969 460.928C438.039 458.482 439.5 456.185 441.337 454.105C442.155 453.219 443.038 452.349 443.963 451.629C446.422 449.609 449.2 448.079 452.149 447.073C452.827 446.865 453.569 446.664 454.297 446.536C462.881 444.457 472.542 446.673 479.808 453.313C482.357 455.597 484.347 458.192 485.864 461.035C489.125 466.989 490.113 473.727 488.728 480.047Z" fill="#FF9292"/>
<path d="M439.36 480.358C436.607 480.286 434.267 478.615 433.227 476.105C433.116 475.832 433.244 475.521 433.513 475.406C433.79 475.299 434.101 475.423 434.207 475.696C435.085 477.818 437.05 479.229 439.211 479.288C441.827 479.344 444.227 477.426 444.845 474.686C444.917 474.404 445.198 474.217 445.48 474.285C445.765 474.353 445.944 474.639 445.885 474.924C445.169 478.099 442.441 480.358 439.36 480.358Z" fill="#F25353"/>
<path d="M477.144 491.166C476.936 491.166 476.74 491.047 476.654 490.842C476.544 490.569 476.667 490.258 476.936 490.143L483.013 487.548C483.281 487.441 483.597 487.556 483.712 487.825C483.823 488.097 483.699 488.408 483.431 488.524L477.353 491.119C477.285 491.153 477.213 491.166 477.144 491.166Z" fill="#F25353"/>
<path d="M498.202 635.129C498.279 637.409 499.775 639.135 501.032 640.315C542.516 642.672 584.081 645.029 625.57 647.467C626.592 644.795 627.142 642.357 627.453 640.239C628.003 636.625 627.611 633.637 627.061 631.438C627.138 631.361 627.061 631.28 627.061 631.204C622.19 626.806 616.138 622.088 608.753 617.69C593.981 608.812 579.918 604.806 569.702 602.842C569.779 602.684 566.088 602.684 566.088 602.684C564.596 602.607 563.024 602.607 561.532 602.607C559.41 602.607 557.292 602.684 555.169 602.607H552.263C540.556 602.53 528.772 602.53 517.065 602.449H512.194C512.117 603.391 511.878 604.337 511.802 605.198C510.387 614.233 508.268 620.046 506.065 623.665C505.907 623.98 505.673 624.291 505.439 624.687C505.123 625.16 504.889 625.553 504.573 625.945C503.866 626.81 503.082 627.517 502.451 628.144C501.586 628.928 499.153 630.974 498.522 633.488C498.279 634.029 498.202 634.579 498.202 635.129Z" fill="#FF9292"/>
<path d="M498.202 635.129C498.279 637.409 499.775 639.135 501.032 640.315C542.516 642.672 584.081 645.029 625.57 647.467C626.592 644.794 627.142 642.357 627.453 640.239C628.003 636.625 627.611 633.637 627.061 631.438C627.138 631.361 627.061 631.28 627.061 631.204C625.655 629.435 623.609 627.078 620.886 624.572C616.147 620.208 611.889 617.732 609.264 616.223C597.544 609.494 583.293 606.004 579.184 605.053C561.306 619.147 551.185 619.633 545.188 617.221C539.797 615.051 520.035 603.395 517.06 602.449C515.33 601.9 513.762 601.9 512.189 602.449C506.687 604.806 505.903 615.495 506.061 623.665C505.903 623.98 505.669 624.291 505.434 624.687C505.119 625.16 504.885 625.552 504.569 625.945C503.862 626.81 503.078 627.517 502.447 628.144C501.582 628.928 499.148 630.973 498.518 633.488C498.279 634.029 498.202 634.579 498.202 635.129Z" fill="#FF2468"/>
<path d="M498.522 647.441H627.402C628.843 647.441 630.011 646.273 630.011 644.833V640.132C630.011 638.692 628.843 637.524 627.402 637.524H498.522C497.081 637.524 495.914 638.692 495.914 640.132V644.833C495.918 646.273 497.086 647.441 498.522 647.441Z" fill="#84DBEF"/>
<path d="M459.59 635.129C459.509 637.409 458.018 639.135 456.76 640.315C415.276 642.672 373.711 645.029 332.223 647.467C331.2 644.795 330.65 642.357 330.339 640.239C329.789 636.625 330.181 633.637 330.731 631.438C330.654 631.361 330.731 631.28 330.731 631.204C335.602 626.806 341.654 622.088 349.04 617.69C363.811 608.812 377.875 604.806 388.09 602.842C388.014 602.684 391.704 602.684 391.704 602.684C393.196 602.607 394.769 602.607 396.26 602.607C398.383 602.607 400.501 602.684 402.623 602.607H405.53C417.237 602.53 429.025 602.53 440.732 602.449H445.603C445.68 603.391 445.918 604.337 445.995 605.198C447.41 614.233 449.528 620.046 451.732 623.665C451.889 623.98 452.124 624.291 452.358 624.687C452.673 625.16 452.908 625.553 453.223 625.945C453.931 626.81 454.715 627.517 455.346 628.144C456.211 628.928 458.644 630.974 459.275 633.488C459.509 634.029 459.59 634.579 459.59 635.129Z" fill="#FF9292"/>
<path d="M459.59 635.129C459.509 637.409 458.018 639.135 456.76 640.315C415.276 642.672 373.711 645.029 332.223 647.467C331.2 644.794 330.65 642.357 330.339 640.239C329.789 636.625 330.181 633.637 330.731 631.438C330.654 631.361 330.731 631.28 330.731 631.204C332.138 629.435 334.183 627.078 336.906 624.572C341.645 620.208 345.903 617.732 348.528 616.223C360.248 609.494 374.504 606.004 378.608 605.053C396.486 619.147 406.608 619.633 412.604 617.221C417.995 615.051 437.757 603.395 440.732 602.449C442.462 601.9 444.03 601.9 445.603 602.449C451.105 604.806 451.889 615.495 451.732 623.665C451.889 623.98 452.124 624.291 452.358 624.687C452.673 625.16 452.908 625.552 453.223 625.945C453.931 626.81 454.715 627.517 455.346 628.144C456.211 628.928 458.644 630.973 459.275 633.488C459.509 634.029 459.59 634.579 459.59 635.129Z" fill="#FF2468"/>
<path d="M459.266 647.441H330.386C328.945 647.441 327.778 646.273 327.778 644.833V640.132C327.778 638.692 328.945 637.524 330.386 637.524H459.266C460.707 637.524 461.875 638.692 461.875 640.132V644.833C461.875 646.273 460.707 647.441 459.266 647.441Z" fill="#84DBEF"/>
<path d="M537.001 253.218C539.128 255.745 541.237 258.362 543.402 260.94C545.325 263.284 547.289 265.684 549.25 268.087C549.97 269.025 550.711 269.873 551.487 270.776C553.541 273.432 555.745 276.065 557.893 278.737C559.167 280.25 560.356 281.751 561.63 283.268C563.241 285.271 564.831 287.129 566.442 289.132C566.531 289.149 566.514 289.238 566.552 289.294C567.737 290.794 569.029 292.217 570.179 293.658C572.216 296.168 574.266 298.585 576.248 301.129C576.691 301.542 576.973 302.066 577.45 302.535C584.882 296.172 592.311 289.814 599.743 283.451C597.587 280.067 595.302 276.615 593.001 273.253L587.58 265.334C586.451 263.8 585.338 262.172 584.166 260.582C580.808 255.792 577.88 251.748 575.357 248.296C565.645 235.272 561.545 230.912 561.545 230.912C559.32 228.265 556.772 225.482 553.874 222.657C549.914 218.8 546.032 215.582 542.444 212.91C542.797 218.48 542.78 225.367 541.74 233.162C540.688 241.106 538.847 247.869 537.001 253.218Z" fill="#FF9292"/>
<path d="M507.118 581.682C528.235 580.697 549.352 579.717 570.465 578.737C574.42 541.676 576.257 497.179 572.366 447.167C569.463 409.89 563.91 376.392 557.441 347.31C541.975 357.176 526.513 367.042 511.047 376.908C509.739 445.164 508.426 513.425 507.118 581.682Z" fill="#84DBEF"/>
<path d="M394.828 567.767C416.001 574.313 437.169 580.864 458.342 587.41C479.075 518.224 499.809 449.034 520.543 379.848C533.042 369.91 545.542 359.971 558.038 350.033C557.377 346.048 556.712 342.059 556.052 338.074C529.59 337.593 503.133 337.115 476.672 336.634C449.392 413.682 422.108 490.723 394.828 567.767Z" fill="#84DBEF"/>
<path d="M472.742 344.983C477.128 348.209 502.362 366.151 534.125 359.225C549.518 355.867 560.284 348.017 566.045 343.018C560.97 316.663 555.898 290.308 550.822 263.953C539.716 243.156 528.61 222.363 517.504 201.565C507.983 202.554 498.466 203.543 488.946 204.531C482.434 227.549 475.926 250.567 469.414 273.585C470.526 297.391 471.634 321.189 472.742 344.983Z" fill="#232996"/>
<path d="M487.475 208.631C498.688 207.174 509.9 205.712 521.117 204.254C520.653 199.929 520.188 195.603 519.724 191.277C508.92 192.53 498.117 193.787 487.313 195.04C487.364 199.571 487.42 204.101 487.475 208.631Z" fill="#232996"/>
<path d="M374.342 237.407C376.737 249.898 381.864 267.384 393.673 285.262C403.058 299.471 413.793 309.589 422.611 316.488C426.553 320.537 433.291 321.304 438.951 318.555C445.812 315.227 449.967 307.287 447.564 300.686C431.552 274.48 415.541 248.27 399.529 222.06L374.342 237.407Z" fill="#FF9292"/>
<path d="M475.461 150.3C482.557 156.915 487.253 157.746 490.3 157.149C491.847 156.846 494.076 156.02 497.546 156.169C500.806 156.309 503.214 157.417 503.682 157.643C507.586 159.497 509.713 162.766 512.769 167.586C515.407 171.75 515.858 174.311 517.175 174.281C518.658 174.247 519.792 171.051 520.504 168.447C521.48 166.55 522.839 163.235 522.835 158.994C522.826 150.198 516.962 144.449 515.713 143.281C509.325 140.421 503.785 139.262 500 138.738C492.423 137.69 484.423 136.582 479.429 141.431C476.569 144.202 475.738 147.918 475.461 150.3Z" fill="#FF2468"/>
<path d="M512.632 168.95C512.632 171.895 514.665 174.277 517.171 174.277C519.677 174.277 521.71 171.89 521.71 168.95C521.71 166.005 519.677 163.623 517.171 163.623C514.665 163.623 512.632 166.009 512.632 168.95Z" fill="#FF9292"/>
<path d="M505.971 396.098C505.643 396.077 505.417 395.826 505.438 395.531L507.565 364.429C507.591 364.135 507.838 363.901 508.136 363.935C508.426 363.952 508.652 364.207 508.63 364.501L506.504 395.604C506.483 395.885 506.252 396.098 505.971 396.098Z" fill="white"/>
<path d="M513.941 402.401C513.839 402.401 513.732 402.372 513.639 402.308L505.648 396.814C505.405 396.648 505.345 396.316 505.516 396.073C505.678 395.83 506.001 395.77 506.257 395.936L514.248 401.43C514.491 401.596 514.55 401.928 514.38 402.171C514.282 402.321 514.112 402.401 513.941 402.401Z" fill="white"/>
<path d="M510.941 413.917C510.519 413.827 510.348 413.533 510.425 413.248L513.425 401.732C513.502 401.451 513.8 401.289 514.073 401.353C514.359 401.43 514.529 401.72 514.457 402.005L511.456 413.521C511.397 413.759 511.179 413.917 510.941 413.917Z" fill="white"/>
<path d="M517.734 393.891C517.389 393.861 517.176 393.601 517.205 393.307L519.848 366.543C519.873 366.249 520.069 366.019 520.432 366.066C520.722 366.095 520.935 366.355 520.905 366.649L518.262 393.413C518.237 393.682 518.007 393.891 517.734 393.891Z" fill="white"/>
<path d="M508.835 571.168C508.55 571.168 508.311 570.938 508.303 570.648C508.294 570.354 508.529 570.111 508.823 570.103L568.897 568.628C569.195 568.628 569.434 568.858 569.442 569.148C569.451 569.442 569.216 569.685 568.922 569.693L508.848 571.168H508.835Z" fill="white"/>
<path d="M458.257 578.775C458.086 578.745 402.103 559.593 402.103 559.593C401.826 559.499 401.673 559.197 401.771 558.915C401.865 558.638 402.193 558.489 402.444 558.583L458.427 577.735C458.704 577.829 458.858 578.132 458.76 578.413C458.687 578.639 458.478 578.775 458.257 578.775Z" fill="white"/>
<path d="M488.153 295.964H510.497C512.961 295.964 514.959 293.965 514.959 291.502V249.434C514.959 246.97 512.961 244.971 510.497 244.971H488.153C485.689 244.971 483.691 246.97 483.691 249.434V291.502C483.691 293.965 485.689 295.964 488.153 295.964Z" fill="#FF2468"/>
<path d="M491.277 255.588C493.122 255.588 494.618 254.092 494.618 252.246C494.618 250.401 493.122 248.905 491.277 248.905C489.431 248.905 487.935 250.401 487.935 252.246C487.935 254.092 489.431 255.588 491.277 255.588Z" fill="white"/>
<path d="M499.566 293.364C510.587 299.714 527.173 307.257 548.423 310.002C565.312 312.184 579.985 310.667 590.968 308.497C596.611 308.161 601.588 303.558 603.208 297.476C605.173 290.108 601.874 281.776 595.307 279.279C565.005 274.275 534.704 269.268 504.403 264.264L499.566 293.364Z" fill="#FF9292"/>
<path d="M550.332 269.362C537.73 267.15 525.124 264.942 512.522 262.73C511.047 276.236 509.577 289.741 508.102 303.243C522.916 306.026 537.73 308.809 552.544 311.592C579.837 319.915 601.695 313.288 606.072 301.768C606.673 300.187 608.902 293.36 601.652 281.878C594.923 265.969 579.905 237.245 548.862 216.072C539.017 209.36 529.386 204.646 520.802 201.297C516.489 202.456 512.172 203.619 507.859 204.779C522.013 226.309 536.175 247.835 550.332 269.362Z" fill="#232996"/>
<path d="M554.261 271.365C554.176 271.36 512.27 264.793 512.27 264.793C511.98 264.746 511.784 264.473 511.827 264.184C511.869 263.898 512.112 263.706 512.436 263.74L554.347 270.308C554.636 270.355 554.832 270.627 554.785 270.917C554.751 271.177 554.521 271.365 554.261 271.365Z" fill="white"/>
<path d="M554.261 271.365C553.984 271.365 553.75 271.147 553.728 270.866C553.711 270.572 553.933 270.32 554.227 270.299L565.35 269.57C565.572 269.558 565.896 269.771 565.917 270.065C565.934 270.359 565.713 270.61 565.419 270.631L554.295 271.36C554.287 271.365 554.274 271.365 554.261 271.365Z" fill="white"/>
<path d="M554.261 271.365C554.065 271.365 553.878 271.258 553.788 271.07L536.528 236.695C536.396 236.431 536.498 236.111 536.767 235.979C537.027 235.851 537.351 235.962 537.479 236.218L554.739 270.593C554.871 270.857 554.769 271.177 554.5 271.309C554.423 271.348 554.342 271.365 554.261 271.365Z" fill="white"/>
<path d="M560.386 314.144C553.827 314.089 547.272 313.407 540.901 312.111C529.454 309.789 518.48 305.506 508.298 299.386C508.042 299.237 507.966 298.908 508.115 298.657C508.264 298.401 508.592 298.324 508.848 298.478C518.927 304.534 529.782 308.77 541.11 311.071C547.421 312.354 553.908 313.028 560.39 313.083C560.684 313.087 560.923 313.326 560.918 313.62C560.914 313.91 560.675 314.144 560.386 314.144Z" fill="white"/>
<path d="M482.075 289.737C487.905 290.943 493.74 292.154 499.57 293.36C503.269 284.005 506.964 274.65 510.663 265.296C512.347 261.533 514.03 257.77 515.718 254.011C516.225 252.216 516.182 251.074 515.594 250.571C514.013 249.233 508.49 252.549 499.02 260.514C493.25 259.491 487.479 258.468 481.709 257.446C481.078 261.699 480.626 266.608 480.605 272.055C480.575 278.793 481.219 284.755 482.075 289.737Z" fill="#FF9292"/>
<path d="M525.299 626.124C527.53 626.124 529.339 624.315 529.339 622.083C529.339 619.852 527.53 618.043 525.299 618.043C523.067 618.043 521.258 619.852 521.258 622.083C521.258 624.315 523.067 626.124 525.299 626.124Z" fill="#232996"/>
<path d="M432.477 622.083C432.477 624.317 434.284 626.124 436.517 626.124C438.75 626.124 440.557 624.317 440.557 622.083C440.557 619.85 438.75 618.043 436.517 618.043C434.284 618.043 432.477 619.855 432.477 622.083Z" fill="#232996"/>
<path d="M399.533 222.06C391.138 227.174 382.742 232.293 374.346 237.407C373.093 225.009 371.84 212.616 370.583 200.218C370.387 197.58 369.185 180.465 372.761 179.621C376.652 178.705 384.012 197.568 384.741 199.464C389.672 206.995 394.603 214.53 399.533 222.06Z" fill="#FF9292"/>
<path d="M380.21 219.857C378.254 225.708 376.298 231.56 374.342 237.411C373.102 237.04 369.88 235.898 367.37 232.698C363.994 228.389 364.42 223.543 364.535 222.503C364.075 214.372 364.165 208.111 364.348 203.811C364.416 202.222 364.514 200.461 365.29 200.223C366.875 199.741 370.174 205.934 372.842 211.551C375.301 214.316 377.756 217.087 380.21 219.857Z" fill="#FF9292"/>
<path d="M446.95 315.005C438.874 322.041 432.289 323.375 427.959 323.384C406.812 323.435 384.502 292.081 375.77 243.944C383.355 234.969 390.941 225.994 398.523 217.018C409.007 235.31 419.495 253.606 429.979 271.897C435.29 261.025 440.506 252.28 444.623 245.888C462.778 217.692 474.864 211.333 479.795 209.091C482.911 207.676 485.608 206.799 487.441 206.27C482.438 229.301 477.434 252.331 472.431 275.358C463.941 288.578 455.443 301.794 446.95 315.005Z" fill="#232996"/>
<path d="M469.563 277.271C469.286 277.271 469.047 277.054 469.03 276.773L467.879 258.345C467.862 258.051 468.084 257.799 468.378 257.778C468.702 257.808 468.928 257.983 468.945 258.277L470.096 276.705C470.113 276.999 469.891 277.25 469.597 277.271C469.584 277.271 469.576 277.271 469.563 277.271Z" fill="white"/>
<path d="M656.561 648.532H649.632C649.043 648.532 648.566 648.055 648.566 647.467C648.566 646.878 649.043 646.401 649.632 646.401H656.561C657.149 646.401 657.627 646.878 657.627 647.467C657.627 648.055 657.149 648.532 656.561 648.532Z" fill="#232996"/>
<path d="M645.4 648.532H641.168C640.58 648.532 640.102 648.055 640.102 647.467C640.102 646.878 640.58 646.401 641.168 646.401H645.4C645.988 646.401 646.465 646.878 646.465 647.467C646.465 648.055 645.988 648.532 645.4 648.532Z" fill="#232996"/>
<path d="M635.653 648.532H14.733C14.1449 648.532 13.6676 648.055 13.6676 647.467C13.6676 646.878 14.1449 646.401 14.733 646.401H635.653C636.241 646.401 636.718 646.878 636.718 647.467C636.718 648.055 636.241 648.532 635.653 648.532Z" fill="#232996"/>
<path d="M11.3361 648.532H8.57875C7.99062 648.532 7.51331 648.055 7.51331 647.467C7.51331 646.878 7.99062 646.401 8.57875 646.401H11.3361C11.9243 646.401 12.4016 646.878 12.4016 647.467C12.4016 648.055 11.9243 648.532 11.3361 648.532Z" fill="#232996"/>
<path d="M3.83135 648.532H1.06544C0.477319 648.532 0 648.055 0 647.467C0 646.879 0.477319 646.401 1.06544 646.401H3.83135C4.41947 646.401 4.89679 646.879 4.89679 647.467C4.89679 648.055 4.41947 648.532 3.83135 648.532Z" fill="#232996"/>
</svg>
