<svg width="56" height="35" viewBox="0 0 56 35" fill="none" xmlns="http://www.w3.org/2000/svg">
<path d="M55.725 32.674C55.461 33.091 55.158 33.42 54.78 33.648C54.37 33.865 53.992 34.093 53.606 34.245C35.821 27.489 18.06 20.668 0.299194 13.847C0.494194 10.319 1.70099 8.22903 2.70059 6.90603C7.16819 1.24003 17.741 0.240021 29.59 4.66802L30.203 4.89402C31.162 5.28202 32.141 5.71702 33.109 6.18302C33.269 6.24202 33.387 6.32102 33.517 6.37002C34.218 6.66402 34.797 6.98603 35.378 7.20103C36.883 7.90003 37.873 8.30302 38.121 8.43102C39.799 9.15802 43.245 10.571 50.754 13.219C51.304 13.42 51.897 13.603 52.546 13.841C53.484 14.187 54.498 14.522 55.534 14.902C55.554 14.947 55.55 15.057 55.508 15.077C55.548 15.166 55.502 15.294 55.497 15.404C55.426 16.296 55.327 17.067 55.286 17.676C55.252 17.774 55.203 17.902 55.201 18.012C55.201 18.012 54.941 20.12 54.788 22.231C54.756 22.624 54.697 23.079 54.673 23.548C54.642 23.831 54.624 24.081 54.606 24.331C54.579 25.203 54.557 25.965 54.64 26.437C54.634 26.654 54.681 26.928 54.681 26.928C54.689 27.006 54.709 27.048 54.687 27.113C54.736 27.278 54.786 27.443 54.815 27.565C54.951 28.093 55.144 28.567 55.296 28.953C55.558 29.528 56.432 31.245 55.725 32.674Z" fill="#FF9292"/>
<path d="M55.725 32.674C55.461 33.091 55.158 33.42 54.78 33.65C54.37 33.867 53.992 34.095 53.606 34.247C35.821 27.491 18.06 20.67 0.299194 13.849C0.492194 10.321 1.70099 8.23097 2.70059 6.90797C4.33609 4.27997 6.50589 2.01997 9.47009 0.976974C13.9154 -0.586025 17.129 1.65396 23.932 1.83296C28.172 1.94296 31.792 1.19898 34.529 0.375977C36.753 0.572977 39.923 1.21497 41.505 3.57697C44.413 7.91797 39.118 13.825 41.424 18.711C42.509 21.01 45.542 23.646 54.604 24.331C54.577 25.203 54.555 25.965 54.638 26.437C54.632 26.654 54.679 26.928 54.679 26.928C54.687 27.006 54.707 27.048 54.685 27.113C54.734 27.278 54.784 27.443 54.813 27.565C54.949 28.093 55.142 28.567 55.294 28.953C55.459 29.306 55.827 30.103 55.94 30.989C56.032 31.538 56.003 32.115 55.725 32.674Z" fill="white"/>
<path d="M21.9359 8.31503C21.2799 8.31503 20.7419 7.77603 20.7419 7.12003V1.56903C20.7419 0.910031 21.2799 0.374023 21.9359 0.374023C22.5949 0.374023 23.1309 0.912031 23.1309 1.56903V7.12003C23.1309 7.77603 22.5949 8.31503 21.9359 8.31503Z" fill="#0F267A"/>
<path d="M26.946 8.31503C26.29 8.31503 25.752 7.77603 25.752 7.12003V1.56903C25.752 0.910031 26.29 0.374023 26.946 0.374023C27.605 0.374023 28.141 0.912031 28.141 1.56903V7.12003C28.143 7.77603 27.605 8.31503 26.946 8.31503Z" fill="#0F267A"/>
</svg>
