<svg width="60" height="27" viewBox="0 0 60 27" fill="none" xmlns="http://www.w3.org/2000/svg">
<path d="M59.6841 23.941C59.5801 24.424 59.407 24.837 59.133 25.182C58.822 25.528 58.5481 25.871 58.2371 26.148C39.2151 25.941 20.192 25.664 1.17005 25.39C0.13505 22.012 0.550058 19.632 1.03106 18.046C3.27006 11.187 12.852 6.60096 25.499 6.66796H26.1531C27.1871 6.70296 28.2561 6.77197 29.3221 6.87597C29.4951 6.87597 29.633 6.90997 29.771 6.90997C30.529 6.94497 31.184 7.04797 31.805 7.04797C33.459 7.18697 34.5281 7.22096 34.8041 7.25596C36.6301 7.35896 40.352 7.49796 48.312 7.39396C48.898 7.39396 49.519 7.35896 50.208 7.35896C51.208 7.35896 52.2761 7.32496 53.3771 7.32496C53.4121 7.35896 53.4471 7.46296 53.4121 7.49796C53.4811 7.56696 53.4811 7.70497 53.5161 7.80897C53.7571 8.66997 53.9301 9.42897 54.1011 10.016C54.1011 10.12 54.101 10.258 54.135 10.361C54.135 10.361 54.617 12.431 55.204 14.465C55.307 14.845 55.411 15.292 55.549 15.741C55.618 16.018 55.6871 16.26 55.7571 16.5C56.0331 17.327 56.2751 18.05 56.5141 18.465C56.5831 18.672 56.7221 18.912 56.7221 18.912C56.7561 18.981 56.7911 19.016 56.7911 19.085C56.8941 19.223 56.9981 19.361 57.0671 19.463C57.3781 19.912 57.721 20.29 57.997 20.601C58.444 21.044 59.8561 22.355 59.6841 23.941Z" fill="#FF9292"/>
<path d="M59.6841 23.9409C59.5801 24.4239 59.407 24.837 59.133 25.182C58.822 25.528 58.5481 25.871 58.2371 26.148C39.2151 25.941 20.192 25.6639 1.17005 25.3899C0.13505 22.0119 0.550058 19.632 1.03106 18.046C1.66106 15.016 2.91906 12.1439 5.34106 10.1439C8.97306 7.14394 12.7641 8.13795 19.2111 5.95695C23.2291 4.59695 26.3711 2.64995 28.6561 0.932946C30.8141 0.350946 34.0101 -0.140054 36.3071 1.52995C40.5331 4.60095 37.6001 11.973 41.4501 15.764C43.2601 17.546 47.0161 18.9749 55.7571 16.4929C56.0331 17.3209 56.2751 18.0439 56.5141 18.4589C56.5831 18.6659 56.7221 18.906 56.7221 18.906C56.7561 18.975 56.7911 19.0099 56.7911 19.0789C56.8941 19.2169 56.9981 19.3549 57.0671 19.4569C57.3781 19.9059 57.721 20.2839 57.997 20.5949C58.274 20.8709 58.8931 21.4909 59.3081 22.2839C59.5821 22.7679 59.7531 23.3209 59.6841 23.9409Z" fill="white"/>
<path d="M1.17003 25.642C1.05203 25.642 0.948034 25.5599 0.922034 25.4409C0.284034 22.4529 0.325042 19.5629 1.04604 16.8549C1.14504 16.4829 1.25704 16.124 1.37304 15.774C1.42004 15.64 1.56404 15.571 1.69404 15.613C1.82804 15.658 1.89904 15.8019 1.85204 15.9369C1.73904 16.2719 1.63304 16.624 1.53704 16.985C0.837039 19.615 0.798036 22.4239 1.41804 25.3329C1.44804 25.4709 1.36104 25.605 1.22204 25.634C1.20404 25.64 1.18803 25.642 1.17003 25.642Z" fill="white"/>
<path d="M20.361 12.116C19.877 12.561 19.118 12.5281 18.673 12.0421L14.922 7.95305C14.477 7.46905 14.51 6.70905 14.995 6.26405C15.479 5.81905 16.241 5.85105 16.684 6.33705L20.434 10.427C20.877 10.91 20.844 11.67 20.361 12.116Z" fill="#0F267A"/>
<path d="M24.052 8.72699C23.569 9.17199 22.809 9.13999 22.364 8.65399L18.614 4.56499C18.169 4.08099 18.201 3.32099 18.687 2.87599C19.17 2.43099 19.93 2.46299 20.375 2.94899L24.125 7.03798C24.57 7.52198 24.538 8.28199 24.052 8.72699Z" fill="#0F267A"/>
</svg>
