<svg width="77" height="39" viewBox="0 0 77 39" fill="none" xmlns="http://www.w3.org/2000/svg">
<path d="M70.941 10.859H5.41699C2.51799 10.859 0.156982 8.497 0.156982 5.597C0.156982 2.696 2.51799 0.335022 5.41699 0.335022H70.941C73.84 0.335022 76.201 2.694 76.201 5.597C76.201 8.5 73.84 10.859 70.941 10.859ZM5.41699 1.69502C3.26899 1.69502 1.51698 3.445 1.51698 5.597C1.51698 7.746 3.26899 9.49901 5.41699 9.49901H70.941C73.092 9.49901 74.841 7.746 74.841 5.597C74.841 3.445 73.089 1.69502 70.941 1.69502H5.41699Z" fill="#232996"/>
<path d="M70.941 20.02H5.41699C2.51799 20.02 0.156982 17.661 0.156982 14.758C0.156982 11.855 2.51799 9.49597 5.41699 9.49597H70.941C73.84 9.49597 76.201 11.855 76.201 14.758C76.201 17.661 73.84 20.02 70.941 20.02ZM5.41699 10.859C3.26899 10.859 1.51698 12.609 1.51698 14.761C1.51698 16.913 3.26899 18.662 5.41699 18.662H70.941C73.092 18.662 74.841 16.913 74.841 14.761C74.841 12.609 73.089 10.859 70.941 10.859H5.41699Z" fill="#232996"/>
<path d="M70.941 29.184H5.41699C2.51799 29.184 0.156982 26.825 0.156982 23.922C0.156982 21.021 2.51799 18.66 5.41699 18.66H70.941C73.84 18.66 76.201 21.021 76.201 23.922C76.201 26.825 73.84 29.184 70.941 29.184ZM5.41699 20.02C3.26899 20.02 1.51698 21.772 1.51698 23.922C1.51698 26.071 3.26899 27.823 5.41699 27.823H70.941C73.092 27.823 74.841 26.074 74.841 23.922C74.841 21.77 73.089 20.02 70.941 20.02H5.41699Z" fill="#232996"/>
<path d="M70.941 38.345H5.41699C2.51799 38.345 0.156982 35.983 0.156982 33.083C0.156982 30.182 2.51799 27.821 5.41699 27.821H70.941C73.84 27.821 76.201 30.18 76.201 33.083C76.201 35.986 73.84 38.345 70.941 38.345ZM5.41699 29.184C3.26899 29.184 1.51698 30.933 1.51698 33.085C1.51698 35.238 3.26899 36.987 5.41699 36.987H70.941C73.092 36.987 74.841 35.238 74.841 33.085C74.841 30.936 73.089 29.184 70.941 29.184H5.41699Z" fill="#232996"/>
</svg>
