<svg width="247" height="297" viewBox="0 0 247 297" fill="none" xmlns="http://www.w3.org/2000/svg">
<g clip-path="url(#clip0_26_524)">
<path d="M174.171 205.556C173.999 206.841 173.642 208.131 173.153 209.354C171.609 213.205 168.45 216.442 164.243 218.041C156.772 220.918 148.748 217.449 146.067 210.27C145.959 210.056 145.882 209.885 145.812 209.679C145.655 209.144 145.5 208.613 145.378 208.084C145.243 207.438 145.146 206.799 145.117 206.173C145.027 204.914 145.077 203.684 145.306 202.486L145.39 202.037C145.461 201.663 145.569 201.296 145.676 200.928C146.131 199.308 146.865 197.782 147.861 196.422C148.63 195.291 149.561 194.266 150.621 193.343C151.945 192.199 153.444 191.284 155.15 190.64C156.983 189.905 158.882 189.609 160.714 189.646C160.793 189.623 160.899 189.642 161.006 189.662C163.897 189.75 166.653 190.74 168.905 192.45C169.231 192.667 169.552 192.922 169.836 193.171C171.058 194.295 172.086 195.655 172.859 197.197C173.157 197.758 173.406 198.387 173.618 199.009C174.079 200.455 174.312 201.932 174.326 203.408C174.347 203.488 174.332 203.564 174.318 203.639L174.219 204.744L174.171 205.556Z" fill="#FF9292"/>
<path d="M123.173 121.273C123.988 124.155 122.115 127.962 118.684 129.44C119.037 129.574 119.433 129.672 119.79 129.766C119.865 129.819 120.026 129.841 120.101 129.893C121.348 129.829 122.91 129.562 124.592 128.776C127.52 127.349 129.274 124.925 129.852 124.063C131.208 122.118 131.637 121.15 132.483 119.583C132.983 118.709 133.567 117.804 134.106 116.936C134.112 116.895 134.124 116.814 134.124 116.814C134.236 116.624 134.391 116.399 134.5 116.209C134.743 115.668 135.016 115.213 135.33 114.764C135.607 114.268 135.927 113.78 136.205 113.284C136.801 112.3 137.305 111.383 137.805 110.509C138.784 108.878 139.751 107.331 140.599 105.763C141.028 105.083 141.346 104.596 141.631 104.059L141.689 103.943C142.007 103.453 142.252 102.914 142.57 102.424C143.121 101.474 143.615 100.638 144.164 99.6885C144.264 99.5791 144.321 99.4638 144.425 99.314C144.431 99.2735 144.472 99.2795 144.478 99.2391C145.349 97.7998 146.129 96.3888 146.981 95.071C147.124 94.9273 147.277 94.7431 147.379 94.5933C151.21 90.0832 152.21 84.0871 149.933 79.9211C147.469 75.3563 135.215 83.3766 133.43 86.2896C133.43 86.2896 132.012 88.3908 128.857 94.1945C128.365 95.0285 127.958 95.8362 127.449 96.7917C126.33 98.8119 125.077 101.187 123.632 104.024C123.15 105.067 122.687 105.988 122.181 106.905L119.895 111.559C119.09 113.132 118.41 114.681 117.689 116.225L117.08 117.579C119.967 117.259 122.501 118.826 123.173 121.273Z" fill="#FF9292"/>
<path d="M132.535 88.4697C136.497 92.0993 140.423 95.6823 144.425 99.316C144.431 99.2755 144.472 99.2817 144.478 99.2411C145.349 97.8018 146.129 96.3909 146.981 95.073C147.124 94.9293 147.277 94.7451 147.379 94.5953C147.092 94.3058 146.765 94.0103 146.483 93.6803C141.836 91.9313 137.182 90.2208 132.535 88.4697Z" fill="#FC6565"/>
<path d="M131.749 88.0933C138.013 91.241 144.278 94.3889 150.542 97.5366C151.072 93.2633 151.605 88.9901 152.135 84.7168C152.384 81.6742 150.986 78.7632 148.509 77.2228C145.53 75.3705 141.485 75.8057 138.745 78.3827C136.413 81.6196 134.081 84.8564 131.749 88.0933Z" fill="#84DBEF"/>
<path d="M41.9026 139.212L43.6022 139.214L43.6462 105.38L41.9465 105.378L41.9026 139.212Z" fill="#232996"/>
<path d="M33.8928 141.755L38.4356 140.927L29.5957 92.4569L25.0529 93.286L33.8928 141.755Z" fill="#232996"/>
<path d="M41.3742 140.947L43.0442 140.642L36.9701 107.359L35.3 107.664L41.3742 140.947Z" fill="#FF2468"/>
<path d="M173.628 212.074L173.616 213.108L173.592 219.79L173.612 220.38L173.581 223.151L173.622 236.287L173.634 236.801L173.608 239.608L173.618 242.412L173.632 244.884L173.606 246.917L173.63 259.5L173.659 259.792L173.624 262.121C173.661 262.117 173.655 265.143 173.655 265.143L173.638 266.509L173.628 267.948L173.653 274.367L173.659 276.359C171.647 277.564 167.954 279.404 163.003 279.835C155.654 280.477 150.125 277.618 148.062 276.412C148.062 274.493 148.064 272.574 148.064 270.655L148.062 261.762L147.977 214.236L147.961 212.134C147.981 211.12 148.003 210.107 148.024 209.09C153.153 210.09 158.284 211.092 163.413 212.092L166.435 212.062C168.83 212.066 171.231 212.07 173.628 212.074Z" fill="#FF9292"/>
<path d="M180.53 292.842C180.422 293.356 180.239 293.797 179.945 294.165C179.616 294.534 179.322 294.902 178.992 295.196C158.721 295.018 138.45 294.765 118.179 294.512C117.07 290.914 117.505 288.378 118.017 286.686C120.389 279.37 130.587 274.463 144.066 274.51L144.763 274.508C145.864 274.542 147.004 274.612 148.142 274.72C148.326 274.72 148.472 274.757 148.62 274.757C149.427 274.791 150.125 274.9 150.788 274.898C152.549 275.042 153.689 275.077 153.983 275.112C155.929 275.218 159.895 275.357 168.377 275.23C168.663 275.226 169.411 275.311 170.397 275.19C171.698 275.03 172.732 274.639 173.412 274.326C173.581 274.501 173.841 274.83 173.822 275.236C173.887 275.402 173.887 275.548 173.924 275.659C174.183 276.576 174.367 277.386 174.553 278.01C174.553 278.119 174.553 278.267 174.591 278.376C174.591 278.376 175.109 280.578 175.738 282.746C175.85 283.149 175.962 283.627 176.109 284.105C176.184 284.398 176.256 284.655 176.331 284.913C176.627 285.793 176.886 286.564 177.143 287.005C177.216 287.226 177.364 287.483 177.364 287.483C177.4 287.556 177.437 287.593 177.437 287.668C177.546 287.815 177.657 287.961 177.729 288.07C178.062 288.548 178.43 288.95 178.723 289.281C179.2 289.758 180.71 291.151 180.53 292.842Z" fill="#FF9292"/>
<path d="M180.53 292.842C180.422 293.356 180.239 293.797 179.945 294.165C179.616 294.534 179.322 294.902 178.992 295.196C158.721 295.018 138.45 294.765 118.179 294.512C117.07 290.914 117.505 288.378 118.017 286.686C119.294 282.752 122.74 279.586 127.766 277.445C132.133 275.562 137.748 274.485 144.066 274.51C145.147 273.85 146.451 273.161 146.783 273.512C147.653 274.43 140.422 281.027 141.823 283.412C142.813 285.097 147.57 283.77 151.303 283.105C157.202 282.05 165.522 281.749 176.327 284.915C176.623 285.795 176.882 286.566 177.139 287.007C177.214 287.228 177.36 287.485 177.36 287.485C177.396 287.558 177.433 287.595 177.433 287.67C177.541 287.815 177.653 287.963 177.725 288.072C178.058 288.55 178.426 288.952 178.719 289.283C179.014 289.576 179.677 290.236 180.12 291.081C180.417 291.593 180.601 292.181 180.53 292.842Z" fill="#84DBEF"/>
<path d="M193.242 290.064C193.238 292.894 195.498 295.194 198.288 295.198C201.079 295.202 203.345 292.91 203.349 290.079C203.353 287.248 201.093 284.949 198.302 284.947C195.513 284.941 193.246 287.232 193.242 290.064Z" fill="#232996"/>
<path d="M145.314 220.343L198.782 220.416C201.779 220.42 204.235 217.971 204.237 214.973C204.241 211.899 201.793 209.444 198.796 209.44L145.328 209.368C142.331 209.364 139.877 211.813 139.873 214.811C139.869 217.883 142.317 220.339 145.314 220.343Z" fill="#232996"/>
<path d="M169.749 287.771L174.097 287.776L174.187 218.669L169.838 218.663L169.749 287.771Z" fill="#232996"/>
<path d="M197.894 293.605C197.521 293.542 197.345 293.277 197.398 293.001C199.012 284.756 195.638 276.586 189.001 272.675C181.57 268.291 173.533 271.601 172.645 271.989C172.386 272.105 172.092 271.985 171.979 271.73C171.866 271.473 171.983 271.175 172.238 271.064C173.771 270.39 181.813 267.262 189.515 271.801C196.521 275.93 200.089 284.527 198.392 293.194C198.343 293.436 198.131 293.605 197.894 293.605Z" fill="#232996"/>
<path d="M167.361 290.028C167.357 292.858 169.617 295.157 172.408 295.159C175.199 295.163 177.465 292.871 177.469 290.04C177.473 287.21 175.213 284.911 172.422 284.909C169.63 284.907 167.365 287.197 167.361 290.028Z" fill="#232996"/>
<path d="M146.471 293.536C146.235 293.536 146.02 293.368 145.975 293.128C144.3 284.457 147.889 275.869 154.907 271.756C162.611 267.244 170.65 270.388 172.184 271.064C172.441 271.177 172.555 271.475 172.443 271.73C172.329 271.987 172.024 272.103 171.777 271.989C170.32 271.35 162.699 268.364 155.417 272.629C148.772 276.524 145.374 284.682 146.967 292.93C147.02 293.206 146.84 293.473 146.569 293.524C146.534 293.534 146.502 293.536 146.471 293.536Z" fill="#232996"/>
<path d="M151.129 290.007C151.125 292.838 148.861 295.131 146.069 295.127C143.278 295.123 141.018 292.826 141.022 289.995C141.026 287.166 143.293 284.874 146.083 284.876C148.873 284.878 151.133 287.176 151.129 290.007Z" fill="#232996"/>
<path d="M167.379 274.307L176.637 274.32L176.666 253.126L167.408 253.114L167.379 274.307Z" fill="#232996"/>
<path d="M83.8203 151.527C90.3581 150.622 99.5549 148.433 109.138 142.794C116.754 138.31 122.287 133.019 126.096 128.632C128.128 126.29 128.715 123.037 127.606 120.217C126.368 117.073 123.227 114.995 119.745 115.044C105.344 122.714 90.943 130.387 76.544 138.057C75.4614 138.108 70.3764 138.462 66.5561 142.655C63.9944 145.466 63.2963 148.582 63.0757 149.94C69.9899 150.468 76.9061 150.999 83.8203 151.527Z" fill="#FF9292"/>
<path d="M194.195 125.102C194.758 126.413 195.435 128.399 195.66 130.897C195.878 133.344 195.581 135.381 195.271 136.76C186.289 136.865 177.309 136.97 168.327 137.075C161.554 128.243 153.345 115.573 146.947 99.0529C142.279 86.9961 139.767 75.9698 138.384 66.9616C140.969 65.494 145.118 63.3785 146.103 64.4919C146.261 64.6701 146.352 64.9474 146.31 65.3765C152.849 71.6439 159.657 78.7471 166.492 86.7553C177.939 100.171 187.016 113.264 194.195 125.102Z" fill="#FF9292"/>
<path d="M163.572 184.388L164.606 184.416L171.283 184.553L171.872 184.543L174.64 184.62L187.768 184.802L188.285 184.798L191.088 184.874L193.891 184.91L196.362 184.936L198.394 184.996L210.97 185.185L211.263 185.163L213.59 185.237C213.588 185.201 216.613 185.258 216.613 185.258L217.978 185.298L219.418 185.333L225.834 185.418L227.825 185.446C228.995 187.478 230.771 191.203 231.119 196.165C231.635 203.527 228.687 209.007 227.444 211.052C225.526 211.017 223.608 210.985 221.689 210.952L212.8 210.805L165.3 210.084L163.199 210.066C163.16 210.031 163.419 194.608 163.419 194.608L163.44 191.586L163.543 184.944L163.572 184.388Z" fill="#FF9292"/>
<path d="M244.411 178.851C244.923 178.969 245.363 179.159 245.725 179.459C246.087 179.794 246.449 180.094 246.738 180.428C246.216 200.702 245.622 220.975 245.025 241.247C241.411 242.294 238.884 241.815 237.202 241.276C229.929 238.78 225.198 228.495 225.474 215.015L225.484 214.317C225.537 213.216 225.627 212.078 225.755 210.94C225.757 210.756 225.798 210.611 225.8 210.462C225.849 209.654 225.969 208.958 225.98 208.299C226.153 206.537 226.206 205.4 226.249 205.106C226.388 203.161 226.593 199.195 226.611 190.709C226.611 190.424 226.708 189.677 226.605 188.689C226.467 187.384 226.093 186.345 225.794 185.659C225.971 185.492 226.306 185.237 226.712 185.264C226.878 185.201 227.026 185.203 227.135 185.169C228.058 184.926 228.867 184.754 229.495 184.58C229.603 184.582 229.752 184.584 229.862 184.547C229.862 184.547 232.074 184.066 234.25 183.474C234.654 183.369 235.134 183.268 235.613 183.128C235.909 183.059 236.166 182.988 236.425 182.92C237.311 182.639 238.086 182.394 238.529 182.143C238.749 182.071 239.008 181.93 239.008 181.93C239.084 181.894 239.12 181.859 239.193 181.859C239.341 181.751 239.49 181.643 239.602 181.571C240.083 181.247 240.494 180.887 240.828 180.598C241.307 180.126 242.724 178.642 244.411 178.851Z" fill="#FF9292"/>
<path d="M244.412 178.851C244.923 178.969 245.363 179.159 245.724 179.459C246.087 179.794 246.449 180.094 246.738 180.428C246.216 200.702 245.622 220.975 245.025 241.246C241.411 242.294 238.883 241.817 237.202 241.276C233.293 239.932 230.186 236.432 228.13 231.367C226.324 226.968 225.343 221.333 225.472 215.015C224.831 213.92 224.165 212.604 224.521 212.28C225.455 211.426 231.925 218.77 234.332 217.41C236.032 216.45 234.788 211.667 234.185 207.922C233.232 202.003 233.069 193.677 236.417 182.922C237.303 182.641 238.078 182.396 238.521 182.145C238.741 182.074 239 181.932 239 181.932C239.075 181.896 239.112 181.861 239.185 181.861C239.332 181.753 239.482 181.645 239.594 181.574C240.075 181.249 240.485 180.89 240.82 180.6C241.117 180.31 241.789 179.659 242.639 179.232C243.161 178.942 243.75 178.767 244.412 178.851Z" fill="#84DBEF"/>
<path d="M195.267 136.755L184.753 168.845L184.033 171.068L181.85 177.695L180.026 183.258L177.786 190.15L175.13 198.371L174.181 201.314L174.008 201.77C173.952 201.847 162.944 198.22 162.944 198.22L148.046 193.377C148.028 193.338 149.527 188.801 149.527 188.801L155.979 169.015L156.473 167.497C156.511 167.497 159.642 157.908 159.642 157.908L165.202 140.952C167.044 136.889 168.865 132.824 170.707 128.743L189.913 135.009L195.267 136.755Z" fill="#FF9292"/>
<path d="M176.384 196.887C176.213 198.173 175.856 199.463 175.364 200.685C173.82 204.537 170.664 207.774 166.455 209.373C158.986 212.25 150.959 208.78 148.278 201.602C148.173 201.388 148.094 201.218 148.024 201.011C147.867 200.477 147.712 199.944 147.59 199.416C147.457 198.77 147.357 198.13 147.329 197.505C147.238 196.248 147.289 195.015 147.518 193.818L147.602 193.369C147.673 192.995 147.781 192.628 147.887 192.26C148.342 190.64 149.075 189.115 150.073 187.754C150.842 186.623 151.772 185.598 152.833 184.674C154.157 183.531 155.656 182.616 157.362 181.972C159.194 181.237 161.093 180.94 162.926 180.978C163.005 180.955 163.111 180.974 163.217 180.994C166.109 181.082 168.865 182.074 171.117 183.782C171.443 184.001 171.763 184.254 172.047 184.503C173.27 185.629 174.298 186.986 175.071 188.529C175.368 189.09 175.617 189.719 175.83 190.341C176.291 191.786 176.524 193.264 176.536 194.74C176.556 194.82 176.544 194.895 176.528 194.971L176.429 196.075L176.384 196.887Z" fill="#FF9292"/>
<path d="M150.757 72.3664C148.252 77.8158 144.588 79.8866 142.444 78.3866C142.103 78.1782 141.058 77.3603 140.375 74.5709L140.318 74.4574C140.395 74.3805 140.053 73.1659 140.014 73.091C140.014 73.0526 139.863 72.5789 139.655 71.7814L139.598 71.5344C139.351 70.5466 139.008 69.1983 138.572 67.6984C138.476 67.2814 138.345 66.844 138.229 66.427C138.211 66.3501 138.192 66.2935 138.173 66.2368C138.06 65.838 137.945 65.4008 137.831 65.002C137.376 63.255 136.959 61.5849 136.635 60.2731C136.578 60.1598 136.522 60.0079 136.522 59.8744C136.388 59.4371 136.256 59.0586 136.18 58.6598L138.458 56.3804L139.996 54.9188C140.034 55.0323 140.13 55.0322 140.148 55.1091C140.469 55.4695 140.736 55.8501 141.097 56.1922C141.115 56.2306 141.115 56.2691 141.192 56.344C141.383 56.7043 141.573 56.9897 141.761 57.2934C141.969 57.6173 142.177 57.9573 142.368 58.2812C143.203 59.6295 144.019 60.9776 144.816 62.2874C145.158 62.7995 145.5 63.3319 145.783 63.8825C147.093 66.0465 148.422 68.1558 149.693 70.2813C150.073 70.923 150.415 71.6255 150.757 72.3664Z" fill="#FF9292"/>
<path d="M19.3322 156.983L137.044 157.144C138.643 157.146 139.951 155.84 139.953 154.242C139.955 152.578 138.651 151.268 137.052 151.266L19.3404 151.104C17.7417 151.102 16.4326 152.407 16.4306 154.007C16.4266 155.671 17.7337 156.981 19.3322 156.983Z" fill="#232996"/>
<path d="M128.471 295.125L132.457 294.441L109.812 156.695L105.828 157.381L128.471 295.125Z" fill="#232996"/>
<path d="M27.5436 294.987L23.5593 294.291L46.5642 156.608L50.5485 157.304L27.5436 294.987Z" fill="#232996"/>
<path d="M144.138 167.707C162.707 169.772 181.279 171.835 199.851 173.899C201.295 164.912 204.435 137.94 189.474 109.247C176.39 84.156 156.654 71.5426 148.426 66.8907C145.476 69.5587 142.525 72.2268 139.575 74.8929C140.177 79.3362 141.179 86.5629 142.538 95.4759C146.597 122.134 148.515 128.968 148.254 140.859C148.114 147.051 147.349 156.336 144.138 167.707Z" fill="#84DBEF"/>
<path d="M137.707 119.175C138.928 121.91 137.617 125.945 134.434 127.899C134.8 127.982 135.209 128.023 135.575 128.063C135.656 128.104 135.82 128.104 135.901 128.144C137.125 127.901 138.633 127.413 140.184 126.396C142.878 124.563 144.268 121.914 144.717 120.976C145.779 118.857 146.067 117.838 146.679 116.166C147.048 115.229 147.497 114.252 147.906 113.312C147.906 113.272 147.906 113.191 147.906 113.191C147.987 112.986 148.11 112.743 148.191 112.539C148.355 111.968 148.56 111.478 148.805 110.99C149.009 110.46 149.254 109.929 149.458 109.401C149.907 108.341 150.276 107.363 150.643 106.425C151.38 104.672 152.117 103 152.73 101.33C153.057 100.595 153.302 100.067 153.506 99.4961L153.547 99.3747C153.792 98.8443 153.956 98.2735 154.203 97.7431C154.612 96.7249 154.98 95.8262 155.389 94.8079C155.47 94.6865 155.512 94.5629 155.593 94.4009C155.593 94.3605 155.634 94.3605 155.634 94.3201C156.287 92.7714 156.862 91.2633 157.515 89.8361C157.637 89.6722 157.76 89.4698 157.841 89.3058C160.987 84.2937 161.117 78.2167 158.268 74.419C155.174 70.2551 144.195 79.9475 142.845 83.0852C142.845 83.0852 141.74 85.3685 139.449 91.5649C139.082 92.4617 138.796 93.318 138.426 94.3362C137.609 96.4962 136.707 99.0245 135.684 102.041C135.356 103.142 135.028 104.12 134.66 105.098L133.063 110.031C132.491 111.703 132.039 113.332 131.548 114.964L131.139 116.391C133.96 115.662 136.69 116.848 137.707 119.175Z" fill="#FF9292"/>
<path d="M142.277 85.3685C146.716 88.3929 151.115 91.3767 155.597 94.401C155.597 94.3605 155.638 94.3605 155.638 94.3201C156.291 92.7715 156.866 91.2634 157.519 89.8361C157.641 89.6722 157.764 89.4698 157.845 89.3058C157.519 89.0609 157.153 88.816 156.827 88.5285C151.977 87.4617 147.127 86.4353 142.277 85.3685Z" fill="#FC6565"/>
<path d="M141.445 85.1095C148.096 87.3281 154.745 89.5468 161.397 91.7635C161.311 87.4577 161.224 83.152 161.14 78.8463C160.951 75.7997 159.149 73.1175 156.477 71.9475C153.263 70.5406 149.322 71.5507 146.981 74.4941C145.135 78.0325 143.29 81.571 141.445 85.1095Z" fill="#84DBEF"/>
<path d="M110.423 161.23C116.271 158.171 124.193 153.005 131.311 144.46C136.968 137.669 140.391 130.819 142.499 125.404C143.623 122.512 143.078 119.251 141.083 116.972C138.857 114.429 135.199 113.535 131.937 114.758C120.967 126.841 110 138.924 99.0309 151.005L110.423 161.23Z" fill="#FF9292"/>
<path d="M90.8074 158.969C92.2057 160.173 93.2983 160.371 94.0329 160.332C95.0709 160.278 95.4512 159.75 96.5784 159.851C97.7964 159.96 97.8349 160.622 98.96 160.763C100.553 160.967 101.026 159.707 102.53 159.92C103.741 160.09 103.638 160.936 104.99 161.282C106.461 161.659 107.006 160.765 108.983 160.863C110.372 160.93 110.698 161.4 111.7 161.547C112.973 161.733 114.852 161.331 117.478 158.667C119.371 156.673 121.261 154.679 123.15 152.685C116.344 150.768 109.536 148.849 102.728 146.931C98.6767 146.439 94.741 148.066 92.5152 151.203C90.1821 154.497 90.6739 158.13 90.8074 158.969Z" fill="#FF9292"/>
<path d="M75.1781 223.4C79.2534 225.402 83.3266 227.404 87.4019 229.405C88.6666 229.724 93.962 230.901 98.7435 227.892C104.15 224.488 106.692 217.118 104.627 209.801C96.6007 210.64 88.5715 211.479 80.5444 212.317C78.7556 216.011 76.9669 219.706 75.1781 223.4Z" fill="white"/>
<path d="M87.3999 229.659C87.2522 229.654 87.1429 229.538 87.147 229.398L87.6791 212.956C87.6832 212.821 87.7965 212.711 87.9321 212.711C88.0798 212.716 88.189 212.833 88.1851 212.973L87.6528 229.414C87.6508 229.552 87.5375 229.659 87.3999 229.659Z" fill="white"/>
<path d="M29.1542 150.027L48.2659 150.053C48.531 142.47 48.7961 134.887 49.0612 127.304C42.4363 127.296 35.8114 127.286 29.1846 127.278C29.1744 134.858 29.1643 142.444 29.1542 150.027Z" fill="white"/>
<path d="M186.963 144.796L195.571 141.535C196.186 141.302 196.497 140.608 196.264 139.995L196.146 139.677C195.913 139.061 195.219 138.75 194.605 138.983L185.998 142.243C185.382 142.476 185.071 143.171 185.304 143.784L185.423 144.102C185.653 144.717 186.348 145.029 186.963 144.796Z" fill="#FF2468"/>
<path d="M161.101 128.088L167.6 134.607C168.064 135.073 168.825 135.073 169.29 134.61L169.531 134.371C169.996 133.907 169.998 133.146 169.533 132.681L163.033 126.16C162.57 125.694 161.809 125.694 161.344 126.158L161.103 126.399C160.638 126.861 160.636 127.621 161.101 128.088Z" fill="#FF2468"/>
<path d="M178.333 121.91L181.461 113.25C181.685 112.63 181.362 111.942 180.743 111.719L180.424 111.603C179.806 111.381 179.116 111.703 178.894 112.322L175.765 120.982C175.542 121.6 175.864 122.29 176.483 122.512L176.803 122.628C177.423 122.851 178.11 122.527 178.333 121.91Z" fill="#FF2468"/>
<path d="M166.832 104.233L158.175 101.104C157.558 100.879 156.868 101.203 156.645 101.822L156.53 102.142C156.307 102.761 156.629 103.449 157.248 103.673L165.904 106.804C166.522 107.027 167.212 106.704 167.434 106.086L167.55 105.765C167.773 105.146 167.448 104.457 166.832 104.233Z" fill="#FF2468"/>
<path d="M162.201 159.551L169.872 154.462C170.421 154.097 170.57 153.352 170.209 152.805L170.021 152.521C169.656 151.972 168.911 151.823 168.363 152.185L160.692 157.273C160.144 157.638 159.994 158.383 160.356 158.932L160.544 159.216C160.909 159.763 161.654 159.916 162.201 159.551Z" fill="#FF2468"/>
<path d="M136.917 51.6293C137.08 50.2265 138.235 49.2083 139.498 49.356C140.761 49.5038 141.654 50.7589 141.489 52.1618C141.326 53.5646 140.171 54.5829 138.908 54.4351C137.645 54.2893 136.754 53.0322 136.917 51.6293Z" fill="#FF9292"/>
<path d="M73.448 149.913C74.0286 149.911 74.6095 149.911 75.1902 149.909C77.5678 139.371 79.9454 128.833 82.3209 118.294L80.6637 117.92C78.2578 128.584 75.8519 139.249 73.448 149.913Z" fill="#232996"/>
<path d="M81.4225 146.055C77.8835 146.576 74.3444 147.098 70.8053 147.618C70.6435 147.566 69.2574 147.09 68.7576 145.648C68.365 144.513 68.6767 143.223 69.5589 142.337C72.9199 141.249 76.2809 140.161 79.6419 139.073C80.2368 141.402 80.8296 143.729 81.4225 146.055Z" fill="#FF9292"/>
<path d="M102.73 147.435C102.609 147.435 102.487 147.391 102.389 147.304C102.181 147.114 102.167 146.796 102.354 146.59L127.785 118.575C127.975 118.367 128.295 118.357 128.499 118.538C128.707 118.73 128.721 119.047 128.536 119.255L103.104 147.27C103.003 147.382 102.868 147.435 102.73 147.435Z" fill="#F25353"/>
<path d="M128.161 119.422C128.096 119.422 128.032 119.409 127.965 119.381C127.708 119.273 127.584 118.979 127.693 118.719L137.964 94.1378C138.074 93.8786 138.363 93.7533 138.626 93.8666C138.883 93.9739 139.006 94.2694 138.898 94.5285L128.626 119.11C128.546 119.306 128.359 119.422 128.161 119.422Z" fill="#F25353"/>
<path d="M94.3688 149.739C94.2028 149.739 94.041 149.658 93.9439 149.509C93.7921 149.274 93.8588 148.962 94.0936 148.808C95.1013 148.158 96.1798 147.618 97.3008 147.203C98.351 146.817 99.4457 146.535 100.561 146.367C100.854 146.321 101.095 146.517 101.136 146.792C101.177 147.07 100.987 147.327 100.71 147.367C99.6645 147.525 98.6363 147.788 97.6509 148.152C96.5966 148.541 95.5849 149.047 94.6419 149.658C94.559 149.713 94.4639 149.739 94.3688 149.739Z" fill="#F25353"/>
<path d="M73.4461 147.176C71.6067 147.176 70.079 146.304 69.7795 145.065C69.4619 143.735 70.6841 142.551 71.3437 141.914C72.2259 141.059 73.3611 140.454 74.6238 140.167C74.8949 140.112 75.1701 140.276 75.2307 140.547C75.2915 140.82 75.1216 141.092 74.8504 141.155C73.7679 141.4 72.7986 141.916 72.0478 142.64C71.5359 143.136 70.5809 144.059 70.7649 144.827C70.9309 145.517 72.0641 146.227 73.5816 146.16C73.9196 146.174 74.0956 146.373 74.1017 146.653C74.1098 146.931 73.8893 147.164 73.61 147.172C73.5553 147.176 73.4988 147.176 73.4461 147.176Z" fill="#F25353"/>
<path d="M141.761 57.2915C141.761 58.7914 141.514 60.5769 140.734 62.4757C140.032 64.1842 139.084 65.4939 138.229 66.4251C138.211 66.3482 138.192 66.2914 138.173 66.2348C138.06 65.836 137.945 65.3987 137.831 65C137.376 63.253 136.959 61.583 136.635 60.2712C136.578 60.1579 136.522 60.0061 136.522 59.8724C136.388 59.4352 136.256 59.0566 136.18 58.6578L138.458 56.3785L139.996 54.9169C140.034 55.0302 140.13 55.0303 140.148 55.1072C140.469 55.4675 140.736 55.8481 141.097 56.1902C141.115 56.2287 141.115 56.2671 141.192 56.342C141.383 56.7023 141.571 56.9878 141.761 57.2915Z" fill="#FC6565"/>
<path d="M142.185 51.1051C143.468 57.4838 140.473 63.4797 135.569 64.4292C131.421 65.2571 127.214 62.2672 125.253 57.5222C124.884 56.6417 124.57 55.6862 124.374 54.678C124.364 54.6153 124.193 53.5405 124.193 53.5405C123.889 50.8319 124.256 48.2752 125.247 46.1699C126.425 43.6132 128.462 41.7609 131.008 41.2549L131.546 41.1678C135.838 40.6416 140.097 44.1416 141.748 49.3907C141.936 49.9453 142.058 50.51 142.185 51.1051Z" fill="#FF9292"/>
<path d="M128.464 60.9209C128.017 60.678 127.569 60.4331 127.122 60.1902C125.955 59.3481 124.788 58.506 123.62 57.6659C123.552 57.4897 123.487 57.2347 123.594 57.0079C123.78 56.6113 124.376 56.5364 124.615 56.5019C125.28 56.4027 126.263 56.1294 127.71 55.3845C127.961 57.2287 128.211 59.0748 128.464 60.9209Z" fill="#FF9292"/>
<path d="M132.359 58.4736C133.016 60.417 132.273 62.1032 131.303 62.3846C130.411 62.6437 129.458 61.6761 129.363 61.5789C129.826 61.2914 130.393 60.8805 130.968 60.2975C131.607 59.6498 132.056 58.9979 132.359 58.4736Z" fill="white"/>
<path d="M127.626 53.7894C127.514 53.7894 127.4 53.753 127.307 53.674L125.631 52.2994C125.415 52.1214 125.382 51.8035 125.561 51.5869C125.739 51.3724 126.059 51.3379 126.273 51.5161L127.948 52.8906C128.165 53.0687 128.197 53.3865 128.019 53.6032C127.918 53.7267 127.775 53.7894 127.626 53.7894Z" fill="#232996"/>
<path d="M129.126 53.1011C128.995 53.1011 128.863 53.0505 128.762 52.9473L127.279 51.419C127.085 51.2185 127.088 50.8987 127.291 50.7024C127.491 50.5079 127.811 50.5141 128.007 50.7145L129.491 52.2428C129.685 52.4432 129.68 52.7631 129.478 52.9594C129.381 53.0525 129.252 53.1011 129.126 53.1011Z" fill="#232996"/>
<path d="M128.268 57.1781C128.003 57.1781 127.781 56.9715 127.764 56.7064L127.687 55.5303C127.667 55.2509 127.879 55.0101 128.157 54.9919C128.491 54.9372 128.679 55.1862 128.695 55.4615L128.772 56.6376C128.793 56.917 128.579 57.1579 128.303 57.1761C128.291 57.1781 128.279 57.1781 128.268 57.1781Z" fill="#232996"/>
<path d="M130.192 56.6963C129.992 56.6963 129.806 56.5768 129.723 56.3825L129.296 55.3379C129.191 55.0788 129.315 54.7854 129.573 54.678C129.836 54.5707 130.125 54.6982 130.233 54.9554L130.66 55.9999C130.765 56.259 130.642 56.5525 130.382 56.6599C130.319 56.6841 130.255 56.6963 130.192 56.6963Z" fill="#232996"/>
<path d="M125.912 54.7509C126.034 55.1862 126.612 55.4108 127.25 55.504C127.72 55.5849 128.218 55.5769 128.577 55.512L128.778 55.4756C128.897 55.4534 129.019 55.4311 129.132 55.3703C130.127 55.1477 131.227 54.5748 131.214 53.8319C131.247 53.3279 130.823 52.8258 130.223 52.4776C129.75 52.1497 129.144 52.01 128.568 52.0323C128.319 52.0363 128.118 52.0728 127.885 52.1558C127.845 52.1639 127.612 52.2469 127.612 52.2469C126.726 52.6153 126.081 53.3966 125.917 54.089C125.84 54.348 125.836 54.5566 125.912 54.7509Z" fill="white"/>
<path d="M132.139 56.4797C132.576 57.6922 133.914 58.3178 135.126 57.8805C136.338 57.4433 136.962 56.1052 136.526 54.8926C136.089 53.68 134.751 53.0546 133.539 53.4918C132.327 53.9311 131.7 55.2691 132.139 56.4797Z" fill="#FC6565"/>
<path d="M125.912 54.751C126.034 55.1862 126.612 55.4109 127.25 55.504C127.72 55.585 128.218 55.5769 128.577 55.5121L128.778 55.4756C128.897 55.4534 129.019 55.4311 129.132 55.3704C129.328 55.0849 129.399 54.7833 129.34 54.4615C129.195 53.6599 128.268 53.1234 127.226 53.3117C126.665 53.4129 126.18 53.7084 125.917 54.0891C125.84 54.3481 125.836 54.5567 125.912 54.751Z" fill="#232996"/>
<path d="M174.638 188.26C174.483 188.26 174.326 188.187 174.228 188.049C174.065 187.823 174.116 187.505 174.344 187.343L178.76 184.175C178.982 184.015 179.3 184.059 179.466 184.292C179.628 184.519 179.577 184.837 179.349 184.999L174.934 188.166C174.842 188.227 174.742 188.26 174.638 188.26Z" fill="#F25353"/>
<path d="M156.236 209.854C156.182 209.854 156.123 209.843 156.068 209.825C154.486 209.268 151.494 207.855 149.266 204.645C147.102 201.527 146.783 198.318 146.785 196.685C146.785 196.404 147.012 196.179 147.291 196.179C147.571 196.179 147.797 196.406 147.797 196.685C147.795 198.201 148.089 201.177 150.095 204.066C152.163 207.041 154.936 208.351 156.405 208.866C156.668 208.958 156.805 209.248 156.713 209.511C156.641 209.723 156.447 209.854 156.236 209.854Z" fill="#F25353"/>
<path d="M243.531 121.602H233.226C232.675 120.424 232.143 119.247 231.613 118.051C231.538 119.247 231.48 120.424 231.443 121.602H222.39C221.952 120.215 221.516 118.81 221.081 117.405C220.911 118.81 220.739 120.197 220.587 121.602H192.098C186.556 111.937 181.489 103.677 177.274 97.0124C177.274 96.9942 160.363 70.2389 152.922 72.2328C152.637 72.3077 151.613 72.2146 150.34 72.6134C147.353 73.5486 144.886 70.7774 144.286 70.2976C141.2 67.832 140.367 64.2895 140.024 62.7469C138.855 57.4615 141.15 55.34 139.669 52.6193C138.79 51.0059 136.589 49.1922 130.525 48.8218C129.244 49.3177 127.198 49.8986 124.678 49.7711C123.56 49.7145 122.572 49.5241 121.754 49.2975C120.806 47.9877 120.71 46.259 121.528 44.9493C122.458 43.4108 124.45 42.7083 126.273 43.3541C127.659 41.2265 130.107 38.265 133.769 37.4289C141.248 35.7204 143.867 46.1436 159.714 53.5688C166.358 56.6822 170.837 57.1963 176.074 62.342C178.618 64.8299 179.208 66.3097 181.959 67.7146C187.938 70.7713 192.285 67.3927 195.548 70.4292C198.7 73.3725 196.441 77.5689 199.571 79.6762C202.987 81.992 206.916 77.6073 211.188 79.7895C215.003 81.745 213.256 85.903 217.602 88.6945C221.38 91.1256 225.308 89.662 226.979 92.6054C227.511 93.5548 227.283 94.0306 227.568 95.8139C227.568 95.8139 228.27 100.808 231.611 104.606C235.217 108.707 239.373 107.245 242.22 110.644C243.645 112.375 244.841 115.488 243.531 121.602Z" fill="#FF2468"/>
<path d="M245.304 121.838C245.269 121.838 245.235 121.834 245.2 121.828C244.925 121.771 244.751 121.502 244.808 121.229C246.04 115.32 245.532 111.148 243.301 108.827C242.064 107.541 240.646 107.082 239.006 106.549C237.031 105.909 234.798 105.182 232.675 102.769C229.272 98.903 228.54 93.9253 228.509 93.7148C228.403 93.0569 228.369 92.569 228.337 92.1682C228.291 91.5163 228.264 91.1884 227.981 90.6823C227.179 89.2714 225.743 89.0163 223.921 88.6945C222.344 88.4131 220.555 88.0973 218.772 86.9495C216.415 85.4373 215.733 83.5265 215.13 81.8423C214.575 80.2835 214.094 78.9394 212.398 78.073C210.421 77.0628 208.473 77.5993 206.591 78.1135C204.635 78.6519 202.615 79.2067 200.73 77.9253C198.965 76.737 198.731 74.9494 198.505 73.2227C198.292 71.6215 198.076 69.9657 196.645 68.6276C195.183 67.2652 193.461 67.3219 191.298 67.413C188.958 67.5001 186.308 67.5993 183.173 65.996C181.224 65.0021 180.302 63.9575 179.134 62.6357C178.592 62.0222 177.976 61.326 177.166 60.5345C172.995 56.4534 168.853 54.8745 161.334 52.0081L160.977 51.8724C157.297 50.4695 153.527 49.0222 149.613 47.5202C144.365 45.5039 138.859 43.3886 132.967 41.1517C132.706 41.0525 132.574 40.761 132.673 40.4999C132.772 40.2387 133.063 40.1031 133.324 40.2064C139.217 42.4432 144.727 44.5586 149.976 46.5748C153.889 48.0768 157.657 49.5242 161.336 50.9271L161.691 51.0606C169.338 53.9756 173.549 55.5809 177.872 59.8097C178.708 60.6255 179.337 61.3381 179.889 61.9636C181.03 63.255 181.854 64.1863 183.631 65.0931C186.534 66.5769 189.041 66.4838 191.259 66.4008C193.471 66.3178 195.565 66.241 197.335 67.8887C199.033 69.4717 199.286 71.3948 199.506 73.0891C199.723 74.7329 199.909 76.1519 201.299 77.0871C202.807 78.1074 204.435 77.658 206.324 77.1377C208.299 76.5932 210.533 75.9818 212.863 77.1701C214.915 78.2227 215.511 79.8888 216.085 81.5022C216.66 83.1095 217.252 84.7714 219.32 86.0994C220.933 87.1358 222.617 87.4334 224.1 87.6985C226.016 88.0366 227.827 88.3584 228.863 90.1864C229.256 90.8909 229.294 91.3949 229.346 92.0913C229.375 92.4699 229.409 92.9314 229.511 93.5649C229.519 93.6216 230.235 98.4679 233.432 102.102C235.37 104.306 237.376 104.955 239.316 105.588C241.012 106.138 242.615 106.658 244.025 108.123C246.508 110.703 247.103 115.181 245.798 121.436C245.747 121.675 245.539 121.838 245.304 121.838Z" fill="#FF2468"/>
<path d="M141.422 51.3441C141.422 52.8461 140.324 54.0647 138.97 54.0647C137.617 54.0647 136.517 52.8461 136.517 51.3441C136.517 49.842 137.615 48.6234 138.97 48.6234C140.324 48.6234 141.422 49.842 141.422 51.3441Z" fill="#FF9292"/>
<path d="M14.6581 227.627C38.9054 228.219 63.1526 228.813 87.4 229.405C87.9464 202.896 88.4906 176.383 89.035 149.873C67.2056 149.927 45.3765 149.984 23.5472 150.041C20.5849 175.903 17.6225 201.764 14.6581 227.627Z" fill="#FF2468"/>
<path d="M235.579 295.955H229.349C228.93 295.955 228.59 295.614 228.59 295.196C228.59 294.777 228.93 294.437 229.349 294.437H235.579C235.998 294.437 236.338 294.777 236.338 295.196C236.338 295.614 235.998 295.955 235.579 295.955Z" fill="#232996"/>
<path d="M224.841 295.955H221.281C220.862 295.955 220.522 295.614 220.522 295.196C220.522 294.777 220.862 294.437 221.281 294.437H224.841C225.259 294.437 225.6 294.777 225.6 295.196C225.6 295.614 225.259 295.955 224.841 295.955Z" fill="#232996"/>
<path d="M215.589 295.955H17.2077C16.7889 295.955 16.4489 295.614 16.4489 295.196C16.4489 294.777 16.7889 294.437 17.2077 294.437H215.589C216.008 294.437 216.348 294.777 216.348 295.196C216.348 295.614 216.008 295.955 215.589 295.955Z" fill="#232996"/>
<path d="M10.4067 295.955H8.03322C7.61436 295.955 7.27441 295.614 7.27441 295.196C7.27441 294.777 7.61436 294.437 8.03322 294.437H10.4067C10.8256 294.437 11.1655 294.777 11.1655 295.196C11.1655 295.614 10.8256 295.955 10.4067 295.955Z" fill="#232996"/>
<path d="M4.39696 295.955H0.758803C0.339944 295.955 0 295.614 0 295.196C0 294.777 0.339944 294.437 0.758803 294.437H4.39696C4.81581 294.437 5.15576 294.777 5.15576 295.196C5.15576 295.614 4.81581 295.955 4.39696 295.955Z" fill="#232996"/>
<path d="M183.845 172.213C183.179 174.04 182.513 175.865 181.848 177.693C173.232 174.806 164.596 171.92 155.978 169.015C165.267 170.082 174.555 171.146 183.845 172.213Z" fill="#FC6565"/>
</g>
<defs>
<clipPath id="clip0_26_524">
<rect width="247" height="297" fill="white"/>
</clipPath>
</defs>
</svg>
