<svg width="271" height="299" viewBox="0 0 271 299" fill="none" xmlns="http://www.w3.org/2000/svg">
<g clip-path="url(#clip0_28_705)">
<path d="M145.989 146.539C143.029 146.291 141.075 144.838 140.173 144.1C143.907 144.984 147.714 142.736 148.509 139.822C149.118 137.586 147.881 135.078 145.38 133.885C147.052 132.751 148.832 131.564 150.583 130.46L154.646 127.793C155.51 127.3 156.369 126.769 157.229 126.237C159.659 124.7 161.771 123.395 163.571 122.361C163.643 122.314 163.714 122.265 163.785 122.218C164.683 121.682 165.398 121.245 166.196 120.838C171.513 117.708 173.701 116.702 173.701 116.702C176.564 115.226 180.684 113.324 185.928 111.477C186.44 111.875 190.306 114.749 190.058 119.564C189.861 124.178 185.912 128.682 180.335 130.342C179.028 131.007 177.696 131.751 176.357 132.458C176.172 132.519 175.997 132.657 175.81 132.718C174.941 133.173 174.112 133.625 173.246 134.117C172.738 134.373 172.235 134.667 171.804 134.913L171.694 134.966C171.404 135.119 171.115 135.269 170.788 135.425C170.575 135.568 170.319 135.677 170.099 135.781C168.59 136.663 167.033 137.474 165.514 138.281C164.612 138.779 163.744 139.234 162.842 139.732L159.482 141.539C159.443 141.543 159.411 141.586 159.376 141.629C158.509 142.084 157.635 142.501 156.808 142.99C155.37 143.826 154.553 144.391 152.507 145.301C151.633 145.72 149.069 146.812 145.989 146.539Z" fill="#FF9292"/>
<path d="M13.5147 119.155C12.3627 119.155 11.2108 119.155 10.0588 119.155C10.5302 116.663 10.9995 114.174 11.4708 111.682C12.1514 114.174 12.832 116.663 13.5147 119.155Z" fill="white"/>
<path d="M13.5147 119.155C12.3627 119.155 11.2108 119.155 10.0588 119.155C10.5302 121.647 10.9995 124.137 11.4708 126.629C12.1514 124.137 12.832 121.647 13.5147 119.155Z" fill="white"/>
<path d="M11.4972 117.426C11.4972 118.578 11.4972 119.731 11.4972 120.883C9.63015 120.411 7.76102 119.942 5.89392 119.47C7.76102 118.789 9.62812 118.109 11.4972 117.426Z" fill="white"/>
<path d="M11.4972 117.426C11.4972 118.578 11.4972 119.731 11.4972 120.883C13.3643 120.411 15.2314 119.942 17.1006 119.47C15.2314 118.789 13.3643 118.109 11.4972 117.426Z" fill="white"/>
<path d="M101.833 153.19C100.681 153.19 99.5294 153.19 98.3774 153.19C98.8488 150.698 99.3181 148.208 99.7895 145.716C100.47 148.208 101.151 150.7 101.833 153.19Z" fill="white"/>
<path d="M101.833 153.19C100.681 153.19 99.5294 153.19 98.3774 153.19C98.8488 155.681 99.3181 158.171 99.7895 160.663C100.47 158.173 101.151 155.681 101.833 153.19Z" fill="white"/>
<path d="M99.8159 151.462C99.8159 152.614 99.8159 153.767 99.8159 154.919C97.9488 154.448 96.0817 153.978 94.2125 153.507C96.0796 152.824 97.9488 152.143 99.8159 151.462Z" fill="white"/>
<path d="M99.8158 151.462C99.8158 152.614 99.8158 153.767 99.8158 154.919C101.683 154.448 103.552 153.978 105.419 153.507C103.55 152.824 101.683 152.143 99.8158 151.462Z" fill="white"/>
<path d="M247.361 67.9831C246.21 67.9831 245.058 67.9831 243.906 67.9831C244.377 65.4912 244.846 63.0014 245.318 60.5096C246 63.0014 246.681 65.4912 247.361 67.9831Z" fill="white"/>
<path d="M247.361 67.9832C246.21 67.9832 245.058 67.9832 243.906 67.9832C244.377 70.475 244.846 72.9647 245.318 75.4566C246 72.9647 246.681 70.475 247.361 67.9832Z" fill="white"/>
<path d="M245.344 66.2534C245.344 67.4058 245.344 68.5583 245.344 69.7107C243.477 69.2392 241.61 68.7697 239.741 68.2981C241.61 67.6172 243.477 66.9363 245.344 66.2534Z" fill="white"/>
<path d="M245.344 66.2534C245.344 67.4058 245.344 68.5583 245.344 69.7107C247.211 69.2392 249.078 68.7697 250.947 68.2981C249.08 67.6172 247.213 66.9363 245.344 66.2534Z" fill="white"/>
<path d="M255.543 112.521C253.105 112.521 250.667 112.521 248.227 112.521C249.223 107.249 250.22 101.977 251.216 96.7064C252.658 101.979 254.101 107.251 255.543 112.521Z" fill="#FF2468"/>
<path d="M255.543 112.521C253.105 112.521 250.667 112.521 248.227 112.521C249.223 117.794 250.22 123.066 251.216 128.336C252.658 123.066 254.101 117.794 255.543 112.521Z" fill="#FF2468"/>
<path d="M251.275 108.863C251.275 111.302 251.275 113.741 251.275 116.182C247.323 115.186 243.369 114.188 239.418 113.192C243.369 111.749 247.321 110.306 251.275 108.863Z" fill="#FF2468"/>
<path d="M251.275 108.863C251.275 111.302 251.275 113.741 251.275 116.182C255.226 115.186 259.18 114.188 263.131 113.192C259.178 111.749 255.226 110.306 251.275 108.863Z" fill="#FF2468"/>
<path d="M34.7923 21.5018C33.2056 21.5018 31.6209 21.5018 30.0342 21.5018C30.6823 18.073 31.3304 14.6442 31.9785 11.2133C32.9171 14.6421 33.8557 18.073 34.7923 21.5018Z" fill="white"/>
<path d="M34.7923 21.5018C33.2056 21.5018 31.6209 21.5018 30.0342 21.5018C30.6823 24.9307 31.3304 28.3595 31.9785 31.7903C32.9171 28.3595 33.8557 24.9307 34.7923 21.5018Z" fill="white"/>
<path d="M32.015 19.1218C32.015 20.7091 32.015 22.2945 32.015 23.8819C29.445 23.2335 26.8729 22.5851 24.3029 21.9368C26.8749 20.9978 29.445 20.0608 32.015 19.1218Z" fill="white"/>
<path d="M32.015 19.1218C32.015 20.7091 32.015 22.2945 32.015 23.8819C34.5851 23.2335 37.1572 22.5851 39.7273 21.9368C37.1572 20.9978 34.5871 20.0608 32.015 19.1218Z" fill="white"/>
<path d="M129.47 221.368V181.612H94.5985C95.1329 179.874 95.5046 178.065 95.5046 176.153C95.5046 165.852 87.1565 157.5 76.86 157.5C66.5635 157.5 58.2155 165.852 58.2155 176.153C58.2155 178.065 58.5872 179.874 59.1216 181.612H24.2419V222.171C22.6125 221.705 20.9282 221.378 19.1505 221.378C8.85404 221.378 0.505981 229.729 0.505981 240.03C0.505981 250.331 8.85404 258.682 19.1505 258.682C20.9282 258.682 22.6125 258.353 24.2419 257.89V298.43H129.468V258.674C119.169 258.674 110.823 250.325 110.823 240.022C110.825 229.717 119.172 221.368 129.47 221.368Z" fill="#232996"/>
<path d="M247.549 221.368V181.612H142.322V222.169C140.695 221.705 139.011 221.376 137.235 221.376C126.939 221.376 118.59 229.727 118.59 240.028C118.59 250.329 126.939 258.68 137.235 258.68C139.011 258.68 140.695 258.353 142.322 257.888V298.426H176.308C176.308 288.123 184.654 279.774 194.953 279.774C205.251 279.774 213.597 288.123 213.597 298.426H247.549V258.67C237.25 258.67 228.904 250.321 228.904 240.018C228.904 229.717 237.25 221.368 247.549 221.368Z" fill="#FF2468"/>
<path d="M109.491 50.3633C110.332 49.4284 111.1 48.4121 111.679 47.2272C115.041 40.3573 112.199 32.0627 105.332 28.6989C98.4647 25.3351 90.1735 28.1786 86.8111 35.0484C86.2321 36.2334 85.901 37.4631 85.6775 38.7008L58.6542 25.4652L47.8255 47.5951C46.253 46.9447 44.5362 46.5768 42.7301 46.5768C35.3571 46.5768 29.378 52.5564 29.378 59.9344C29.378 64.8998 32.1166 69.1822 36.1353 71.483L24.3008 95.6678L50.8019 108.647C54.1643 101.775 62.4535 98.934 69.3225 102.298C76.1916 105.662 79.0318 113.954 75.6694 120.826L102.171 133.806L136.524 63.603L109.491 50.3633Z" fill="white"/>
<path d="M270.421 298.948H264.499C264.218 298.948 263.991 298.721 263.991 298.44C263.991 298.16 264.218 297.932 264.499 297.932H270.421C270.701 297.932 270.929 298.16 270.929 298.44C270.929 298.721 270.701 298.948 270.421 298.948Z" fill="white"/>
<path d="M259.316 298.948H254.135C253.855 298.948 253.627 298.721 253.627 298.44C253.627 298.16 253.855 297.932 254.135 297.932H259.316C259.596 297.932 259.824 298.16 259.824 298.44C259.824 298.721 259.596 298.948 259.316 298.948Z" fill="white"/>
<path d="M241.697 298.948H12.7386C12.4583 298.948 12.2307 298.721 12.2307 298.44C12.2307 298.16 12.4583 297.932 12.7386 297.932H241.697C241.978 297.932 242.205 298.16 242.205 298.44C242.205 298.721 241.978 298.948 241.697 298.948Z" fill="white"/>
<path d="M9.6302 298.948H6.07676C5.79639 298.948 5.56885 298.721 5.56885 298.44C5.56885 298.16 5.79639 297.932 6.07676 297.932H9.6302C9.91057 297.932 10.1381 298.16 10.1381 298.44C10.1381 298.721 9.91057 298.948 9.6302 298.948Z" fill="white"/>
<path d="M3.29334 298.948H0.507917C0.227547 298.948 0 298.721 0 298.44C0 298.16 0.227547 297.932 0.507917 297.932H3.29334C3.57371 297.932 3.80125 298.16 3.80125 298.44C3.80125 298.721 3.57167 298.948 3.29334 298.948Z" fill="white"/>
<path d="M214.402 170.197C205.182 171.269 195.96 172.303 186.741 173.374C185.784 169.24 184.713 164.992 183.565 160.628C183.527 160.476 183.488 160.36 183.413 160.208C182.801 150.907 181.424 143.557 180.237 138.543C178.132 129.472 176.525 127.021 177.864 122.43C179.319 117.109 184.024 111.176 190.414 108.995C190.834 108.842 191.255 108.727 191.714 108.613C192.173 108.497 192.519 108.422 192.785 108.383C201.05 108.306 207.974 111.062 209.581 111.712C210.997 128.706 212.374 145.777 213.79 162.773C213.829 163.309 213.867 163.883 213.943 164.419C214.095 166.332 214.247 168.244 214.402 170.197Z" fill="#FF9292"/>
<path d="M206.793 181.049L205.944 181.041L203.561 180.992L195.148 180.83L193.443 180.781L188.435 180.685C188.431 180.655 173.842 180.368 173.842 180.368L169.687 180.311L162.025 180.141C161.979 180.147 160.544 180.124 160.544 180.124C157.735 175.935 154.923 171.746 152.113 167.557C154.986 163.773 164.254 156.269 164.254 156.269L164.754 156.279L165.13 156.287H165.808L170.404 156.377L170.721 156.395L171.914 156.419L172.933 156.435L174.226 156.478L178.768 156.543L180.012 156.592C180.036 156.588 181.18 156.62 181.18 156.62L182.466 156.633L183.829 156.665L189.569 156.787L190.613 156.799L192.513 156.852L196.696 156.937L197.399 156.935L198.762 156.968L203.23 157.013L205.322 157.07L205.664 157.086C210.605 157.106 218.467 160.46 217.199 166.122C215.901 171.923 216.763 177.588 217.427 178.502C216.765 179.362 215.468 180.787 213.475 181.539C210.408 182.703 207.708 181.51 206.793 181.049Z" fill="#FF9292"/>
<path d="M167.088 184.801L166.658 185.671L163.925 191.313L163.704 191.819L162.554 194.15L157.255 205.278L157.056 205.719L155.894 208.083L154.764 210.459L153.775 212.557L152.928 214.266L147.84 224.92L147.745 225.179L146.77 227.134C146.802 227.146 145.569 229.705 145.569 229.705L145 230.855L144.407 232.069L141.823 237.51L141.018 239.197L119.342 228.843L121.681 223.973L125.289 216.447L144.508 176.206L145.348 174.421C145.392 174.401 158.438 180.665 158.438 180.665L161.008 181.866L166.627 184.555L167.088 184.801Z" fill="#FF9292"/>
<path d="M145.709 170.958C145.224 172.073 144.892 173.285 144.71 174.51C144.129 178.37 145.224 182.541 148.013 185.927C152.95 191.968 161.477 193.197 167.283 188.785C167.478 188.667 167.629 188.569 167.791 188.439C168.185 188.09 168.582 187.74 168.943 187.378C169.374 186.927 169.774 186.466 170.103 185.978C170.8 185.014 171.361 184.004 171.755 182.931L171.903 182.529C172.027 182.193 172.117 181.846 172.206 181.498C172.614 179.974 172.74 178.382 172.564 176.795C172.466 175.504 172.178 174.218 171.731 172.949C171.168 171.372 170.343 169.889 169.209 168.521C168.013 167.015 166.546 165.828 164.967 164.943C164.912 164.887 164.813 164.848 164.711 164.811C162.21 163.435 159.38 162.852 156.627 163.096C156.243 163.108 155.845 163.151 155.484 163.208C153.893 163.498 152.349 164.074 150.935 164.923C150.406 165.224 149.886 165.604 149.399 165.996C148.297 166.923 147.371 167.992 146.636 169.169C146.577 169.224 146.552 169.291 146.528 169.358L146.071 170.293L145.709 170.958Z" fill="#FF9292"/>
<path d="M217.299 182.035C206.017 182.208 194.735 182.378 183.453 182.549C180.627 175.573 177.801 168.598 174.975 161.622C178.145 161.208 181.499 160.893 185.024 160.726C195.938 160.208 205.658 161.226 213.788 162.769C214.944 164.116 217.492 167.458 218.256 172.49C218.92 176.874 217.906 180.37 217.299 182.035Z" fill="#232996"/>
<path d="M184.849 173.37L185.262 174.248L187.974 179.903L188.232 180.393L189.339 182.744L194.743 193.821L194.965 194.252L196.09 196.634L197.244 198.998L198.268 201.079L199.077 202.807L204.241 213.425L204.384 213.66L205.306 215.642C205.334 215.624 206.568 218.183 206.568 218.183L207.112 219.343L207.693 220.563L210.338 225.975L211.157 227.656C212.242 231.073 213.327 234.49 214.412 237.906C206.127 237.996 197.844 238.085 189.559 238.174C188.774 236.553 187.99 234.933 187.206 233.311L183.567 225.801L164.065 185.695L163.192 183.927C163.204 183.88 176.227 177.569 176.227 177.569L178.766 176.307C180.796 175.328 182.824 174.35 184.849 173.37Z" fill="#FF9292"/>
<path d="M160.707 181.484C161.278 182.559 162.017 183.571 162.862 184.48C165.52 187.338 169.463 189.079 173.848 189.004C181.645 188.903 187.919 182.994 188.084 175.699C188.112 175.472 188.13 175.295 188.128 175.086C188.1 174.559 188.073 174.031 188.015 173.523C187.931 172.905 187.817 172.303 187.643 171.742C187.324 170.598 186.883 169.529 186.288 168.551L186.064 168.185C185.879 167.88 185.662 167.594 185.447 167.307C184.508 166.039 183.344 164.948 181.991 164.098C180.92 163.368 179.735 162.793 178.464 162.354C176.881 161.811 175.207 161.535 173.429 161.57C171.505 161.57 169.665 161.978 167.99 162.663C167.911 162.669 167.82 162.726 167.728 162.781C165.095 163.88 162.877 165.734 161.353 168.041C161.121 168.348 160.91 168.687 160.727 169.006C159.963 170.433 159.453 171.998 159.236 173.636C159.141 174.238 159.114 174.88 159.118 175.506C159.157 176.945 159.417 178.336 159.878 179.645C159.884 179.724 159.921 179.785 159.959 179.846L160.406 180.787L160.707 181.484Z" fill="#FF9292"/>
<path d="M223.049 163.423C220.332 163.883 217.309 164.265 213.943 164.419C211.456 164.572 208.74 164.649 205.907 164.533C196.801 164.189 189.187 162.389 183.563 160.628C183.525 160.476 183.486 160.36 183.411 160.208C182.799 150.907 181.422 143.558 180.235 138.543C178.13 129.472 176.523 127.021 177.862 122.43C179.317 117.109 184.022 111.176 190.412 108.995C190.832 108.842 191.253 108.727 191.712 108.613C192.171 108.497 192.517 108.422 192.783 108.383C202.578 106.623 210.192 111.178 211.797 112.21C215.55 129.279 219.298 146.35 223.049 163.423Z" fill="#232996"/>
<path d="M166.42 190.527C166.257 190.527 166.097 190.447 165.999 190.303L161.564 183.722C159.537 182.012 158.045 179.962 157.125 177.622C154.266 170.344 158.336 163.537 159.181 162.246C159.336 162.011 159.652 161.946 159.884 162.1C160.12 162.254 160.185 162.567 160.03 162.803C159.234 164.021 155.396 170.437 158.07 177.252C158.935 179.451 160.347 181.38 162.269 182.988C162.308 183.018 162.338 183.055 162.365 183.094L166.838 189.734C166.995 189.966 166.934 190.283 166.702 190.439C166.615 190.5 166.517 190.527 166.42 190.527Z" fill="#F74F4F"/>
<path d="M187.559 179.547C187.381 179.547 187.206 179.451 187.115 179.285L183.009 171.817C182.874 171.571 182.964 171.263 183.21 171.126C183.451 170.992 183.764 171.082 183.898 171.328L188.004 178.795C188.139 179.041 188.051 179.35 187.803 179.486C187.726 179.527 187.643 179.547 187.559 179.547Z" fill="#F74F4F"/>
<path d="M229.625 163.092C228.731 165.927 226.884 167.515 225.968 168.232C227.652 164.783 226.297 160.572 223.63 159.157C221.584 158.072 218.867 158.728 217.153 160.905C216.415 159.025 215.649 157.027 214.956 155.074L213.25 150.521C212.959 149.57 212.63 148.614 212.301 147.659C211.336 144.95 210.53 142.6 209.916 140.616C209.885 140.537 209.855 140.456 209.825 140.377C209.499 139.383 209.231 138.588 209.01 137.72C207.126 131.842 206.627 129.487 206.627 129.487C205.818 126.369 204.869 121.93 204.219 116.403C204.721 115.991 208.374 112.85 213.014 114.151C217.47 115.359 220.993 120.204 221.385 126.011C221.744 127.432 222.177 128.897 222.573 130.358C222.594 130.554 222.689 130.755 222.707 130.948C222.961 131.895 223.217 132.806 223.508 133.757C223.646 134.31 223.823 134.865 223.967 135.34L223.993 135.458C224.077 135.775 224.162 136.09 224.243 136.444C224.335 136.684 224.385 136.958 224.438 137.194C224.967 138.86 225.416 140.56 225.867 142.218C226.153 143.208 226.407 144.155 226.693 145.145L227.715 148.822C227.711 148.86 227.746 148.901 227.78 148.944C228.032 149.891 228.248 150.836 228.542 151.748C229.04 153.336 229.412 154.257 229.849 156.454C230.068 157.405 230.568 160.147 229.625 163.092Z" fill="#FF9292"/>
<path d="M225.899 142.303C220.572 141.742 215.245 141.179 209.918 140.619C209.985 139.549 210.052 138.478 210.081 137.403C214.8 137.098 219.522 136.793 224.245 136.448C224.337 136.688 224.388 136.962 224.44 137.198C224.969 138.864 225.418 140.564 225.869 142.222C225.865 142.261 225.903 142.265 225.899 142.303Z" fill="#FC6565"/>
<path d="M228.778 138.165C222.043 139.123 215.308 140.08 208.571 141.035C206.3 132.781 204.028 124.529 201.757 116.275C202.047 115.47 202.624 114.273 203.789 113.285C206.99 110.57 211.499 112.103 211.799 112.208C213.713 113.241 215.767 114.598 217.779 116.395C226.125 123.846 228.177 133.85 228.778 138.165Z" fill="#232996"/>
<path d="M201.377 111.109C197.62 115.314 193.76 116.109 192.245 114.178C192.003 113.867 191.314 112.834 191.487 110.143V110.04C191.556 110.005 191.59 108.798 191.59 108.729C191.59 108.694 191.59 108.245 191.625 107.452V107.245C191.694 106.279 191.763 104.971 191.798 103.487C191.832 103.038 191.832 102.556 191.867 102.074C191.936 100.005 192.039 97.869 192.143 96.3161C192.143 95.7653 192.178 95.2471 192.212 94.7308L194.865 93.3528C194.9 93.3528 196.657 92.4564 196.657 92.4564C196.692 92.5601 196.761 92.5946 196.761 92.6983C196.934 93.0784 197.072 93.5255 197.277 93.9056C197.312 93.9747 197.312 94.0093 197.346 94.0784C197.519 94.8019 197.692 95.4909 197.862 96.1474C198.208 97.5966 198.551 99.0092 198.931 100.422C199.069 100.973 199.207 101.56 199.345 102.111C199.896 104.42 200.483 106.696 201.034 108.938C201.172 109.627 201.31 110.351 201.377 111.109Z" fill="#FF9292"/>
<path d="M199.38 101.249C199.38 101.56 199.38 101.834 199.345 102.111C198.931 106.42 195.623 109.765 191.489 110.143V110.04C191.558 110.005 191.592 108.798 191.592 108.729C191.592 108.694 191.592 108.245 191.627 107.452V107.245C191.696 106.279 191.765 104.97 191.8 103.487C191.834 103.038 191.834 102.556 191.869 102.074C191.938 100.005 192.041 97.8689 192.145 96.3161C192.145 95.7653 192.179 95.247 192.214 94.7308L194.867 93.3527C196.074 94.0417 197.108 95.0072 197.866 96.1454C198.827 97.5946 199.38 99.3527 199.38 101.249Z" fill="#FC6565"/>
<path d="M204.136 94.9483C202.061 101.111 196.476 104.806 191.755 103.176C187.75 101.82 185.601 97.1291 186.273 92.0418C186.395 91.0946 186.598 90.1109 186.934 89.1414C186.956 89.0825 187.344 88.0642 187.344 88.0642C188.433 85.5683 190.028 83.5378 191.938 82.2106C194.236 80.5866 196.923 80.0013 199.38 80.8346L199.888 81.0277C203.868 82.7167 205.806 87.8751 204.615 93.245C204.497 93.8182 204.323 94.369 204.136 94.9483Z" fill="#FF9292"/>
<path d="M196.558 96.2978C196.332 97.5661 197.175 98.7775 198.443 99.0031C199.711 99.2287 200.92 98.3832 201.147 97.1169C201.373 95.8487 200.53 94.6373 199.262 94.4117C197.994 94.1861 196.785 95.0296 196.558 96.2978Z" fill="#FC6565"/>
<path d="M186.43 93.5438C186.204 94.812 187.049 96.0214 188.315 96.249C189.583 96.4746 190.792 95.6311 191.019 94.3629C191.245 93.0946 190.4 91.8852 189.134 91.6576C187.864 91.432 186.655 92.2755 186.43 93.5438Z" fill="#FC6565"/>
<path d="M195.826 97.6718C194.672 99.6901 192.726 100.342 191.7 99.7429C190.895 99.2734 190.765 98.1027 190.739 97.7978C191.304 97.7612 191.881 97.7328 192.468 97.7104C193.626 97.6698 194.748 97.6576 195.826 97.6718Z" fill="white"/>
<path d="M201.608 94.0864C201.356 95.497 202.126 96.8161 203.329 97.0295C204.53 97.2429 205.708 96.2734 205.96 94.8608C206.212 93.4503 205.442 92.1312 204.239 91.9178C203.039 91.7044 201.86 92.6759 201.608 94.0864Z" fill="#FF9292"/>
<path d="M228.835 156.222C230.639 157.992 231.228 161.055 230.291 163.689C229.454 166.015 227.565 167.785 225.426 168.185C225.056 168.226 224.684 168.269 224.318 168.26C224.243 168.279 224.119 168.293 224.024 168.283C218.886 169.134 212.185 169.409 204.924 167.409C201.293 166.409 196.159 164.96 190.916 160.273C188.967 158.488 187.482 156.72 186.47 155.409C186.255 154.779 186.05 154.051 185.875 153.253C185.247 149.773 186.034 146.635 186.594 144.946C195.357 147.125 204.144 149.332 212.906 151.511C217.744 152.714 222.53 153.911 227.368 155.114C227.929 155.409 228.437 155.746 228.835 156.222Z" fill="#FF9292"/>
<path d="M159.332 127.2C159.661 129.706 158.238 132.48 155.878 133.976C153.785 135.291 151.207 135.519 149.275 134.515C148.958 134.318 148.641 134.123 148.356 133.891C148.287 133.858 148.182 133.793 148.111 133.726C143.541 131.228 138.095 127.312 133.611 121.259C131.368 118.233 128.219 113.926 126.979 107.001C126.544 104.393 126.465 102.086 126.475 100.43C126.695 99.8019 126.981 99.1006 127.335 98.3649C128.985 95.2369 131.536 93.2511 133.021 92.2694C138.578 99.3893 144.137 106.546 149.693 113.666C152.761 117.596 155.792 121.493 158.858 125.422C159.116 126.001 159.309 126.58 159.332 127.2Z" fill="#FF9292"/>
<path d="M223.049 155.179C222.998 155.179 222.945 155.171 222.896 155.155L213.545 152.192C213.276 152.108 213.128 151.822 213.213 151.553C213.299 151.285 213.589 151.135 213.851 151.222L223.203 154.185C223.471 154.271 223.62 154.555 223.534 154.824C223.465 155.041 223.264 155.179 223.049 155.179Z" fill="#F74F4F"/>
<path d="M204.786 91.432C204.154 92.2978 202.919 93.5681 202.135 93.2734C201.143 92.8994 202.183 90.4503 200.67 88.7064C199.652 87.5316 198.102 87.2389 195.302 86.7064C193.793 86.4198 193.254 86.4544 191.842 86.2776C188.376 85.8467 184.89 85.4138 184.502 84.1333C183.872 82.05 190.885 75.861 198.002 76.9789C199.302 77.1821 203.211 78.0967 205.241 81.6658C207.092 84.9219 206.574 88.9828 204.786 91.432Z" fill="#FF2468"/>
<path d="M189.221 90.8629C189.016 90.8629 188.823 90.7369 188.746 90.5336L187.982 88.5073C187.885 88.2451 188.017 87.9524 188.279 87.8528C188.533 87.7512 188.831 87.8853 188.933 88.1495L189.697 90.1759C189.794 90.4381 189.662 90.7308 189.4 90.8304C189.343 90.8528 189.282 90.8629 189.221 90.8629Z" fill="#232996"/>
<path d="M190.863 91.0134C190.635 91.0134 190.428 90.861 190.371 90.6313L189.849 88.5663C189.78 88.294 189.945 88.0175 190.217 87.9484C190.487 87.8753 190.763 88.044 190.834 88.3163L191.357 90.3813C191.426 90.6537 191.261 90.9301 190.989 90.9992C190.946 91.0094 190.904 91.0134 190.863 91.0134Z" fill="#232996"/>
<path d="M188.086 94.117C188.011 94.117 187.933 94.1007 187.862 94.0641C187.61 93.9401 187.507 93.6353 187.631 93.3853L188.151 92.3304C188.277 92.0784 188.586 91.9788 188.831 92.0987C189.083 92.2227 189.187 92.5275 189.063 92.7796L188.543 93.8344C188.451 94.0113 188.273 94.117 188.086 94.117Z" fill="#232996"/>
<path d="M189.991 94.6617C189.646 94.619 189.449 94.3649 189.487 94.0865L189.638 92.9686C189.678 92.6922 189.943 92.4889 190.209 92.5336C190.487 92.5702 190.682 92.8263 190.646 93.1048L190.495 94.2227C190.461 94.4747 190.241 94.6617 189.991 94.6617Z" fill="#232996"/>
<path d="M192.216 92.68C191.93 93.1881 191.135 93.2755 190.363 93.1658C190.119 93.121 189.855 93.0784 189.613 93.0113C189.526 92.9889 189.394 92.9239 189.282 92.9015L189.15 92.8568C188.732 92.7023 188.311 92.4808 187.937 92.1515C187.407 91.7755 187.033 91.2898 187.121 90.8711C187.188 90.2979 187.893 89.8325 188.754 89.6129C189.13 89.5235 189.504 89.5032 189.857 89.5459L190.121 89.5906C190.453 89.6577 190.585 89.7227 190.826 89.8121C191.312 90.0764 191.753 90.5398 192.039 91.0032C192.372 91.6211 192.482 92.2816 192.216 92.68Z" fill="white"/>
<path d="M190.607 90.8487C190.607 91.8426 189.967 92.6597 189.15 92.8568C188.732 92.7023 188.311 92.4808 187.937 92.1515C187.407 91.7755 187.033 91.2898 187.121 90.8711C187.188 90.2979 187.893 89.8325 188.754 89.6129C189.13 89.5235 189.504 89.5032 189.857 89.5459L190.121 89.5906C190.475 89.9646 190.607 90.3833 190.607 90.8487Z" fill="#232996"/>
<path d="M197.549 92.2654C197.344 92.2654 197.151 92.1393 197.076 91.9361L196.31 89.9097C196.21 89.6475 196.342 89.3548 196.604 89.2552C196.864 89.1556 197.159 89.2877 197.259 89.552L198.025 91.5784C198.124 91.8405 197.992 92.1332 197.73 92.2328C197.669 92.2552 197.608 92.2654 197.549 92.2654Z" fill="#232996"/>
<path d="M199.191 92.4158C198.963 92.4158 198.756 92.2633 198.699 92.0337L198.175 89.9686C198.106 89.6963 198.27 89.4199 198.543 89.3508C198.807 89.2756 199.091 89.4443 199.16 89.7186L199.684 91.7837C199.754 92.056 199.589 92.3325 199.317 92.4016C199.274 92.4117 199.231 92.4158 199.191 92.4158Z" fill="#232996"/>
<path d="M196.409 95.5193C196.334 95.5193 196.257 95.503 196.186 95.4665C195.934 95.3425 195.83 95.0376 195.954 94.7856L196.474 93.7307C196.602 93.4807 196.909 93.375 197.155 93.499C197.407 93.623 197.511 93.9279 197.387 94.1799L196.866 95.2348C196.777 95.4136 196.596 95.5193 196.409 95.5193Z" fill="#232996"/>
<path d="M198.317 96.0641C197.97 96.0214 197.775 95.7653 197.813 95.4868L197.966 94.369C198.004 94.0925 198.248 93.8852 198.538 93.934C198.817 93.9726 199.01 94.2287 198.973 94.5051L198.821 95.623C198.784 95.8791 198.567 96.0641 198.317 96.0641Z" fill="#232996"/>
<path d="M200.542 94.0824C200.255 94.5905 199.461 94.6779 198.689 94.5682C198.445 94.5235 198.181 94.4808 197.939 94.4137C197.852 94.3914 197.718 94.3263 197.608 94.304L197.476 94.2592C197.058 94.1048 196.637 93.8832 196.263 93.5519C195.733 93.1759 195.359 92.6922 195.446 92.2715C195.513 91.6983 196.218 91.2349 197.08 91.0133C197.456 90.9239 197.83 90.9036 198.183 90.9463L198.447 90.991C198.778 91.0581 198.91 91.1231 199.152 91.2125C199.638 91.4767 200.079 91.9402 200.365 92.4056C200.696 93.0214 200.808 93.684 200.542 94.0824Z" fill="white"/>
<path d="M198.933 92.2492C198.933 93.2431 198.293 94.0602 197.476 94.2573C197.058 94.1028 196.637 93.8813 196.263 93.55C195.733 93.174 195.359 92.6903 195.446 92.2695C195.513 91.6964 196.218 91.233 197.08 91.0114C197.456 90.922 197.83 90.9017 198.183 90.9443L198.447 90.9891C198.801 91.3671 198.933 91.7858 198.933 92.2492Z" fill="#232996"/>
<path d="M183.965 130.999C179.343 132.594 174.721 134.188 170.097 135.783C169.081 130.295 168.066 124.808 167.05 119.318C174.721 115.92 182.391 112.521 190.062 109.121C188.029 116.413 185.997 123.706 183.965 130.999Z" fill="#232996"/>
<path d="M198.583 165.588C180.443 164.783 162.302 163.978 144.161 163.173C138.708 151.431 133.255 139.692 127.802 127.95C149.271 127.737 170.739 127.525 192.208 127.312C194.333 140.07 196.458 152.828 198.583 165.588Z" fill="#84DBEF"/>
<path d="M167.206 145.179C168.553 147.866 168.393 150.673 166.849 151.448C165.305 152.222 162.96 150.671 161.613 147.984C160.266 145.297 160.427 142.49 161.971 141.716C163.515 140.942 165.859 142.493 167.206 145.179Z" fill="#232996"/>
<path d="M226.726 40.8106C227.366 44.404 220.129 45.5422 217.061 51.5889C213.642 58.3104 219.686 62.7148 217.061 68.9526C215.694 72.2168 211.787 76.3509 200.05 79.3061C198.374 78.6496 196.673 77.9931 194.997 77.3366C196.188 74.8062 197.756 70.5379 197.58 65.225C197.535 64.0847 196.763 48.7292 185.444 43.8248C178.031 40.6175 171.434 44.1927 168.147 40.4244C165.124 36.9468 169.471 32.5058 166.316 29.5505C163.029 26.4997 157.005 30.1115 151.18 27.2132C145.421 24.3555 148.444 19.3901 143.369 15.0263C134.035 7.0101 115.724 15.6259 108.574 7.84139C106.699 5.79466 106.059 3.07111 106.236 0H125.652C125.74 0.888203 125.829 1.77641 125.917 2.66461C126.624 1.75608 127.329 0.888203 128.056 0H142.465C143.172 2.23981 143.832 4.52028 144.517 6.7601C145.575 4.49996 146.636 2.23981 147.694 0H192.925C193.433 1.60364 193.941 3.22558 194.447 4.82923C194.977 3.22558 195.505 1.60364 196.035 0H227.388C224.255 2.1829 222.425 4.44305 221.387 5.96742C219.887 8.15033 219.003 9.69503 219.268 11.569C219.863 15.76 225.446 16.5913 225.887 20.8799C226.482 26.5201 217.283 29.3778 218.54 33.898C219.554 37.5667 226.086 37.4305 226.726 40.8106Z" fill="#FF2468"/>
<path d="M197.555 79.6903C197.133 75.7879 196.357 71.8773 195.251 68.0684L194.934 66.9709C192.165 57.3978 189.979 49.8369 183.403 46.9914C179.933 45.4894 176.645 45.5158 173.75 45.5402C170.536 45.5646 167.781 45.5869 165.922 43.4589C164.26 41.5463 164.618 39.3573 164.935 37.4285C165.244 35.5444 165.512 33.9184 164.128 32.6216C162.645 31.2436 160.441 31.3798 157.889 31.5302C155.193 31.6928 152.149 31.8757 149.116 30.3676C145.855 28.7477 145.236 26.4977 144.58 24.1156C144.031 22.1197 143.462 20.0567 141.201 18.1096C136.739 14.2702 130.092 14.4511 123.674 14.6259C117.217 14.8007 110.551 14.9816 106.382 10.9023C103.914 8.48772 102.782 4.97149 103.02 0.453247L104.036 0.506086C103.814 4.71946 104.842 7.97349 107.093 10.1747C110.953 13.9531 117.12 13.7844 123.645 13.6096C130.268 13.4328 137.103 13.2438 141.863 17.3393C144.358 19.4876 144.996 21.8026 145.559 23.8453C146.178 26.0953 146.711 28.0383 149.569 29.457C152.359 30.8452 155.266 30.6704 157.828 30.516C160.498 30.3574 163.019 30.2029 164.821 31.8777C166.603 33.5464 166.266 35.6033 165.94 37.5931C165.634 39.4671 165.341 41.2374 166.69 42.7902C168.242 44.5687 170.682 44.5544 173.742 44.5239C176.763 44.5016 180.14 44.4731 183.809 46.0585C190.822 49.093 193.069 56.8572 195.912 66.6884L196.229 67.7839C197.35 71.6497 198.136 75.6192 198.567 79.5805L197.555 79.6903Z" fill="#FF2468"/>
<path d="M126.5 102.164C124.005 99.0823 121.51 96.0031 119.013 92.9218C115.22 90.5174 113.087 87.6841 113.727 85.8406C113.946 85.2085 114.511 84.6292 115.191 84.4219C116.66 83.9748 118.71 85.2593 120.116 87.8182C121.37 88.3629 122.621 88.9076 123.875 89.4544C125.252 86.6394 126.63 83.8223 128.009 81.0073C129.679 84.7614 131.349 88.5174 133.019 92.2714C130.846 95.5682 128.674 98.8669 126.5 102.164Z" fill="#FF9292"/>
</g>
<defs>
<clipPath id="clip0_28_705">
<rect width="271" height="299" fill="white"/>
</clipPath>
</defs>
</svg>
