<svg width="325" height="298" viewBox="0 0 325 298" fill="none" xmlns="http://www.w3.org/2000/svg">
<g clip-path="url(#clip0_20_379)">
<path d="M66.9694 295.483C67.0773 295.989 67.2592 296.423 67.5469 296.784C67.8726 297.146 68.1623 297.508 68.486 297.796C88.4312 297.58 108.376 297.29 128.322 297C129.407 293.458 128.973 290.963 128.465 289.3C126.118 282.106 116.073 277.299 102.812 277.373H102.124C101.041 277.409 99.9204 277.481 98.7994 277.589C98.6196 277.589 98.4737 277.625 98.3299 277.625C97.5346 277.661 96.8473 277.768 96.1979 277.768C94.4635 277.912 93.3426 277.948 93.0549 277.986C91.1407 278.094 87.2384 278.238 78.8902 278.13C78.6085 278.126 77.8731 278.21 76.902 278.094C75.6212 277.94 74.6022 277.557 73.9349 277.251C73.769 277.425 73.5133 277.748 73.5333 278.148C73.4693 278.31 73.4693 278.456 73.4333 278.564C73.1796 279.468 72.9997 280.263 72.8199 280.877C72.8199 280.985 72.8199 281.131 72.784 281.239C72.784 281.239 72.2784 283.407 71.665 285.54C71.5571 285.938 71.4492 286.408 71.3033 286.878C71.2314 287.167 71.1595 287.419 71.0876 287.673C70.7978 288.541 70.5461 289.3 70.2923 289.734C70.2204 289.95 70.0745 290.204 70.0745 290.204C70.0385 290.276 70.0026 290.312 70.0026 290.386C69.8947 290.53 69.7868 290.676 69.7128 290.784C69.3871 291.253 69.0255 291.651 68.7377 291.977C68.2702 292.447 66.7896 293.82 66.9694 295.483Z" fill="#FF9292"/>
<path d="M66.9695 295.483C67.0774 295.989 67.2592 296.422 67.547 296.784C67.8727 297.146 68.1624 297.508 68.4861 297.796C88.4313 297.58 108.376 297.29 128.322 297C129.407 293.458 128.973 290.963 128.466 289.3C127.201 285.432 123.804 282.324 118.855 280.227C114.555 278.384 109.026 277.335 102.812 277.371C102.202 276.865 101.177 276.169 100.136 276.395C97.5048 276.965 97.7905 282.77 95.7064 285.842C93.6284 288.906 87.8199 291.277 71.0876 287.673C70.7979 288.541 70.5461 289.3 70.2924 289.734C70.2204 289.95 70.0746 290.204 70.0746 290.204C70.0386 290.276 70.0027 290.312 70.0027 290.386C69.8948 290.53 69.7868 290.676 69.7129 290.784C69.3872 291.253 69.0255 291.651 68.7378 291.977C68.4481 292.267 67.7987 292.916 67.3651 293.748C67.0794 294.254 66.8976 294.831 66.9695 295.483Z" fill="#84DBEF"/>
<path d="M108.62 285.342C107.723 285.342 106.99 284.609 106.99 283.711V277.982C106.99 277.085 107.723 276.351 108.62 276.351C109.515 276.351 110.251 277.085 110.251 277.982V283.711C110.251 284.609 109.517 285.342 108.62 285.342Z" fill="#232996"/>
<path d="M174.512 242.619L162.723 244.824L139.395 119.954C139.627 119.341 141.238 115.279 144.878 114.831C148.121 114.431 150.677 117.182 151.184 117.749C158.959 159.371 166.735 200.995 174.512 242.619Z" fill="#84DBEF"/>
<path d="M161.464 245.567L138.018 120.066L138.068 119.936C138.51 118.775 140.24 114.953 143.959 114.495C147.182 114.103 149.749 116.516 150.697 117.575L150.79 117.681L150.816 117.817L174.238 243.181L161.464 245.567ZM139.054 120.162L162.266 244.4L173.071 242.379L149.861 118.141C149.096 117.312 146.81 115.159 144.081 115.487C141.04 115.858 139.515 119.003 139.054 120.162Z" fill="#232996"/>
<path d="M145.186 121.983C144.193 121.983 143.056 121.633 141.885 120.958C141.645 120.82 141.563 120.512 141.703 120.274C141.841 120.036 142.149 119.956 142.384 120.09C143.743 120.876 145.004 121.158 145.925 120.882C146.467 120.722 146.876 120.372 147.146 119.846C147.502 119.149 147.791 117.773 147.412 116.994C147.078 116.31 146.297 116.346 145.222 116.466C144.413 116.558 144.009 116.664 143.801 117.226C143.655 117.615 143.603 118.213 143.765 118.535C143.885 118.775 144.109 118.869 144.301 118.853C144.419 118.851 144.714 118.811 144.882 118.455C145.002 118.205 145.04 117.825 144.994 117.388C144.964 117.112 145.164 116.866 145.438 116.836C145.697 116.812 145.959 117.004 145.987 117.28C146.035 117.719 146.039 118.353 145.785 118.887C145.501 119.486 144.952 119.846 144.315 119.854C143.687 119.88 143.148 119.53 142.874 118.987C142.512 118.273 142.698 117.326 142.864 116.878C143.312 115.676 144.391 115.555 145.106 115.475C146.115 115.351 147.643 115.185 148.311 116.556C148.894 117.753 148.451 119.486 148.037 120.298C147.643 121.07 147.012 121.603 146.211 121.839C145.891 121.935 145.549 121.983 145.186 121.983Z" fill="#232996"/>
<path d="M184.918 259.496H166.436V132.464C166.961 131.902 170.55 128.206 176.191 128.436C181.216 128.64 184.309 131.812 184.918 132.464C184.918 174.807 184.918 217.153 184.918 259.496Z" fill="#84DBEF"/>
<path d="M184.075 259.998H164.595V132.268L164.729 132.124C165.702 131.084 169.285 127.748 174.868 127.938C179.711 128.134 182.824 130.93 183.939 132.124L184.073 132.268V259.998H184.075ZM165.595 258.998H183.076V132.665C182.111 131.674 179.202 129.113 174.83 128.937C169.855 128.7 166.496 131.75 165.595 132.665V258.998Z" fill="#232996"/>
<path d="M175.695 135.594C174.041 135.594 172.13 135.048 170.186 133.967C169.944 133.833 169.859 133.527 169.99 133.287C170.122 133.045 170.432 132.957 170.67 133.091C173.801 134.832 176.872 135.074 178.496 133.707C179.32 133.013 180.001 131.798 179.703 131.09C179.346 130.247 177.575 130.169 176.281 130.111C175.072 130.053 174.163 130.063 173.591 130.679C173.293 131 173.05 131.526 173.177 131.814C173.261 132.002 173.549 132.174 173.909 132.25C174.386 132.358 175.054 132.292 175.463 131.924C175.709 131.706 175.865 131.368 175.919 130.95C175.953 130.677 176.201 130.487 176.474 130.515C176.75 130.549 176.942 130.798 176.91 131.07C176.828 131.734 176.558 132.286 176.131 132.67C175.413 133.311 174.412 133.383 173.699 133.227C173.008 133.081 172.486 132.713 172.262 132.222C171.935 131.48 172.324 130.573 172.856 129.999C173.789 128.993 175.198 129.059 176.322 129.111C177.881 129.181 180.017 129.277 180.62 130.703C181.19 132.058 180.013 133.735 179.138 134.473C178.249 135.222 177.06 135.594 175.695 135.594Z" fill="#232996"/>
<path d="M150.321 254.885L136.856 256.16L127.732 159.769C128.076 159.307 130.424 156.255 134.55 156.039C138.224 155.847 140.706 158.04 141.197 158.494C144.239 190.623 147.28 222.754 150.321 254.885Z" fill="#84DBEF"/>
<path d="M135.427 256.798L135.379 256.3L126.238 159.717L126.352 159.563C126.995 158.696 129.417 155.849 133.545 155.631C137.141 155.463 139.645 157.378 140.556 158.22L140.696 158.348L140.714 158.54L149.883 255.428L135.427 256.798ZM127.271 160.009L136.328 255.708L148.798 254.525L139.741 158.828C138.946 158.132 136.672 156.457 133.599 156.629C130.078 156.813 127.892 159.225 127.271 160.009Z" fill="#232996"/>
<path d="M134.168 161.646C133.061 161.646 131.808 161.352 130.508 160.755C130.256 160.639 130.148 160.343 130.264 160.091C130.378 159.839 130.675 159.727 130.925 159.845C133.269 160.924 135.463 160.904 136.508 159.803C137.019 159.261 137.419 158.334 137.175 157.864C136.894 157.322 135.599 157.384 134.742 157.422C133.888 157.462 133.263 157.526 132.927 157.98C132.733 158.246 132.636 158.608 132.718 158.756C132.765 158.844 132.931 158.946 133.197 158.974C133.509 159.014 133.934 158.928 134.168 158.664C134.36 158.448 134.394 158.134 134.398 157.966C134.402 157.692 134.626 157.476 134.897 157.476C135.183 157.482 135.401 157.708 135.397 157.986C135.391 158.36 135.301 158.894 134.915 159.327C134.492 159.803 133.784 160.045 133.083 159.967C132.514 159.901 132.06 159.635 131.84 159.235C131.525 158.658 131.754 157.892 132.122 157.39C132.765 156.513 133.834 156.463 134.692 156.423C135.875 156.375 137.485 156.293 138.062 157.402C138.604 158.438 137.841 159.845 137.233 160.489C136.506 161.26 135.433 161.646 134.168 161.646Z" fill="#232996"/>
<path d="M121.58 196.791V296.225H191.47V196.791H121.58ZM166.37 211.154C164.651 211.833 161.179 213.017 156.523 213.017C154.589 213.017 150.794 212.803 146.676 211.154V206.139H166.368L166.37 211.154Z" fill="#FF2468"/>
<path d="M181.561 70.0786C181.168 73.077 180.938 78.1603 182.96 83.8493C183.845 86.34 184.964 88.3888 186.017 89.994C189.318 87.3974 192.619 84.8008 195.92 82.2042C202.286 76.3333 205.077 72.8012 204.298 71.6058C203.703 70.6963 201.039 71.14 196.304 72.9391C195.994 68.7993 195.682 64.6595 195.372 60.5197C194.893 55.6582 194.172 54.5309 193.576 54.4649C192.741 54.3709 191.878 56.3319 191.626 56.8996C190.505 59.4422 190.827 61.859 191.082 63.0663C189.948 63.2502 188.185 63.688 186.337 64.8334C183.528 66.5725 182.133 68.9472 181.561 70.0786Z" fill="#FF9292"/>
<path d="M192.239 71.6399C192.106 71.6399 191.994 71.53 191.99 71.396C191.972 70.5205 191.922 69.645 191.84 68.7895C191.664 66.9684 191.344 65.1494 190.887 63.3863C190.851 63.2544 190.933 63.1164 191.067 63.0825C191.198 63.0465 191.336 63.1264 191.37 63.2624C191.832 65.0514 192.158 66.8944 192.333 68.7435C192.417 69.611 192.467 70.4985 192.487 71.384C192.489 71.522 192.379 71.6359 192.243 71.6399H192.239Z" fill="#F25353"/>
<path d="M183.893 76.0956C183.817 76.0956 183.739 76.0896 183.659 76.0756C182.826 75.9396 182.195 75.1221 182.157 74.1386C182.151 74.0007 182.261 73.8847 182.397 73.8787C182.541 73.9007 182.65 73.9807 182.656 74.1186C182.684 74.8542 183.15 75.4859 183.741 75.5818C184.439 75.6877 185.028 74.9361 185.134 74.7802C185.408 74.3804 185.456 73.9547 185.462 73.7388C185.466 73.6209 185.548 73.5229 185.664 73.4989C185.779 73.4869 185.893 73.5389 185.941 73.6428C185.993 73.7628 186.295 74.3624 186.976 74.5024C187.494 74.6023 188.043 74.4004 188.389 73.9727C188.845 73.407 188.681 72.7134 188.677 72.6834C188.647 72.5694 188.705 72.4515 188.809 72.3995C188.913 72.3456 189.04 72.3735 189.114 72.4694C189.41 72.8472 189.882 73.0332 190.349 72.9732C190.835 72.9052 191.242 72.5734 191.412 72.1076C191.458 71.9757 191.6 71.9038 191.732 71.9598C191.86 72.0057 191.928 72.1516 191.88 72.2795C191.648 72.9172 191.086 73.373 190.417 73.4689C189.988 73.5189 189.556 73.429 189.2 73.2071C189.172 73.5269 189.068 73.9207 188.777 74.2845C188.317 74.8522 187.578 75.134 186.876 74.9881C186.415 74.8942 186.083 74.6463 185.859 74.4024C185.797 74.6143 185.698 74.8402 185.548 75.0621C185.42 75.248 184.788 76.0956 183.893 76.0956Z" fill="#F25353"/>
<path d="M188.819 71.536C188.707 71.536 188.609 71.462 188.577 71.3501L186.954 65.3113C186.918 65.1794 186.998 65.0415 187.132 65.0055C187.264 64.9655 187.402 65.0494 187.438 65.1834L189.058 71.2222C189.094 71.3541 189.015 71.492 188.881 71.528C188.861 71.534 188.841 71.536 188.819 71.536Z" fill="#F25353"/>
<path d="M185.71 73.0991C185.604 73.0991 185.504 73.0312 185.472 72.9253L183.909 68.0219C183.867 67.8919 183.941 67.75 184.071 67.708C184.201 67.666 184.345 67.74 184.385 67.8699L185.947 72.7733C185.989 72.9032 185.915 73.0452 185.786 73.0872C185.762 73.0952 185.736 73.0991 185.71 73.0991Z" fill="#F25353"/>
<path d="M308.422 243.576C307.539 246.867 301.842 268.257 294.703 267.978C293.338 267.898 290.933 267.014 288.165 261.275C285.236 257.863 282.269 254.493 279.299 251.083C278.898 250.641 278.496 250.159 278.097 249.717L275.449 246.667L274.808 245.945L272.28 243.015C272.24 242.975 271.437 242.091 271.437 242.091L268.789 239.041L268.026 238.157L265.458 235.227L264.697 234.383L262.17 231.495L261.408 230.611L258.721 227.521C258.641 227.239 258.481 227.079 258.279 226.999L255.23 223.547L254.91 223.145L248.291 215.561C246.566 213.515 244.882 211.468 243.156 209.381C250.135 203.882 257.116 198.345 264.096 192.845L264.737 193.567L267.584 196.857L308.422 243.576Z" fill="#FF9292"/>
<path d="M261.66 188.078C262.495 188.832 263.213 189.715 263.834 190.705C264.427 191.62 264.879 192.642 265.233 193.719C265.293 193.915 265.327 194.087 265.363 194.309C267.259 201.229 263.009 208.563 255.69 210.856C250.305 212.575 244.706 211.072 241.187 207.47L240.024 206.136C239.972 206.088 239.921 206.042 239.893 205.968C239.089 204.865 238.454 203.628 238.012 202.282C237.833 201.695 237.677 201.079 237.597 200.487C237.341 198.882 237.381 197.263 237.701 195.704C237.783 195.352 237.886 194.972 238.018 194.619C239.315 190.297 242.782 186.611 247.581 185.12C249.246 184.586 250.902 184.378 252.547 184.442C256.005 184.536 259.232 185.839 261.66 188.078Z" fill="#FF9292"/>
<path d="M321.302 246.709C322.095 247.604 322.157 248.754 322.081 249.625C309.781 262.864 297.484 276.205 285.16 289.47C283.058 291.759 280.904 294.05 278.8 296.339C277.477 295.689 276.408 295.031 275.545 294.368C274.052 293.212 273.171 291.985 272.58 290.981C272.554 290.957 272.552 290.905 272.526 290.881C268.504 283.869 272.03 272.151 281.961 261.645C282.876 260.671 283.845 259.746 284.838 258.794C285.06 258.559 285.286 258.373 285.508 258.135C286.601 257.077 287.741 255.97 288.858 254.887C289.232 254.543 289.554 254.201 289.925 253.857C294.195 249.737 298.489 245.54 302.811 241.368C303.407 240.788 304.002 240.206 304.6 239.625C304.941 239.946 305.359 240.24 305.725 240.486C307.741 242.035 309.487 243.133 311.02 243.93C312.292 244.582 313.405 245.034 314.358 245.286C314.512 245.332 314.718 245.378 314.976 245.42C315.26 245.488 315.465 245.531 315.721 245.575C316.287 245.661 316.824 245.669 317.282 245.603C317.869 245.611 319.504 245.51 320.597 246.193C320.856 246.339 321.116 246.485 321.302 246.709Z" fill="#FF9292"/>
<path d="M321.302 246.709C322.095 247.604 322.157 248.754 322.081 249.625C309.781 262.864 297.484 276.205 285.16 289.47C283.058 291.759 280.904 294.05 278.774 296.315C277.477 295.689 276.408 295.031 275.545 294.368C274.052 293.212 273.171 291.985 272.58 290.981C272.554 290.957 272.552 290.905 272.526 290.881C268.504 283.869 272.03 272.151 281.961 261.645C282.876 260.671 283.845 259.746 284.838 258.794C285.06 258.559 285.286 258.373 285.508 258.135C288.009 258.85 291.914 259.498 296.066 258.145C303.86 255.604 306.993 247.684 311.02 243.93C312.292 244.582 313.405 245.034 314.358 245.286C314.512 245.332 314.718 245.378 314.976 245.42C315.26 245.488 315.465 245.532 315.721 245.575C316.287 245.661 316.824 245.669 317.282 245.603C317.869 245.611 319.504 245.51 320.597 246.193C320.856 246.339 321.116 246.485 321.302 246.709Z" fill="#84DBEF"/>
<path d="M288.878 259.806C286.671 261.707 284.463 263.608 282.253 265.509C278.978 264.721 275.701 263.934 272.426 263.148C272.326 262.674 271.565 258.719 274.322 255.52C276.444 253.06 279.27 252.65 279.967 252.568C282.938 254.981 285.909 257.393 288.878 259.806Z" fill="#84DBEF"/>
<path d="M324.401 249.593L280.355 296.508H275.701L275.179 296.027L276.262 294.903L321.432 246.865C321.432 246.825 324.401 249.593 324.401 249.593Z" fill="#84DBEF"/>
<path d="M295.464 229.812C290.089 236.914 284.672 243.978 279.297 251.083C278.896 250.641 278.494 250.159 278.095 249.717L275.447 246.667L274.806 245.945L272.278 243.015C280.021 238.601 287.724 234.226 295.464 229.812Z" fill="#FC6565"/>
<path d="M232.925 213.678L232.845 214.642L232.404 218.976L228.953 254.091L228.07 263.282L226.345 280.739C223.416 282.344 203.92 292.818 199.227 287.441C198.304 286.398 197.341 284.029 199.629 278.09C200.15 273.033 200.632 267.938 201.113 262.88L201.515 258.826L201.635 257.863L201.916 254.972L202.036 253.929L202.116 252.766L202.518 248.752L202.638 247.588L203.039 243.694L203.119 242.571L203.481 238.759L203.601 237.556L204.002 233.542C204.162 233.26 204.162 233.06 204.082 232.82L204.524 228.245L204.604 227.723L205.567 217.73C205.889 215.082 206.208 212.433 206.53 209.745C215.354 211.07 224.139 212.355 232.925 213.678Z" fill="#FF9292"/>
<path d="M228.953 254.091L228.07 263.282C219.364 260.553 210.62 257.743 201.914 254.974C208.172 254.373 214.431 253.731 220.649 253.129C223.418 253.449 226.185 253.771 228.953 254.091Z" fill="#FC6565"/>
<path d="M213.667 139.278C216.059 141.139 218.351 142.194 220.235 142.816C232.859 146.986 245 137.623 246.692 136.28C246.372 121.076 244.626 103.689 240.188 84.903C238.884 79.3799 237.435 74.1067 235.886 69.0894C231.233 69.3812 226.579 69.671 221.926 69.9629C219.174 93.0666 216.421 116.172 213.667 139.278Z" fill="#FF9292"/>
<path d="M235.974 69.4051C233.688 69.525 231.401 69.6869 229.155 69.8068C228.271 69.8468 227.39 69.9268 226.507 69.9668C225.023 70.0867 223.578 70.1667 222.135 70.2486H221.896C221.896 70.1687 221.896 70.0887 221.936 70.0067C222.015 68.9233 222.055 67.8799 222.095 66.8364C222.215 65.2313 222.295 63.6661 222.415 62.0609C222.415 61.8191 222.415 61.6192 222.455 61.4593C222.495 60.4158 222.535 59.4124 222.615 58.3689C222.695 57.6473 222.735 57.0037 222.735 56.362C222.855 55.2386 222.895 54.1552 222.975 52.9918C224.217 52.59 225.462 52.1482 226.705 51.7484C227.948 51.3067 229.193 50.9049 230.475 50.4631C230.555 50.745 231.758 54.477 232.641 57.4854C233.163 59.3324 233.724 61.3373 233.724 61.3373C233.724 61.4573 233.764 61.6192 233.844 61.7791C234.206 63.1444 234.566 64.5477 234.967 65.9529C235.333 67.0763 235.653 68.2417 235.974 69.4051Z" fill="#FF9292"/>
<path d="M228.639 47.7386C228.275 49.1139 228.987 50.4972 230.23 50.825C231.473 51.1548 232.775 50.3053 233.139 48.93C233.503 47.5547 232.791 46.1715 231.548 45.8436C230.304 45.5158 229.003 46.3634 228.639 47.7386Z" fill="#FF9292"/>
<path d="M232.376 91.7592C232.086 92.8427 231.798 93.964 231.509 95.0475C231.365 95.6611 231.219 96.2049 231.039 96.7826C230.677 98.4457 230.208 100.145 229.774 101.844C229.522 102.819 229.305 103.759 229.015 104.736C228.725 106.038 228.363 107.231 228.04 108.496C228.004 108.532 228.04 108.568 228.04 108.604C228.004 108.712 228.004 108.784 227.968 108.894C227.896 109.184 227.824 109.472 227.752 109.762C227.572 110.303 227.426 110.883 227.283 111.389C227.103 112.184 226.885 112.98 226.669 113.738C226.633 113.991 226.561 114.243 226.489 114.461C226.345 115.039 226.235 115.581 226.092 116.16C225.984 116.45 225.948 116.738 225.84 117.064C221.034 116.304 216.229 115.545 211.423 114.787V114.173C211.387 112.872 211.459 111.427 211.639 109.908C211.747 108.932 211.893 107.993 212.073 107.125C212.109 106.981 212.109 106.943 212.145 106.835L212.94 101.992C213.12 101.016 213.302 100.039 213.481 99.0633C214.023 96.0989 214.529 93.6042 214.926 91.4734C216.661 83.3397 217.6 80.4492 217.6 80.4492C217.925 78.7501 218.503 76.8711 219.406 74.9901C220.815 72.0617 222.695 69.7129 224.753 67.9059C227.211 71.7738 229.666 75.6058 232.124 79.4737C232.196 79.6896 232.232 79.9435 232.268 80.1614L232.376 91.7592Z" fill="#FF9292"/>
<path d="M185.43 88.0612C187.224 94.3039 190.641 102.961 197.471 111.511C202.899 118.305 208.826 122.955 213.627 126.057C215.819 127.934 219.28 128.012 222.031 126.353C225.366 124.342 227.111 120.112 225.584 116.864C216.231 104.273 206.878 91.6813 197.526 79.092L185.43 88.0612Z" fill="#FF9292"/>
<path d="M239.741 139.142L236.839 174.541L235.806 187.123L235.229 194.239L234.574 202.708L234.342 205.751L234.282 206.23C234.254 206.306 222.887 205.367 222.887 205.367L207.527 204.147C207.487 204.115 207.877 199.42 207.877 199.42L209.651 177.45C209.687 177.446 210.486 167.543 210.486 167.543L211.921 150.044C212.75 145.738 213.579 141.435 214.407 137.093L234.204 138.69L239.741 139.142Z" fill="#FF9292"/>
<path d="M245.399 131.872L256.061 165.75L259.85 177.792L262 184.6L264.587 192.692L265.52 195.598L265.646 196.064C265.648 196.146 254.767 199.566 254.767 199.566L240.082 204.234C240.032 204.218 238.624 199.722 238.624 199.722L231.982 178.705C232.014 178.687 229.019 169.216 229.019 169.216L223.75 152.469C222.895 148.169 222.039 143.87 221.168 139.538L240.106 133.547L245.399 131.872Z" fill="#FF9292"/>
<path d="M234.745 208.635C234.769 209.761 234.616 210.888 234.324 212.019C234.064 213.079 233.628 214.108 233.087 215.104C232.985 215.282 232.883 215.424 232.745 215.603C229.007 221.728 220.755 223.655 214.069 219.893C209.128 217.149 206.386 212.037 206.6 207.006L206.774 205.245C206.772 205.175 206.77 205.105 206.804 205.033C207.058 203.692 207.521 202.382 208.198 201.137C208.504 200.603 208.844 200.07 209.221 199.604C210.215 198.319 211.421 197.237 212.774 196.402C213.086 196.22 213.433 196.036 213.783 195.888C217.817 193.871 222.879 193.871 227.25 196.348C228.779 197.195 230.066 198.259 231.145 199.502C233.451 202.089 234.711 205.331 234.745 208.635Z" fill="#FF9292"/>
<path d="M232.925 292.267C232.817 293.46 232.022 294.292 231.335 294.833C213.268 294.941 195.131 295.123 177.028 295.231C173.921 295.267 170.776 295.267 167.669 295.303C167.235 293.894 166.981 292.664 166.873 291.579C166.691 289.7 166.981 288.217 167.307 287.097C167.307 287.061 167.343 287.025 167.343 286.989C169.691 279.254 180.64 273.796 195.093 273.832C196.429 273.832 197.766 273.904 199.139 273.976C199.465 273.976 199.752 274.012 200.078 274.012C201.595 274.084 203.185 274.156 204.74 274.228C205.245 274.264 205.715 274.264 206.22 274.3C212.147 274.59 218.145 274.842 224.141 275.132C224.973 275.168 225.804 275.204 226.635 275.24C226.635 275.709 226.707 276.215 226.779 276.649C227.033 279.18 227.43 281.204 227.9 282.866C228.297 284.239 228.731 285.36 229.201 286.228C229.273 286.372 229.38 286.554 229.526 286.77C229.67 287.023 229.78 287.203 229.924 287.421C230.25 287.891 230.611 288.289 230.973 288.579C231.371 289.012 232.563 290.134 232.815 291.399C232.889 291.689 232.961 291.979 232.925 292.267Z" fill="#FF9292"/>
<path d="M232.925 292.267C232.817 293.46 232.022 294.292 231.335 294.833C213.268 294.941 195.131 295.123 177.028 295.231C173.921 295.267 170.776 295.267 167.669 295.267C167.235 293.894 166.981 292.664 166.873 291.579C166.691 289.7 166.981 288.217 167.307 287.097C167.307 287.061 167.343 287.025 167.343 286.989C169.691 279.254 180.64 273.796 195.093 273.832C196.429 273.832 197.766 273.904 199.139 273.976C199.465 273.976 199.752 274.012 200.078 274.012C201.271 276.325 203.475 279.615 207.305 281.712C214.494 285.652 222.409 282.508 227.9 282.87C228.297 284.243 228.731 285.364 229.201 286.232C229.273 286.376 229.38 286.558 229.526 286.774C229.67 287.027 229.78 287.207 229.924 287.425C230.25 287.895 230.611 288.293 230.973 288.583C231.371 289.016 232.563 290.138 232.815 291.403C232.889 291.689 232.961 291.979 232.925 292.267Z" fill="#84DBEF"/>
<path d="M201.173 277.616C198.276 277.311 195.378 277.003 192.481 276.697C190.811 273.77 189.138 270.844 187.468 267.918C187.744 267.52 190.103 264.254 194.321 264.072C197.566 263.932 199.802 265.709 200.34 266.163C200.616 269.981 200.895 273.799 201.173 277.616Z" fill="#84DBEF"/>
<path d="M232.935 292.461H165.405V296.51H232.935V292.461Z" fill="#84DBEF"/>
<path d="M226.066 59.2105C224.983 60.4139 223.698 61.1775 222.455 61.4574C222.495 60.4139 222.535 59.4104 222.615 58.367C222.695 57.6453 222.735 57.0017 222.735 56.36C222.855 55.2366 222.895 54.1532 222.974 52.9898C224.217 52.588 225.462 52.1463 226.705 51.7465C226.785 51.7865 226.865 51.8265 226.945 51.9064C228.713 53.5116 228.311 56.7638 226.066 59.2105Z" fill="#FC6565"/>
<path d="M231.974 45.5838C231.708 52.2802 227.254 57.5514 222.113 57.3075C217.761 57.1276 214.277 53.1118 213.467 47.8845C213.314 46.9131 213.23 45.8796 213.28 44.8261C213.286 44.7602 213.374 43.6428 213.374 43.6428C213.727 40.8583 214.716 38.3896 216.221 36.5245C218.021 34.2518 220.511 32.8945 223.18 33.0064L223.74 33.0504C228.164 33.5681 231.574 38.1057 231.952 43.7627C232.006 44.3604 231.992 44.9561 231.974 45.5838Z" fill="#FF9292"/>
<path d="M215.855 52.0683C215.468 51.7165 215.078 51.3627 214.69 51.0109C213.727 49.8835 212.762 48.7581 211.799 47.6307C211.773 47.4368 211.771 47.1669 211.931 46.965C212.213 46.6132 212.828 46.6852 213.078 46.7072C213.767 46.7691 214.816 46.7352 216.447 46.3414C216.249 48.2504 216.053 50.1593 215.855 52.0683Z" fill="#FF9292"/>
<path d="M226.128 47.9885C225.972 49.3058 224.777 50.2473 223.46 50.0914C222.143 49.9355 221.202 48.7401 221.358 47.4228C221.514 46.1055 222.709 45.164 224.026 45.3199C225.342 45.4758 226.283 46.6712 226.128 47.9885Z" fill="#FC6565"/>
<path d="M220.277 44.5283C220.241 45.4639 218.732 46.0355 217.729 46.1755L217.562 46.1915C217.104 46.2794 216.469 46.2554 215.953 46.1794C215.823 46.1495 215.735 46.1155 215.647 46.0815C215.212 45.9556 214.852 45.7357 214.738 45.4499C214.5 44.7522 215.232 43.5809 216.361 43.0032C216.437 42.9112 216.479 42.9072 216.559 42.8572C216.844 42.7453 217.176 42.6693 217.552 42.6333C217.678 42.6213 217.765 42.6553 217.849 42.6473C218.017 42.6313 218.147 42.6613 218.277 42.6893C219.362 42.9652 220.333 43.8027 220.277 44.5283Z" fill="#84DBEF"/>
<path d="M218.129 43.7647C218.215 44.6463 218.041 45.4678 217.731 46.1755L217.564 46.1915C217.106 46.2794 216.471 46.2554 215.955 46.1794C215.825 46.1495 215.737 46.1155 215.649 46.0815C215.214 45.9556 214.854 45.7357 214.74 45.4499C214.502 44.7522 215.234 43.5809 216.363 43.0032C216.439 42.9112 216.481 42.9072 216.56 42.8572C216.846 42.7453 217.178 42.6693 217.554 42.6333C217.679 42.6213 217.767 42.6553 217.851 42.6473C218.009 42.9712 218.091 43.3869 218.129 43.7647Z" fill="#232996"/>
<path d="M220.203 51.8324C220.535 52.0783 220.261 53.7034 219.2 54.1232C218.297 54.479 217.138 53.8373 217.14 53.4116C217.14 53.2117 217.394 53.1457 219.024 52.3142C219.933 51.8464 220.089 51.7485 220.203 51.8324Z" fill="#84DBEF"/>
<path d="M231.261 257.885C220.507 256.826 209.755 255.766 199.001 254.709C202.626 220.729 206.858 186.259 211.749 151.326C212.686 144.635 213.641 137.969 214.614 131.328C222.419 136.058 230.224 140.787 238.028 145.517C238.612 166.33 238.234 189.111 236.312 213.537C235.085 229.156 233.343 243.96 231.261 257.885Z" fill="#232996"/>
<path d="M264.587 192.692C275.375 204.641 286.161 216.589 296.949 228.539C287.756 236.48 278.562 244.424 269.369 252.368C261.346 240.078 253.322 227.787 245.299 215.497C241.481 210.384 237.507 204.134 234.016 196.686C224.651 176.694 223.43 157.992 223.736 146.27C231.508 142.007 239.281 137.743 247.052 133.479C252.9 153.215 258.743 172.952 264.587 192.692Z" fill="#232996"/>
<path d="M252.822 145.347C238.448 145.681 224.073 146.016 209.699 146.35C212.161 98.4237 214.916 81.2928 217.388 77.2889C217.486 77.129 221.928 69.9608 221.928 69.9608C222.627 70.6085 224.573 72.2316 227.5 72.5234C232.298 73.0032 235.529 69.4911 235.888 69.0873C237.876 78.2784 239.867 87.4675 241.855 96.6586C245.509 112.89 249.166 129.119 252.822 145.347Z" fill="#FF2468"/>
<path d="M237.595 200.735C237.447 200.729 237.339 200.613 237.345 200.475L239.491 148.369C239.497 148.231 239.611 148.137 239.751 148.129C239.889 148.135 239.996 148.253 239.99 148.389L237.845 200.495C237.839 200.629 237.727 200.735 237.595 200.735Z" fill="#84DBEF"/>
<path d="M261.568 111.984C257.196 113.911 252.822 115.796 248.451 117.723C248.251 117.442 248.131 117.162 247.969 116.92C247.647 116.398 247.408 115.916 247.086 115.395C246.966 115.235 246.804 114.993 246.724 114.753C246.283 114.111 245.881 113.39 245.481 112.666C245.2 112.224 244.88 111.703 244.558 111.261C244.398 110.979 244.236 110.739 244.117 110.499C244.037 110.379 244.037 110.299 243.957 110.217C243.957 110.177 243.957 110.137 243.917 110.137C243.555 109.576 243.235 109.014 242.914 108.492C242.552 107.931 242.232 107.409 241.911 106.807C241.389 105.924 240.908 105.082 240.386 104.239C240.306 104.119 240.266 104.039 240.186 103.919C239.383 102.514 238.502 101.11 237.739 99.745C237.417 99.2233 237.097 98.7415 236.815 98.1798C236.214 97.2563 235.613 96.2529 235.051 95.2914L231.882 84.1353C231.842 83.8954 231.802 83.6535 231.802 83.4137C233.087 79.04 234.37 74.6643 235.613 70.2507C238.1 71.4141 240.588 73.1391 242.754 75.5478C244.159 77.073 245.242 78.7182 246.043 80.2834C246.043 80.2834 247.767 82.772 251.699 90.0761C252.703 92.0031 253.865 94.2899 255.23 96.9785C255.432 97.3803 255.632 97.782 255.832 98.1818C256.071 98.6636 256.313 99.1453 256.595 99.627L258.721 104.041C258.761 104.121 258.801 104.161 258.841 104.281C259.282 105.084 259.684 105.926 260.044 106.849C260.645 108.254 261.127 109.618 261.488 110.863C261.486 111.263 261.526 111.623 261.568 111.984Z" fill="#FF9292"/>
<path d="M255.832 98.1798C251.54 101.632 247.208 105.082 242.914 108.494C242.552 107.933 242.232 107.411 241.911 106.809C241.389 105.926 240.908 105.084 240.386 104.241C240.306 104.121 240.266 104.041 240.186 103.921C241.269 103.319 242.352 102.717 243.395 102.114C247.567 100.788 251.699 99.5031 255.832 98.1798Z" fill="#FC6565"/>
<path d="M256.667 97.6922C250.76 101.148 244.856 104.604 238.949 108.059C236.22 100.033 233.489 92.0052 230.759 83.9795C232.468 79.0161 234.178 74.0528 235.888 69.0894C238.462 70.4187 241.405 72.2937 244.298 74.9503C253.062 82.996 255.754 93.0506 256.667 97.6922Z" fill="#FF2468"/>
<path d="M217.953 140.827C224.435 140.429 233.622 138.97 243.447 134.155C251.256 130.327 257.078 125.547 261.147 121.529C263.454 119.796 264.28 116.434 263.259 113.386C262.02 109.692 258.271 107.071 254.771 107.857C240.456 114.259 226.142 120.662 211.825 127.064L217.953 140.827Z" fill="#FF9292"/>
<path d="M210.252 139.68C209.345 140.012 208.332 139.542 208.001 138.636L196.294 106.711C195.962 105.806 196.432 104.79 197.337 104.459C198.244 104.127 199.257 104.596 199.589 105.502L211.296 137.427C211.629 138.332 211.16 139.348 210.252 139.68Z" fill="#232996"/>
<path d="M218.353 140.827C218.219 140.827 218.087 140.827 217.953 140.827C217.374 141.083 212.291 143.228 207.755 140.561C203.317 137.953 201.243 131.818 203.363 125.987C204.973 127.116 206.658 128.116 207.127 127.674C207.753 127.084 205.699 124.418 206.302 123.806C206.688 123.416 208.142 123.872 212.313 126.849C214.325 131.508 216.339 136.168 218.353 140.827Z" fill="#FF9292"/>
<path d="M232.138 46.1035C230.903 47.1529 229.267 48.3043 228.363 47.7886C227.55 47.3229 227.936 45.8077 227.608 44.7202C227.049 42.8532 224.041 41.0362 214.001 40.7663C213.585 40.5385 213.166 40.2986 212.742 40.0447C211.483 39.2971 210.328 38.5255 209.273 37.7539C209.757 36.6225 210.544 35.3152 211.779 35.0534C213.214 34.7495 214.494 36.0229 214.912 35.6051C215.48 35.0394 213.447 32.3628 213.901 31.967C214.331 31.5912 216.323 33.852 217.414 33.2923C218.185 32.8965 217.584 31.5652 218.431 30.6177C219.909 28.9626 224.041 30.4458 224.793 30.7137C226.599 31.3613 227.772 32.2389 228.937 33.1244C230.979 34.6776 233.237 36.3947 233.756 39.1992C233.94 40.1907 233.856 41.0462 233.756 41.6099C233.217 43.1091 232.677 44.6063 232.138 46.1035Z" fill="#232996"/>
<path d="M239.529 107.971C239.423 107.971 239.325 107.905 239.293 107.799L232.761 88.1392C232.717 88.0072 232.789 87.8673 232.919 87.8253C233.051 87.7753 233.193 87.8533 233.233 87.9833L239.763 107.643C239.807 107.773 239.735 107.915 239.605 107.957C239.581 107.967 239.553 107.971 239.529 107.971Z" fill="#84DBEF"/>
<path d="M177.665 277.659L175.906 278.933L180.708 285.57L182.467 284.296L177.665 277.659Z" fill="#232996"/>
<path d="M181.097 276.363L179.336 277.639L184.138 284.276L185.899 283.001L181.097 276.363Z" fill="#232996"/>
<path d="M184.378 275.026L182.617 276.301L187.419 282.939L189.18 281.664L184.378 275.026Z" fill="#232996"/>
<path d="M274.266 274.305L273.893 276.446L281.963 277.851L282.335 275.711L274.266 274.305Z" fill="#232996"/>
<path d="M275.842 271.021L275.469 273.162L283.538 274.567L283.911 272.426L275.842 271.021Z" fill="#232996"/>
<path d="M277.291 267.78L276.918 269.923L284.987 271.329L285.36 269.187L277.291 267.78Z" fill="#232996"/>
<path d="M245.327 112.58C245.136 112.58 244.954 112.47 244.87 112.284C244.758 112.032 244.87 111.739 245.124 111.625L250.986 109.004C251.23 108.89 251.532 109.004 251.645 109.258C251.757 109.51 251.646 109.804 251.392 109.918L245.529 112.538C245.465 112.568 245.395 112.58 245.327 112.58Z" fill="#F74F4F"/>
<path d="M171.941 97.1344C169.357 101.162 166.771 105.164 164.162 109.168C163.59 110.064 163.019 110.983 162.422 111.879C160.681 112.376 158.917 112.872 157.178 113.37C157.526 111.976 157.9 110.585 158.297 109.168C158.745 107.651 159.193 106.11 159.69 104.518C161.007 100.267 162.424 96.2649 163.866 92.5588C166.548 94.076 169.231 95.6172 171.941 97.1344Z" fill="#FF2468"/>
<path d="M160.785 128.226C161.99 121.875 163.195 115.523 164.402 109.172C167.271 109.012 170.14 108.854 173.01 108.694C172.122 110.193 171.219 111.697 170.304 113.206C167.159 118.381 163.98 123.388 160.785 128.226Z" fill="#FF2468"/>
<path d="M170.076 109.168V113.37H157.178C157.526 111.976 157.9 110.585 158.297 109.168H170.076Z" fill="#FF2468"/>
<path d="M74.0987 115.537C71.4811 115.129 68.5359 116.546 66.9094 118.985C65.4788 121.146 65.1731 123.842 66.1741 125.893C66.3719 126.231 66.5678 126.569 66.8035 126.873C66.8355 126.947 66.9014 127.058 66.9694 127.136C69.469 131.992 73.4333 137.803 79.6594 142.662C82.7745 145.091 87.2043 148.505 94.4295 149.982C97.1489 150.506 99.5666 150.648 101.301 150.678C102.336 149.82 103.087 149.782 103.487 149.83C105.435 150.064 107.158 153.335 107.303 158.112C106.892 154.286 106.482 150.462 106.071 146.636C101.621 140.315 95.7283 133.125 88.0315 125.993C83.8814 122.149 79.7973 118.869 75.9489 116.08C75.3515 115.792 74.7481 115.577 74.0987 115.537Z" fill="#FF9292"/>
<path d="M92.0978 89.9903C92.0978 89.9903 91.3365 92.3591 88.769 98.3379C88.4473 99.2214 88.0876 100.023 87.646 101.026C86.7628 103.113 85.6798 105.522 84.3571 108.37C83.8755 109.374 83.4339 110.297 83.0343 111.221L80.8284 115.836C80.1071 117.402 79.3038 118.887 78.5825 120.37L77.9011 121.695C76.3766 119.247 73.6092 118.243 71.3213 119.207C68.5939 120.33 66.7876 124.102 67.7507 127.674C67.429 127.474 67.1093 127.232 66.8276 126.993C66.7477 126.953 66.6278 126.873 66.5459 126.833C65.8245 125.829 65.0612 124.464 64.6616 122.699C63.9803 119.529 64.7815 116.72 65.1032 115.757C65.7846 113.51 66.2661 112.586 66.9495 110.981C67.3511 110.058 67.6708 109.054 68.0324 108.131C68.0724 108.091 68.1124 108.051 68.1124 108.011C68.1923 107.811 68.2722 107.569 68.3521 107.369C68.5939 106.847 68.7937 106.366 68.9536 105.844C69.1534 105.322 69.3552 104.76 69.555 104.279C69.9566 103.195 70.3582 102.272 70.7179 101.348C71.3993 99.5832 72.0007 97.8961 72.7241 96.291C72.9638 95.5694 73.1256 95.0077 73.4054 94.446L73.4454 94.326C73.6452 93.8043 73.8869 93.2826 74.0867 92.7209C74.4884 91.7174 74.8081 90.8338 75.2097 89.8304C75.2497 89.6705 75.3296 89.4686 75.3695 89.3087C75.971 87.7835 76.5724 86.2983 77.0939 84.8551C78.097 78.8343 82.2291 74.1388 87.0026 73.3372C92.0179 72.4537 93.2607 86.82 92.0978 89.9903Z" fill="#FF9292"/>
<path d="M71.7789 150.374C81.0921 149.557 90.4033 148.741 99.7165 147.923C97.4926 123.165 95.2668 98.4078 93.0409 73.6489C88.4972 73.0752 85.2982 74.0187 83.1622 75.0901C83.0243 75.1601 82.8884 75.23 82.7525 75.304C80.4847 84.2272 78.4007 93.8322 76.6563 104.079C73.809 120.818 72.3603 136.368 71.7789 150.374Z" fill="#FF9292"/>
<path d="M92.5393 78.2724C91.0947 80.3992 87.0026 79.7976 82.7905 75.6638C82.8305 74.8622 82.9104 74.0986 83.0303 73.4169C83.4319 70.9682 83.9134 68.5616 84.353 66.1528C84.4329 65.5112 84.5529 64.9095 84.6747 64.3058C84.9565 62.8206 85.2362 61.2954 85.5179 59.7702C85.6378 59.0885 85.7997 58.325 85.9195 57.6433C85.9595 57.4834 85.9595 57.4414 85.9595 57.4015C86.1594 56.9597 86.2812 56.5179 86.4411 56.0762C86.4411 55.9962 86.521 55.9562 86.521 55.8363L88.4472 56.6379L91.3345 57.9212C91.4144 58.323 91.4144 58.7248 91.4544 59.1646C91.4943 59.2845 91.4943 59.4464 91.4943 59.5663C91.6542 60.8916 91.856 62.5767 92.0558 64.3418C92.0958 64.7436 92.1357 65.1853 92.1757 65.5851C92.2156 66.0668 92.2556 66.5886 92.3355 67.0703C92.4554 68.5955 92.6173 69.9588 92.7372 70.9622L92.7771 71.2022C92.857 72.0057 92.897 72.4875 92.897 72.5274C92.897 72.6074 93.0169 73.8527 93.0968 73.8927V74.0126C93.4625 76.8271 92.7791 77.9506 92.5393 78.2724Z" fill="#FF9292"/>
<path d="M73.6691 214.594L73.6831 215.611L73.7211 222.186L73.7031 222.766L73.7371 225.492L73.725 238.415L73.715 238.923L73.7471 241.686L73.743 244.444L73.733 246.875L73.763 248.874L73.765 261.253L73.7371 261.541L73.777 263.832C73.741 263.828 73.753 266.806 73.753 266.806L73.773 268.151L73.785 269.569L73.775 275.885L73.773 277.846C75.7532 279.028 79.3917 280.829 84.2651 281.245C91.4983 281.86 96.9312 279.038 98.9593 277.846C98.9553 275.957 98.9493 274.07 98.9453 272.181L98.9293 263.43L98.9173 216.667L98.9293 214.598C98.8974 214.558 83.7236 214.59 83.7236 214.59L80.7505 214.566L74.2186 214.57L73.6691 214.594Z" fill="#FF9292"/>
<path d="M70.8278 199.432L70.1344 200.178L65.6227 204.957L65.209 205.363L63.3528 207.358L54.4212 216.695L54.0635 217.055L52.1793 219.074L50.2691 221.067L48.5827 222.818L47.224 224.285L38.678 233.238L38.4602 233.428L36.9077 235.111C36.8837 235.083 34.8356 237.246 34.8356 237.246L33.9205 238.231L32.9514 239.265L28.5835 243.824L27.2288 245.24C27.8462 247.462 29.2309 251.278 32.4699 254.949C37.2734 260.392 43.1518 262.105 45.4417 262.644C46.7425 261.275 48.0432 259.906 49.342 258.539L55.3723 252.2L87.6499 218.376L89.0866 216.889C89.0906 216.839 78.0989 206.376 78.0989 206.376L75.9649 204.303L71.2374 199.792L70.8278 199.432Z" fill="#FF9292"/>
<path d="M10.1349 253.295C9.86319 253.735 9.69537 254.175 9.65541 254.637C9.64142 255.122 9.60144 255.584 9.63541 256.018C24.2077 269.643 38.8299 283.215 53.4521 296.79C56.6811 294.977 58.0898 292.874 58.8731 291.323C62.142 284.499 58.1977 274.082 48.5588 264.971L48.0612 264.497C47.252 263.774 46.3928 263.052 45.5076 262.357C45.3777 262.233 45.2479 262.159 45.142 262.059C44.5425 261.535 43.9711 261.139 43.5015 260.689C42.1468 259.596 41.3116 258.848 41.0778 258.674C39.6192 257.429 36.6959 254.839 30.7356 248.992C30.5337 248.794 29.9443 248.348 29.3229 247.592C28.5037 246.595 28.0321 245.615 27.7584 244.932C27.5186 244.942 27.1109 245 26.8472 245.304C26.6893 245.378 26.5895 245.481 26.4875 245.535C25.6803 246.015 25.0009 246.465 24.4455 246.785C24.3695 246.863 24.2716 246.969 24.1697 247.021C24.1697 247.021 22.3055 248.24 20.3893 249.357C20.0356 249.569 19.634 249.835 19.2044 250.075C18.9526 250.235 18.7249 250.367 18.4991 250.501C17.6918 250.929 16.9845 251.302 16.5009 251.44C16.2991 251.546 16.0194 251.63 16.0194 251.63C15.9435 251.658 15.8915 251.658 15.8416 251.71C15.6637 251.74 15.4859 251.77 15.358 251.798C14.7985 251.912 14.263 251.952 13.8295 251.986C13.1701 251.998 11.152 251.968 10.1349 253.295Z" fill="#FF9292"/>
<path d="M10.1349 253.295C9.86319 253.735 9.69537 254.175 9.65541 254.637C9.64142 255.122 9.60144 255.584 9.63541 256.018C24.2077 269.643 38.8299 283.215 53.4521 296.79C56.6811 294.977 58.0898 292.874 58.8731 291.323C60.6294 287.653 60.3197 283.058 58.1877 278.12C56.3514 273.816 53.0785 269.237 48.5588 264.969C48.1891 263.696 47.4718 262.043 45.9412 261.015C42.97 259.018 39.1196 260.847 36.1924 261.219C32.2261 261.723 26.4756 259.996 18.5051 250.499C17.6978 250.927 16.9905 251.3 16.507 251.438C16.3051 251.544 16.0254 251.628 16.0254 251.628C15.9495 251.656 15.8975 251.656 15.8476 251.708C15.6697 251.738 15.4919 251.768 15.364 251.796C14.8045 251.91 14.2691 251.95 13.8355 251.984C13.4278 251.994 12.5067 252.014 11.6196 252.316C11.0601 252.482 10.5306 252.774 10.1349 253.295Z" fill="#84DBEF"/>
<path d="M73.9049 143.074L73.3155 178.587L73.1077 191.21L72.9818 198.349L72.8019 206.842L72.734 209.892L72.746 210.374C72.768 210.452 84.1712 210.636 84.1712 210.636L99.5768 210.932C99.6187 210.904 99.6926 206.192 99.6926 206.192L100.084 184.154C100.048 184.146 100.226 174.213 100.226 174.213L100.516 156.659C100.112 152.293 99.7106 147.927 99.315 143.528L79.4557 143.172L73.9049 143.074Z" fill="#FF9292"/>
<path d="M72.1086 205.063C71.8548 206.312 71.7709 207.626 71.8329 208.923C72.0287 213.003 73.9229 217.029 77.3177 219.871C83.336 224.953 91.9159 224.313 96.7194 218.502C96.8872 218.338 97.0152 218.204 97.147 218.034C97.4647 217.588 97.7805 217.143 98.0622 216.691C98.3959 216.133 98.6936 215.571 98.9214 215C99.4109 213.86 99.7605 212.699 99.9344 211.512L100 211.066C100.054 210.696 100.074 210.318 100.092 209.942C100.19 208.291 100 206.634 99.5128 205.049C99.1631 203.75 98.6276 202.496 97.9383 201.297C97.0771 199.808 95.9781 198.475 94.5994 197.325C93.1308 196.05 91.4624 195.162 89.746 194.609C89.68 194.563 89.5761 194.547 89.4702 194.531C86.7528 193.679 83.8715 193.713 81.228 194.577C80.8544 194.673 80.4748 194.807 80.1311 194.946C78.6345 195.598 77.2397 196.532 76.0229 197.717C75.5653 198.143 75.1317 198.646 74.7341 199.156C73.841 200.352 73.1476 201.651 72.6601 203.018C72.6141 203.088 72.6041 203.162 72.5922 203.236L72.3284 204.295L72.1086 205.063Z" fill="#FF9292"/>
<path d="M72.6001 138.81L70.0845 174.239L69.1914 186.833L68.6798 193.953L68.0404 202.424L67.8066 205.467L67.7927 205.949C67.8086 206.029 79.1879 206.83 79.1879 206.83L94.5535 207.963C94.5974 207.938 94.9271 203.238 94.9271 203.238L96.5136 181.254C96.4796 181.246 97.195 171.335 97.195 171.335L98.4378 153.822C98.272 149.441 98.1081 145.061 97.9522 140.645L78.141 139.212L72.6001 138.81Z" fill="#FF9292"/>
<path d="M67.441 200.609C67.1193 201.845 66.9634 203.15 66.9554 204.449C66.9295 208.533 68.6019 212.655 71.8388 215.679C77.5734 221.081 86.1733 220.909 91.2865 215.366C91.4623 215.21 91.5982 215.084 91.7381 214.922C92.0798 214.494 92.4194 214.066 92.7251 213.63C93.0868 213.093 93.4165 212.547 93.6743 211.987C94.2257 210.876 94.6374 209.737 94.8752 208.561L94.963 208.119C95.037 207.752 95.077 207.378 95.1149 207.004C95.3027 205.361 95.2028 203.696 94.8012 202.087C94.5235 200.769 94.0559 199.49 93.4325 198.255C92.6532 196.721 91.6282 195.328 90.3134 194.109C88.9167 192.756 87.2983 191.78 85.6139 191.134C85.5519 191.084 85.448 191.062 85.3421 191.04C82.6746 190.043 79.7973 189.919 77.1098 190.639C76.7322 190.715 76.3446 190.829 75.9949 190.949C74.4644 191.518 73.0217 192.374 71.7429 193.491C71.2633 193.891 70.8038 194.371 70.3782 194.858C69.4211 196.002 68.6578 197.263 68.0984 198.602C68.0484 198.668 68.0344 198.742 68.0184 198.816L67.6987 199.86L67.441 200.609Z" fill="#FF9292"/>
<path d="M92.0578 64.3458C90.0517 63.5422 87.3643 60.6138 86.2014 59.3285C86.9227 59.0466 89.0087 58.285 91.2566 59.0885C91.2966 59.0885 91.3765 59.1285 91.4564 59.1685C91.4964 59.2885 91.4964 59.4504 91.4964 59.5703C91.6562 60.8956 91.856 62.5807 92.0578 64.3458Z" fill="#FC6565"/>
<path d="M82.3889 50.0614C82.9224 56.442 87.3942 61.2854 92.2896 60.8397C96.4357 60.4859 99.5947 56.508 100.148 51.4847C100.254 50.5512 100.292 49.5617 100.2 48.5562C100.192 48.4943 100.06 47.4308 100.06 47.4308C99.6067 44.7882 98.5597 42.4735 97.0451 40.7544C95.2308 38.6615 92.7991 37.4701 90.2555 37.688L89.724 37.754C85.522 38.4316 82.4568 42.9072 82.333 48.3203C82.307 48.896 82.3469 49.4617 82.3889 50.0614Z" fill="#FF9292"/>
<path d="M98.0441 55.5765C98.3997 55.2226 98.7554 54.8708 99.1111 54.517C99.9842 53.4016 100.858 52.2862 101.731 51.1708C101.747 50.9849 101.739 50.727 101.577 50.5411C101.293 50.2173 100.708 50.3112 100.472 50.3412C99.8164 50.4292 98.8133 50.4412 97.2408 50.1334C97.5086 51.9504 97.7763 53.7634 98.0441 55.5765Z" fill="#FF9292"/>
<path d="M93.6922 54.3331C93.6043 56.3501 94.7672 57.7394 95.7603 57.7414C96.6754 57.7434 97.3108 56.566 97.3728 56.448C96.8552 56.3041 96.2078 56.0702 95.5045 55.6764C94.7252 55.2366 94.1238 54.7429 93.6922 54.3331Z" fill="#84DBEF"/>
<path d="M96.7434 48.6282C96.6455 48.6282 96.5456 48.5982 96.4597 48.5402C96.2319 48.3843 96.1739 48.0725 96.3298 47.8446L97.5386 46.0875C97.6964 45.8617 98.0082 45.8057 98.234 45.9596C98.4618 46.1155 98.5197 46.4274 98.3619 46.6552L97.155 48.4123C97.0571 48.5522 96.9012 48.6282 96.7434 48.6282Z" fill="#232996"/>
<path d="M95.1388 48.3883C95.0589 48.3883 94.979 48.3683 94.903 48.3303C94.6593 48.2024 94.5674 47.8985 94.6972 47.6547L95.6823 45.8016C95.8142 45.5558 96.1179 45.4678 96.3577 45.5937C96.6014 45.7217 96.6934 46.0255 96.5635 46.2694L95.5784 48.1224C95.4905 48.2923 95.3167 48.3883 95.1388 48.3883Z" fill="#232996"/>
<path d="M97.0651 52.0083C96.8353 52.0083 96.6295 51.8504 96.5775 51.6166L96.3278 50.4851C96.2678 50.2153 96.4397 49.9474 96.7074 49.8895C96.9832 49.8315 97.2449 50.0014 97.3029 50.2693L97.5526 51.4007C97.6126 51.6705 97.4407 51.9364 97.173 51.9964C97.137 52.0044 97.101 52.0083 97.0651 52.0083Z" fill="#232996"/>
<path d="M95.1168 52.0803C94.7891 52.0484 94.5893 51.8025 94.6192 51.5286L94.7372 50.4232C94.7671 50.1493 95.0049 49.9375 95.2866 49.9775C95.5604 50.0074 95.7602 50.2533 95.7302 50.5272L95.6123 51.6326C95.5843 51.8884 95.3686 52.0803 95.1168 52.0803Z" fill="#232996"/>
<path d="M93.4884 49.6096C93.7042 50.3512 94.9131 50.5631 95.8742 50.5252C96.006 50.5332 96.1399 50.5092 96.2378 50.5152L96.4376 50.4952C96.8033 50.4532 97.2748 50.3173 97.7184 50.1154C98.2978 49.8555 98.7514 49.4877 98.7794 49.0599C98.8613 48.3043 97.7344 47.3388 96.4576 47.1569L96.2278 47.143C95.9321 47.123 95.7642 47.145 95.4965 47.1949C94.959 47.3249 94.4415 47.6547 94.0518 48.0605C93.5883 48.5582 93.3186 49.1679 93.4884 49.6096Z" fill="#84DBEF"/>
<path d="M95.3885 48.84C95.3486 49.4657 95.5404 50.0734 95.8741 50.5251C96.006 50.5331 96.1398 50.5091 96.2377 50.5151L96.4375 50.4951C96.8032 50.4532 97.2747 50.3172 97.7183 50.1153C98.2978 49.8555 98.7513 49.4877 98.7793 49.0599C98.8612 48.3043 97.7343 47.3388 96.4575 47.1569L96.2278 47.1429C95.7382 47.5407 95.4345 48.1484 95.3885 48.84Z" fill="#232996"/>
<path d="M93.3566 52.3861C93.2747 53.6514 92.1817 54.611 90.9189 54.527C89.6541 54.445 88.6949 53.3536 88.7789 52.0883C88.8608 50.823 89.9538 49.8635 91.2166 49.9474C92.4794 50.0294 93.4385 51.1208 93.3566 52.3861Z" fill="#FC6565"/>
<path d="M75.891 104.96C73.4034 105.762 70.8757 106.565 68.3501 107.367C68.5919 106.845 68.7917 106.363 68.9516 105.842C69.1514 105.32 69.3532 104.758 69.553 104.277C71.639 104.479 73.765 104.718 75.891 104.96Z" fill="#FC6565"/>
<path d="M112.762 173.98C109.673 176.428 103.617 180.522 94.951 182.127C84.4809 184.054 75.7352 181.284 70.6819 178.997C68.9975 178.235 67.7527 177.512 66.9514 177.07C67.0313 175.827 67.0713 174.541 67.1512 173.258C67.8326 161.7 68.9555 149.419 70.6419 136.418C71.0036 133.527 71.4032 130.599 71.8448 127.628C72.1665 125.381 72.5262 123.133 72.8878 120.846C73.5292 116.752 74.2125 112.78 74.9738 108.846C75.4953 105.756 76.0968 102.745 76.6982 99.777C78.6644 90.1041 80.7904 80.955 83.0362 72.2876C86.487 73.1311 89.9357 73.9327 93.3865 74.7763C93.7481 76.6233 94.1078 78.4683 94.4695 80.3153C95.0709 83.3257 95.6324 86.3361 96.2338 89.3445C100.366 110.413 104.458 131.484 108.588 152.553C108.83 153.836 109.07 155.042 109.311 156.285C110.476 162.18 111.599 168.081 112.762 173.98Z" fill="#232996"/>
<path d="M85.5239 103.525C79.4137 104.425 73.3034 105.324 67.1952 106.224C68.5159 102.38 77.5475 76.3614 82.8724 74.5844C84.6747 73.9827 85.9655 74.5284 85.9655 74.5284C88.3293 75.5298 88.7849 79.056 88.8708 79.8476C87.7559 87.7414 86.6389 95.6332 85.5239 103.525Z" fill="#232996"/>
<path d="M73.7311 233.462C73.4254 233.444 73.2156 233.208 73.2316 232.932L74.6502 208.979L72.2365 180.288C72.2125 180.014 72.4163 179.772 72.692 179.748C72.9498 179.698 73.2076 179.928 73.2316 180.204L75.6453 208.967L74.2266 232.99C74.2126 233.258 73.9929 233.462 73.7311 233.462Z" fill="#F74F4F"/>
<path d="M95.9481 216.319C95.1728 216.319 94.4215 215.939 93.93 215.286C93.7641 215.066 93.8081 214.75 94.0279 214.584C94.2517 214.422 94.5614 214.46 94.7273 214.684C95.0709 215.144 95.6044 215.388 96.1399 215.306C96.6994 215.228 97.0311 214.818 97.119 214.694C97.2788 214.468 97.5926 214.42 97.8163 214.578C98.0401 214.738 98.0921 215.05 97.9323 215.276C97.7444 215.539 97.2069 216.163 96.2798 216.295C96.1699 216.311 96.058 216.319 95.9481 216.319Z" fill="#F74F4F"/>
<path d="M71.0756 204.701C70.9917 204.693 67.2931 204.068 67.2931 204.068C67.0214 204.024 66.8376 203.766 66.8835 203.492C66.9295 203.218 67.2052 203.034 67.459 203.084L71.1575 203.712C71.4292 203.756 71.6131 204.014 71.5671 204.287C71.5272 204.529 71.3153 204.701 71.0756 204.701Z" fill="#F74F4F"/>
<path d="M112.155 127.554C111.793 127.634 111.392 127.754 111.032 127.836C110.952 127.836 110.832 127.876 110.71 127.916C109.507 127.836 107.943 127.554 106.338 126.713C103.451 125.187 101.845 122.781 101.283 121.937C100.04 119.97 99.6387 118.967 98.8355 117.442C98.3939 116.518 97.8324 115.635 97.3508 114.753C97.3508 114.713 97.3508 114.673 97.3109 114.633C96.9492 113.951 96.5875 113.268 96.1879 112.586C95.9062 112.104 95.6264 111.583 95.3847 111.101C95.1449 110.699 94.9032 110.299 94.7034 109.898C94.4216 109.336 94.1418 108.854 93.8601 108.332C92.9769 106.687 92.0958 105.122 91.3325 103.557C91.2526 103.557 91.2526 103.557 91.2526 103.477C90.8909 102.915 90.5712 102.434 90.2895 101.872L90.2495 101.752C90.0078 101.27 89.728 100.708 89.4463 100.227C88.9248 99.2632 88.4432 98.4616 87.9617 97.5381C87.8418 97.3782 87.7619 97.1763 87.64 97.0164C86.8368 95.6111 86.1154 94.2079 85.3142 92.8826C81.3419 88.2271 80.4607 82.0464 82.8665 77.8326C85.4341 73.4589 90.4093 73.1371 91.1307 73.0571C94.7013 77.7127 97.229 81.7265 98.9134 84.655C98.9134 84.655 100.278 86.7819 103.165 92.5608C103.647 93.3644 104.049 94.1659 104.53 95.1294C104.932 95.9729 105.413 96.8945 105.893 97.8979C106.574 99.3432 107.257 100.828 108.019 102.434C108.46 103.397 108.902 104.361 109.384 105.242L111.47 109.898C112.191 111.463 112.834 113.028 113.516 114.553L114.077 115.916C111.188 115.515 108.702 117 107.939 119.329C107.062 122.177 108.786 125.989 112.155 127.554Z" fill="#FF9292"/>
<path d="M106.019 97.816C105.979 97.856 105.979 97.9359 105.939 97.9759C103.091 103.555 100.162 109.052 97.3149 114.631C96.9532 113.949 96.5916 113.266 96.192 112.584C95.9102 112.102 95.6305 111.581 95.3887 111.099C95.1489 110.697 94.9071 110.297 94.7073 109.896V103.233C98.4378 101.426 102.168 99.661 105.899 97.896C105.937 97.856 105.979 97.816 106.019 97.816Z" fill="#FC6565"/>
<path d="M106.614 97.2242C102.268 101.614 97.9222 106.004 93.5763 110.393C89.606 103.831 85.6358 97.2662 81.6675 90.7037C78.3946 82.606 81.5576 75.184 86.0554 73.6468C90.0896 72.2695 94.5534 75.8456 95.0809 76.2814C98.9253 83.2617 102.77 90.2419 106.614 97.2242Z" fill="#232996"/>
<path d="M103.187 118.873C102.32 121.377 103.193 124.528 105.303 126.563C107.174 128.356 109.775 129.133 111.969 128.514C112.337 128.38 112.702 128.246 113.044 128.068C113.122 128.05 113.246 128.006 113.332 127.952C118.445 124.798 124.531 120.412 130.683 114.405C135.299 109.9 138.964 105.45 141.833 101.486C142.163 100.351 142.56 98.3857 142.139 96.0289C141.373 91.7532 138.462 89.2605 137.589 88.5669C130.378 94.7036 123.158 100.876 115.947 107.015C111.967 110.403 108.031 113.764 104.05 117.15C103.659 117.687 103.339 118.241 103.187 118.873Z" fill="#FF9292"/>
<path d="M141.833 101.486C139.078 98.7274 136.322 95.969 133.567 93.2104C134.738 89.4484 135.907 85.6863 137.077 81.9243C137.983 80.3672 139.064 79.3657 139.669 79.5836C140.346 79.8275 140.682 81.6886 140.178 83.0818C139.935 83.7575 139.567 84.1152 139.659 84.7349C139.659 84.7349 139.769 85.4745 140.672 86.1061C143.186 87.8612 156.004 81.0968 157.262 82.704C157.62 83.1617 157.188 84.483 154.043 88.1111C149.973 92.5687 145.903 97.0283 141.833 101.486Z" fill="#FF9292"/>
<path d="M93.952 110.643C93.8621 110.643 93.7742 110.595 93.7303 110.509L86.2233 96.0609C86.1594 95.937 86.2073 95.7871 86.3292 95.7232C86.4511 95.6672 86.603 95.7071 86.6649 95.8311L94.1718 110.279C94.2358 110.401 94.1878 110.553 94.066 110.617C94.03 110.633 93.992 110.643 93.952 110.643Z" fill="#84DBEF"/>
<path d="M75.7972 104.526C75.6074 104.49 75.5234 104.357 75.5534 104.223L82.0093 75.5159C82.0393 75.382 82.1672 75.294 82.3071 75.326C82.4409 75.358 82.5269 75.49 82.4969 75.6239L76.0409 104.331C76.015 104.449 75.9111 104.526 75.7972 104.526Z" fill="#84DBEF"/>
<path d="M84.3571 50.713C84.1633 52.0883 85.0125 53.3457 86.2513 53.5196C87.4901 53.6935 88.651 52.7179 88.8429 51.3427C89.0367 49.9674 88.1875 48.7101 86.9486 48.5362C85.7098 48.3623 84.5509 49.3378 84.3571 50.713Z" fill="#FF9292"/>
<path d="M45.09 269.815C44.7683 268.977 45.1879 268.03 46.0232 267.708L51.3661 265.647C52.2034 265.325 53.1505 265.745 53.4741 266.58C53.7958 267.416 53.3762 268.365 52.541 268.689L47.1981 270.75C46.3609 271.072 45.4137 270.65 45.09 269.815Z" fill="#232996"/>
<path d="M85.5239 136.415H70.642C71.0036 133.525 71.4033 130.597 71.8449 127.626C72.5262 127.466 73.1696 127.384 73.851 127.344C79.3058 127.104 84.2811 130.918 85.5239 136.415Z" fill="#84DBEF"/>
<path d="M99.5668 43.181C95.8424 44.8701 92.1418 46.5592 88.4173 48.2503C88.3734 50.3092 88.3155 53.4796 88.2775 57.3455C87.9338 93.4563 90.2976 105.21 84.1594 112.97C83.2462 114.125 81.4239 116.1 81.5578 118.757C81.7776 123.186 87.2005 124.722 88.2096 129.749C88.775 132.563 87.692 135.146 86.7749 136.795C68.7379 136.795 50.7009 136.795 32.6658 136.795C31.9026 135.662 31.1393 134.504 30.376 133.371C30.3061 134.504 30.2601 135.662 30.1902 136.795H22.3016C21.7461 134.666 21.2146 132.584 20.6811 130.477C19.5702 132.582 18.4612 134.688 17.3263 136.795H4.7641C1.40926 127.654 2.19651 124.02 3.86294 122.563C6.61634 120.11 11.5437 123.79 14.7347 121.128C18.5991 117.887 13.9015 110.251 17.9277 106.315C21.1887 103.121 25.8623 106.593 29.4249 103.329C33.1494 99.9029 29.8645 94.3958 33.2653 88.9567C36.4123 83.9114 42.8423 82.846 45.1101 82.3142C53.2305 80.3473 65.6068 71.2061 84.437 39.9168C84.6228 39.7309 88.0916 36.2367 92.973 37.3241C97.7845 38.3916 99.4729 42.9032 99.5668 43.181Z" fill="#FF2468"/>
<path d="M2.61204 137.047C2.40224 137.047 2.20444 136.913 2.13651 136.701C-0.63688 128.152 -0.708811 122.943 1.91272 120.778C3.51721 119.45 5.55928 119.738 7.53142 120.014C9.49357 120.292 11.3438 120.554 12.7825 119.345C14.4949 117.907 14.327 115.389 14.1472 112.72C13.9494 109.766 13.7436 106.711 15.9455 104.558C17.7198 102.823 19.8498 102.889 21.9099 102.947C23.912 103.007 25.8122 103.065 27.4527 101.562C29.211 99.9448 29.271 97.782 29.3389 95.2793C29.4068 92.8286 29.4827 90.0541 31.2071 87.2936C34.1963 82.5141 39.9709 81.2028 42.7462 80.5731L43.3597 80.4332C53.9657 77.8905 67.8167 65.5391 84.5309 43.7207C84.6968 43.5048 85.0144 43.4608 85.2302 43.6287C85.45 43.7966 85.49 44.1105 85.3222 44.3304C68.466 66.3347 54.4253 78.8081 43.5915 81.4067L42.966 81.5506C40.3225 82.1503 34.8217 83.3996 32.0523 87.8273C30.4718 90.3559 30.4019 92.8726 30.3359 95.3093C30.264 97.9279 30.1961 100.399 28.128 102.302C26.1859 104.081 23.9939 104.011 21.8779 103.951C19.9357 103.891 18.1115 103.837 16.6409 105.276C14.7666 107.107 14.9564 109.928 15.1403 112.656C15.3281 115.455 15.5219 118.351 13.4199 120.112C11.6376 121.603 9.47758 121.301 7.38754 121.006C5.55127 120.748 3.81092 120.502 2.54411 121.547C0.304224 123.396 0.486047 128.392 3.0816 136.393C3.16552 136.655 3.02367 136.937 2.75991 137.023C2.71596 137.039 2.66399 137.047 2.61204 137.047Z" fill="#FF2468"/>
<path d="M26.1638 297.258H23.8241C23.4105 297.258 23.0748 296.922 23.0748 296.508C23.0748 296.095 23.4105 295.759 23.8241 295.759H26.1638C26.5774 295.759 26.9131 296.095 26.9131 296.508C26.9131 296.922 26.5774 297.258 26.1638 297.258Z" fill="#232996"/>
<path d="M30.8435 297.258H26.1639C25.7503 297.258 25.4146 296.922 25.4146 296.508C25.4146 296.095 25.7503 295.759 26.1639 295.759H30.8435C31.2571 295.759 31.5928 296.095 31.5928 296.508C31.5928 296.922 31.2571 297.258 30.8435 297.258Z" fill="#232996"/>
<path d="M291.258 297.258H34.8217C34.4081 297.258 34.0724 296.922 34.0724 296.508C34.0724 296.095 34.4081 295.759 34.8217 295.759H291.258C291.672 295.759 292.008 296.095 292.008 296.508C292.008 296.922 291.672 297.258 291.258 297.258Z" fill="#232996"/>
<path d="M295.94 297.258H291.258C290.845 297.258 290.509 296.922 290.509 296.508C290.509 296.095 290.845 295.759 291.258 295.759H295.94C296.353 295.759 296.689 296.095 296.689 296.508C296.689 296.922 296.353 297.258 295.94 297.258Z" fill="#232996"/>
<path d="M302.208 297.258H297.778C297.364 297.258 297.029 296.922 297.029 296.508C297.029 296.095 297.364 295.759 297.778 295.759H302.208C302.621 295.759 302.957 296.095 302.957 296.508C302.957 296.922 302.621 297.258 302.208 297.258Z" fill="#232996"/>
<path d="M306.638 297.258H302.208C301.794 297.258 301.459 296.922 301.459 296.508C301.459 296.095 301.794 295.759 302.208 295.759H306.638C307.051 295.759 307.387 296.095 307.387 296.508C307.387 296.922 307.051 297.258 306.638 297.258Z" fill="#232996"/>
</g>
<defs>
<clipPath id="clip0_20_379">
<rect width="325" height="298" fill="white"/>
</clipPath>
</defs>
</svg>
