<svg width="26" height="33" viewBox="0 0 26 33" fill="none" xmlns="http://www.w3.org/2000/svg">
<path d="M17.5249 16.2625C15.0169 16.2625 12.51 16.2625 10.002 16.2625C11.028 10.8426 12.05 5.41992 13.075 0C14.56 5.42264 16.0429 10.8426 17.5249 16.2625Z" fill="#232996"/>
<path d="M17.5249 16.2625C15.0169 16.2625 12.51 16.2625 10.002 16.2625C11.028 21.6824 12.05 27.105 13.075 32.5249C14.56 27.105 16.0429 21.6851 17.5249 16.2625Z" fill="#232996"/>
<path d="M13.135 12.5024C13.135 15.0111 13.135 17.5197 13.135 20.0283C9.07199 19.0025 5.00599 17.9795 0.942993 16.9537C5.00899 15.4682 9.07199 13.9853 13.135 12.5024Z" fill="#232996"/>
<path d="M13.135 12.5024C13.135 15.0111 13.135 17.5197 13.135 20.0283C17.199 19.0025 21.265 17.9795 25.328 16.9537C21.265 15.4682 17.199 13.9853 13.135 12.5024Z" fill="#232996"/>
</svg>
