<svg width="189" height="38" viewBox="0 0 189 38" fill="none" xmlns="http://www.w3.org/2000/svg">
<path d="M8.51318 15.862C10.9433 15.8661 13.3756 15.8681 15.8058 15.8722C14.8203 10.6151 13.8328 5.35795 12.8474 0.10083C11.4027 5.3539 9.95793 10.609 8.51318 15.862Z" fill="#232996"/>
<path d="M8.51318 15.8619C10.9433 15.866 13.3756 15.868 15.8058 15.8721C14.8062 21.1272 13.8046 26.3822 12.8049 31.6353C11.3744 26.3782 9.94379 21.121 8.51318 15.8619Z" fill="#232996"/>
<path d="M12.7747 12.2203C12.7706 14.6515 12.7686 17.0847 12.7645 19.5159C16.7063 18.528 20.648 17.5402 24.5898 16.5503C20.65 15.107 16.7123 13.6637 12.7747 12.2203Z" fill="#232996"/>
<path d="M12.7746 12.2203C12.7705 14.6515 12.7685 17.0847 12.7644 19.5159C8.8248 18.5179 4.88714 17.5179 0.947388 16.5199C4.88913 15.0867 8.83087 13.6535 12.7746 12.2203Z" fill="#232996"/>
<path d="M176.318 25.3014C178.17 25.3034 180.021 25.3053 181.875 25.3094C181.124 21.3053 180.373 17.2993 179.62 13.2952C178.519 17.2973 177.419 21.2993 176.318 25.3014Z" fill="#232996"/>
<path d="M176.318 25.3014C178.17 25.3034 180.021 25.3054 181.875 25.3095C181.112 29.3115 180.351 33.3155 179.588 37.3176C178.497 33.3116 177.409 29.3075 176.318 25.3014Z" fill="#232996"/>
<path d="M179.563 22.5281C179.561 24.3803 179.559 26.2325 179.555 28.0868C182.558 27.3337 185.561 26.5807 188.564 25.8277C185.565 24.7265 182.564 23.6272 179.563 22.5281Z" fill="#232996"/>
<path d="M179.563 22.5281C179.561 24.3803 179.559 26.2325 179.555 28.0868C176.554 27.3257 173.553 26.5645 170.553 25.8033C173.557 24.7102 176.56 23.6192 179.563 22.5281Z" fill="#232996"/>
</svg>
