<svg width="550" height="106" viewBox="0 0 550 106" fill="none" xmlns="http://www.w3.org/2000/svg">
<path d="M192.375 20.5363C195.434 20.5363 198.494 20.5363 201.55 20.5363C200.301 13.9263 199.053 7.31203 197.8 0.702026C195.993 7.31633 194.182 13.9263 192.375 20.5363Z" fill="#232996"/>
<path d="M192.375 20.5363C195.434 20.5363 198.494 20.5363 201.55 20.5363C200.301 27.146 199.053 33.756 197.8 40.371C195.993 33.761 194.182 27.146 192.375 20.5363Z" fill="#232996"/>
<path d="M197.727 15.9464C197.727 19.0063 197.727 22.0663 197.727 25.122C202.688 23.8733 207.644 22.6246 212.601 21.3716C207.644 19.5689 202.688 17.7576 197.727 15.9464Z" fill="#232996"/>
<path d="M197.727 15.9464C197.727 19.0063 197.727 22.0663 197.727 25.122C192.771 23.8733 187.81 22.6246 182.854 21.3716C187.814 19.5689 192.771 17.7576 197.727 15.9464Z" fill="#232996"/>
<path d="M359.603 18.6824C361.772 18.6824 363.945 18.6824 366.115 18.6824C365.228 13.9944 364.342 9.30219 363.455 4.60999C362.168 9.30219 360.885 13.9944 359.603 18.6824Z" fill="#232996"/>
<path d="M359.603 18.6824C361.772 18.6824 363.945 18.6824 366.115 18.6824C365.228 23.3746 364.342 28.063 363.455 32.755C362.168 28.063 360.885 23.3746 359.603 18.6824Z" fill="#232996"/>
<path d="M363.404 15.4264C363.404 17.5956 363.404 19.7649 363.404 21.9384C366.92 21.0519 370.44 20.1655 373.956 19.279C370.436 17.9962 366.92 16.7134 363.404 15.4264Z" fill="#232996"/>
<path d="M363.404 15.4264C363.404 17.5956 363.404 19.7649 363.404 21.9384C359.888 21.0519 356.368 20.1655 352.852 19.279C356.368 17.9962 359.884 16.7134 363.404 15.4264Z" fill="#232996"/>
<path d="M533.628 90.361C535.998 90.361 538.367 90.361 540.737 90.361C539.769 85.239 538.802 80.12 537.834 74.998C536.428 80.12 535.03 85.239 533.628 90.361Z" fill="#232996"/>
<path d="M533.628 90.361C535.998 90.361 538.367 90.361 540.737 90.361C539.769 95.484 538.802 100.602 537.834 105.725C536.428 100.606 535.03 95.484 533.628 90.361Z" fill="#232996"/>
<path d="M537.775 86.807C537.775 89.176 537.775 91.546 537.775 93.916C541.615 92.948 545.459 91.981 549.299 91.009C545.459 89.611 541.619 88.209 537.775 86.807Z" fill="#232996"/>
<path d="M537.775 86.807C537.775 89.176 537.775 91.546 537.775 93.916C533.935 92.948 530.095 91.981 526.251 91.009C530.095 89.611 533.935 88.209 537.775 86.807Z" fill="#232996"/>
<path d="M5.29944 78.923C6.82944 78.923 8.35943 78.923 9.88943 78.923C9.26293 75.616 8.64064 72.313 8.01424 69.006C7.10644 72.308 6.20294 75.616 5.29944 78.923Z" fill="#232996"/>
<path d="M5.29944 78.923C6.82944 78.923 8.35943 78.923 9.88943 78.923C9.26293 82.23 8.64064 85.533 8.01424 88.84C7.10644 85.533 6.20294 82.226 5.29944 78.923Z" fill="#232996"/>
<path d="M7.97607 76.626C7.97607 78.156 7.97607 79.686 7.97607 81.216C10.4564 80.589 12.9326 79.967 15.4129 79.34C12.9368 78.437 10.4564 77.533 7.97607 76.626Z" fill="#232996"/>
<path d="M7.9761 76.626C7.9761 78.156 7.9761 79.686 7.9761 81.216C5.4957 80.589 3.01541 79.967 0.539307 79.34C3.01971 78.437 5.4957 77.533 7.9761 76.626Z" fill="#232996"/>
</svg>
