<svg width="219" height="55" viewBox="0 0 219 55" fill="none" xmlns="http://www.w3.org/2000/svg">
<path d="M85.5383 11.2648C87.2037 11.2669 88.8689 11.2689 90.5363 11.271C89.8604 7.66765 89.1846 4.06643 88.5088 0.46521C87.5193 4.06444 86.5298 7.66566 85.5383 11.2648Z" fill="#232996"/>
<path d="M85.5383 11.2649C87.2037 11.2669 88.8689 11.2689 90.5363 11.271C89.8504 14.8702 89.1664 18.4714 88.4805 22.0726C87.4991 18.4693 86.5198 14.8681 85.5383 11.2649Z" fill="#232996"/>
<path d="M88.4582 8.76892C88.4561 10.435 88.4541 12.1009 88.4521 13.7669C91.1535 13.0888 93.8528 12.4127 96.5538 11.7345C93.8549 10.7487 91.1575 9.75881 88.4582 8.76892Z" fill="#232996"/>
<path d="M88.4582 8.76892C88.4561 10.435 88.4541 12.1009 88.4521 13.7669C85.7529 13.0828 83.0535 12.3985 80.3562 11.7143C83.0555 10.7325 85.7568 9.75075 88.4582 8.76892Z" fill="#232996"/>
<path d="M4.52649 46.7307C5.7446 46.7327 6.96077 46.7347 8.17685 46.7347C7.68315 44.1032 7.18945 41.4695 6.69575 38.8379C5.97327 41.4695 5.2509 44.1012 4.52649 46.7307Z" fill="#232996"/>
<path d="M4.52649 46.7307C5.7446 46.7327 6.96077 46.7347 8.17685 46.7347C7.67707 49.3663 7.17521 51.9959 6.67543 54.6275C5.95913 51.9959 5.24283 49.3623 4.52649 46.7307Z" fill="#232996"/>
<path d="M6.66135 44.9069C6.65936 46.1255 6.65727 47.3421 6.65527 48.5607C8.62819 48.0668 10.6031 47.5708 12.5759 47.0769C10.6051 46.3522 8.63227 45.6295 6.66135 44.9069Z" fill="#232996"/>
<path d="M6.66133 44.9069C6.65934 46.1255 6.65725 47.3421 6.65525 48.5607C4.68236 48.0607 2.71154 47.5607 0.738647 47.0607C2.71356 46.342 4.68645 45.6255 6.66133 44.9069Z" fill="#232996"/>
<path d="M209.528 37.7226C210.917 37.7246 212.307 37.7266 213.696 37.7286C213.133 34.7246 212.568 31.7225 212.005 28.7185C211.18 31.7206 210.354 34.7205 209.528 37.7226Z" fill="#232996"/>
<path d="M209.528 37.7225C210.917 37.7245 212.307 37.7266 213.696 37.7286C213.125 40.7307 212.552 43.7327 211.982 46.7347C211.164 43.7307 210.346 40.7266 209.528 37.7225Z" fill="#232996"/>
<path d="M211.963 35.6416C211.961 37.0303 211.959 38.4209 211.957 39.8096C214.21 39.2448 216.461 38.68 218.711 38.1153C216.463 37.2913 214.214 36.4675 211.963 35.6416Z" fill="#232996"/>
<path d="M211.963 35.6416C211.961 37.0303 211.959 38.4209 211.957 39.8096C209.707 39.2387 207.457 38.6679 205.207 38.0971C207.459 37.2792 209.711 36.4614 211.963 35.6416Z" fill="#232996"/>
</svg>
