<svg width="550" height="181" viewBox="0 0 550 181" fill="none" xmlns="http://www.w3.org/2000/svg">
<path d="M141.025 49.0573C145.533 49.0573 150.038 49.0573 154.547 49.0573C152.706 39.3148 150.865 29.5724 149.024 19.83C146.356 29.5767 143.688 39.3191 141.025 49.0573Z" fill="#232996"/>
<path d="M141.025 49.0573C145.533 49.0573 150.038 49.0573 154.547 49.0573C152.706 58.7997 150.865 68.542 149.024 78.2845C146.356 68.542 143.688 58.7997 141.025 49.0573Z" fill="#232996"/>
<path d="M148.917 42.2981C148.917 46.8071 148.917 51.3118 148.917 55.8207C156.226 53.9796 163.531 52.1385 170.835 50.2975C163.527 47.6296 156.222 44.966 148.917 42.2981Z" fill="#232996"/>
<path d="M148.917 42.2981C148.917 46.8071 148.917 51.3118 148.917 55.8207C141.613 53.9796 134.304 52.1385 126.999 50.2975C134.304 47.6296 141.608 44.966 148.917 42.2981Z" fill="#232996"/>
<path d="M379.096 19.8343C382.156 19.8343 385.216 19.8343 388.272 19.8343C387.023 13.2243 385.77 6.61002 384.522 0C382.715 6.61002 380.903 13.22 379.096 19.8343Z" fill="#232996"/>
<path d="M379.096 19.8344C382.156 19.8344 385.216 19.8344 388.272 19.8344C387.023 26.4444 385.77 33.0586 384.522 39.6686C382.715 33.0543 380.903 26.4444 379.096 19.8344Z" fill="#232996"/>
<path d="M384.453 15.2444C384.453 18.3043 384.453 21.3643 384.453 24.42C389.414 23.1713 394.37 21.9226 399.327 20.6696C394.37 18.8626 389.41 17.0556 384.453 15.2444Z" fill="#232996"/>
<path d="M384.453 15.2444C384.453 18.3043 384.453 21.3643 384.453 24.42C379.497 23.1713 374.536 21.9226 369.58 20.6696C374.536 18.8626 379.492 17.0556 384.453 15.2444Z" fill="#232996"/>
<path d="M491.44 107.84C494.709 107.84 497.978 107.84 501.247 107.84C499.913 100.774 498.575 93.7122 497.241 86.6462C495.306 93.7122 493.371 100.778 491.44 107.84Z" fill="#232996"/>
<path d="M491.44 107.84C494.709 107.84 497.978 107.84 501.247 107.84C499.913 114.906 498.575 121.968 497.241 129.034C495.306 121.972 493.371 114.906 491.44 107.84Z" fill="#232996"/>
<path d="M497.164 102.939C497.164 106.208 497.164 109.477 497.164 112.745C502.461 111.411 507.759 110.073 513.06 108.739C507.759 106.804 502.461 104.874 497.164 102.939Z" fill="#232996"/>
<path d="M497.164 102.939C497.164 106.208 497.164 109.477 497.164 112.745C491.867 111.411 486.565 110.073 481.268 108.739C486.565 106.804 491.863 104.874 497.164 102.939Z" fill="#232996"/>
<path d="M43.92 123.677C46.98 123.677 50.04 123.677 53.095 123.677C51.847 117.067 50.598 110.453 49.345 103.842C47.538 110.457 45.731 117.067 43.92 123.677Z" fill="#232996"/>
<path d="M43.92 123.677C46.98 123.677 50.04 123.677 53.095 123.677C51.847 130.287 50.598 136.901 49.345 143.511C47.538 136.901 45.731 130.291 43.92 123.677Z" fill="#232996"/>
<path d="M49.277 119.091C49.277 122.151 49.277 125.211 49.277 128.267C54.233 127.018 59.194 125.769 64.15 124.516C59.194 122.709 54.233 120.898 49.277 119.091Z" fill="#232996"/>
<path d="M49.277 119.091C49.277 122.151 49.277 125.211 49.277 128.267C44.32 127.018 39.36 125.769 34.403 124.516C39.36 122.709 44.316 120.898 49.277 119.091Z" fill="#232996"/>
</svg>
