<svg width="199" height="80" viewBox="0 0 199 80" fill="none" xmlns="http://www.w3.org/2000/svg">
<path d="M190.853 14.9281C188.551 14.9281 186.249 14.9281 183.947 14.9281C184.888 9.95272 185.827 4.97536 186.768 0C188.129 4.97536 189.49 9.95272 190.853 14.9281Z" fill="#232996"/>
<path d="M190.853 14.928C188.551 14.928 186.249 14.928 183.947 14.928C184.888 19.9034 185.827 24.8807 186.768 29.8561C188.129 24.8787 189.49 19.9034 190.853 14.928Z" fill="#232996"/>
<path d="M186.822 11.4739C186.822 13.7767 186.822 16.0794 186.822 18.3822C183.092 17.4407 179.361 16.5012 175.631 15.5597C179.361 14.1984 183.092 12.8352 186.822 11.4739Z" fill="#232996"/>
<path d="M186.822 11.4739C186.822 13.7767 186.822 16.0794 186.822 18.3822C190.553 17.4407 194.283 16.5012 198.014 15.5597C194.283 14.1984 190.553 12.8352 186.822 11.4739Z" fill="#232996"/>
<path d="M49.142 72.0317C47.957 72.0317 46.772 72.0317 45.587 72.0317C46.071 69.469 46.556 66.9084 47.04 64.3458C47.739 66.9084 48.441 69.471 49.142 72.0317Z" fill="#232996"/>
<path d="M49.142 72.0317C47.957 72.0317 46.772 72.0317 45.587 72.0317C46.071 74.5943 46.556 77.157 47.04 79.7176C47.739 77.157 48.441 74.5943 49.142 72.0317Z" fill="#232996"/>
<path d="M47.066 70.2546C47.066 71.44 47.066 72.6254 47.066 73.8108C45.146 73.3271 43.224 72.8413 41.303 72.3575C43.226 71.6559 45.146 70.9563 47.066 70.2546Z" fill="#232996"/>
<path d="M47.066 70.2546C47.066 71.44 47.066 72.6254 47.066 73.8108C48.986 73.3271 50.908 72.8413 52.829 72.3575C50.908 71.6559 48.988 70.9563 47.066 70.2546Z" fill="#232996"/>
<path d="M13.8392 17.8525C11.8911 17.8525 9.94288 17.8525 7.99268 17.8525C8.78798 13.6388 9.58528 9.42702 10.3805 5.21326C11.5334 9.42502 12.6863 13.6388 13.8392 17.8525Z" fill="#232996"/>
<path d="M13.8392 17.8525C11.8911 17.8525 9.94288 17.8525 7.99268 17.8525C8.78798 22.0663 9.58528 26.2781 10.3805 30.4918C11.5334 26.2781 12.6863 22.0643 13.8392 17.8525Z" fill="#232996"/>
<path d="M10.4265 14.928C10.4265 16.877 10.4265 18.826 10.4265 20.7769C7.26751 19.9813 4.11042 19.1838 0.951416 18.3882C4.10842 17.2328 7.26751 16.0814 10.4265 14.928Z" fill="#232996"/>
<path d="M10.4265 14.928C10.4265 16.877 10.4265 18.826 10.4265 20.7769C13.5855 19.9813 16.7425 19.1838 19.9015 18.3882C16.7425 17.2328 13.5855 16.0814 10.4265 14.928Z" fill="#232996"/>
</svg>
