<svg width="234" height="68" viewBox="0 0 234 68" fill="none" xmlns="http://www.w3.org/2000/svg">
<path d="M160 10.9281C158.361 10.9281 156.723 10.9281 155.082 10.9281C155.752 7.384 156.421 3.84185 157.091 0.297729C158.06 3.84185 159.029 7.384 160 10.9281Z" fill="#232996"/>
<path d="M160 10.928C158.361 10.928 156.723 10.928 155.082 10.928C155.752 14.4722 156.421 18.0143 157.091 21.5584C158.06 18.0143 159.029 14.4702 160 10.928Z" fill="#232996"/>
<path d="M157.129 8.46729C157.129 10.1065 157.129 11.7456 157.129 13.3867C154.471 12.7171 151.816 12.0474 149.16 11.3778C151.816 10.4083 154.473 9.43879 157.129 8.46729Z" fill="#232996"/>
<path d="M157.129 8.46729C157.129 10.1065 157.129 11.7456 157.129 13.3867C159.784 12.7171 162.441 12.0474 165.097 11.3778C162.441 10.4083 159.786 9.43879 157.129 8.46729Z" fill="#232996"/>
<path d="M11.5875 34.8813C9.94907 34.8813 8.30857 34.8813 6.67017 34.8813C7.33947 31.3372 8.00886 27.7951 8.67826 24.251C9.64926 27.7951 10.6184 31.3372 11.5875 34.8813Z" fill="#232996"/>
<path d="M11.5875 34.8813C9.94907 34.8813 8.30857 34.8813 6.67017 34.8813C7.33947 38.4255 8.00886 41.9676 8.67826 45.5117C9.64926 41.9676 10.6184 38.4255 11.5875 34.8813Z" fill="#232996"/>
<path d="M8.71825 32.4227C8.71825 34.0618 8.71825 35.7029 8.71825 37.3421C6.06275 36.6724 3.40526 36.0028 0.749756 35.3331C3.40526 34.3617 6.06075 33.3922 8.71825 32.4227Z" fill="#232996"/>
<path d="M8.71826 32.4227C8.71826 34.0618 8.71826 35.7029 8.71826 37.3421C11.3738 36.6724 14.0313 36.0028 16.6868 35.3331C14.0313 34.3617 11.3738 33.3922 8.71826 32.4227Z" fill="#232996"/>
<path d="M229.72 59.896C228.491 59.896 227.262 59.896 226.034 59.896C226.535 57.2394 227.039 54.5809 227.54 51.9243C228.265 54.5809 228.993 57.2374 229.72 59.896Z" fill="#232996"/>
<path d="M229.72 59.8961C228.491 59.8961 227.262 59.8961 226.034 59.8961C226.535 62.5526 227.039 65.2112 227.54 67.8678C228.265 65.2112 228.993 62.5526 229.72 59.8961Z" fill="#232996"/>
<path d="M227.568 58.0511C227.568 59.2804 227.568 60.5098 227.568 61.7391C225.576 61.2374 223.584 60.7336 221.592 60.2319C223.582 59.5063 225.576 58.7787 227.568 58.0511Z" fill="#232996"/>
<path d="M227.568 58.0511C227.568 59.2804 227.568 60.5098 227.568 61.7391C229.56 61.2374 231.552 60.7336 233.545 60.2319C231.552 59.5063 229.56 58.7787 227.568 58.0511Z" fill="#232996"/>
</svg>
